<svg xmlns="http://www.w3.org/2000/svg" xmlns:xlink="http://www.w3.org/1999/xlink" width="19" height="19" viewBox="0 0 19 19">
  <defs>
    <style>
      .cls-1 {
        fill-rule: evenodd;
        fill: url(#linear-gradient);
      }
    </style>
    <linearGradient id="linear-gradient" x1="465.5" y1="11521" x2="465.5" y2="11502" gradientUnits="userSpaceOnUse">
      <stop offset="-0.25" stop-color="#dc282c"/>
      <stop offset="1.25" stop-color="#fd6f72"/>
    </linearGradient>
  </defs>
  <path id="Иконка" class="cls-1" d="M467.36,11513.8a8.521,8.521,0,0,1-4.143-4.2l2.356-2.3-5.281-5.3-2.9,2.9a4.688,4.688,0,0,0-1.4,3.4c0,5.7,6.988,12.7,12.673,12.7a4.892,4.892,0,0,0,3.437-1.4l2.9-2.9-5.279-5.3Zm3.059,4.1a2.317,2.317,0,0,1-1.749.7c-3.974,0-10.293-5.6-10.293-10.3a2.483,2.483,0,0,1,.7-1.7l1.211-1.2,1.908,1.9-1.8,1.8,0.294,0.7a11.043,11.043,0,0,0,6.514,6.5l0.722,0.3,1.793-1.8,1.908,1.9Z" transform="translate(-456 -11502)"/>
</svg>
