<?xml version="1.0" encoding="UTF-8"?>
<!DOCTYPE svg PUBLIC "-//W3C//DTD SVG 1.1//EN" "http://www.w3.org/Graphics/SVG/1.1/DTD/svg11.dtd">
<svg xmlns="http://www.w3.org/2000/svg" version="1.1" width="100px" height="100px" style="shape-rendering:geometricPrecision; text-rendering:geometricPrecision; image-rendering:optimizeQuality; fill-rule:evenodd; clip-rule:evenodd" xmlns:xlink="http://www.w3.org/1999/xlink">
<g><path style="opacity:0.457" fill="#5a5a5a" d="M 89.5,23.5 C 89.5,24.1667 89.5,24.8333 89.5,25.5C 76.0141,6.93948 58.0141,0.439484 35.5,6C 30.2138,7.64131 25.5472,10.308 21.5,14C 25.3654,18.6941 29.3654,23.1941 33.5,27.5C 33.5,27.8333 33.5,28.1667 33.5,28.5C 31.4707,30.8585 29.4707,33.1918 27.5,35.5C 27.5,34.8333 27.5,34.1667 27.5,33.5C 28.6253,31.8712 29.9586,30.3712 31.5,29C 28,24.8333 24.5,20.6667 21,16.5C 20.2825,15.5494 19.4491,15.3828 18.5,16C 0.030899,36.5569 -1.13577,58.0569 15,80.5C 18.2922,83.8732 21.7922,86.8732 25.5,89.5C 24.8333,89.5 24.1667,89.5 23.5,89.5C 12.7805,82.7785 5.94717,73.1118 3,60.5C -0.594093,31.132 11.5726,11.9654 39.5,3C 60.8355,-0.813436 77.5021,6.0199 89.5,23.5 Z"/></g>
<g><path style="opacity:0.998" fill="#464646" d="M 27.5,35.5 C 29.4707,33.1918 31.4707,30.8585 33.5,28.5C 51.2695,19.0661 65.1028,23.0661 75,40.5C 79.319,58.3669 72.819,70.2002 55.5,76C 39.4563,77.6145 28.9563,70.7812 24,55.5C 22.7512,48.3659 23.9178,41.6993 27.5,35.5 Z"/></g>
<g><path style="opacity:0.58" fill="#150601" d="M 89.5,25.5 C 89.5,24.8333 89.5,24.1667 89.5,23.5C 93.3065,28.1179 95.8065,33.4512 97,39.5C 100.594,68.868 88.4274,88.0346 60.5,97C 51.0107,98.1044 41.6774,97.4377 32.5,95C 29.1019,93.6429 26.1019,91.8096 23.5,89.5C 24.1667,89.5 24.8333,89.5 25.5,89.5C 32.9282,93.6915 40.9282,96.0248 49.5,96.5C 49.5,90.1667 49.5,83.8333 49.5,77.5C 28.8356,74.9831 20.0023,63.3164 23,42.5C 24.0033,39.1598 25.5033,36.1598 27.5,33.5C 27.5,34.1667 27.5,34.8333 27.5,35.5C 23.9178,41.6993 22.7512,48.3659 24,55.5C 28.9563,70.7812 39.4563,77.6145 55.5,76C 72.819,70.2002 79.319,58.3669 75,40.5C 65.1028,23.0661 51.2695,19.0661 33.5,28.5C 33.5,28.1667 33.5,27.8333 33.5,27.5C 51.179,17.8419 65.5123,21.5086 76.5,38.5C 81.6657,35.7516 86.6657,32.7516 91.5,29.5C 90.8201,28.1401 90.1534,26.8068 89.5,25.5 Z M 90.5,32.5 C 92.4109,32.5743 93.5776,33.5743 94,35.5C 100.226,63.2146 90.3931,82.7146 64.5,94C 59.8645,95.0666 55.1978,95.8999 50.5,96.5C 50.5,90.1667 50.5,83.8333 50.5,77.5C 71.8431,74.8061 80.5098,62.8061 76.5,41.5C 81.2314,38.4758 85.8981,35.4758 90.5,32.5 Z"/></g>
</svg>
