<?xml version="1.0" standalone="no"?>
<!DOCTYPE svg PUBLIC "-//W3C//DTD SVG 20010904//EN"
 "http://www.w3.org/TR/2001/REC-SVG-20010904/DTD/svg10.dtd">
<svg version="1.0" xmlns="http://www.w3.org/2000/svg"
 width="1280.000000pt" height="1280.000000pt" viewBox="0 0 1280.000000 1280.000000"
 preserveAspectRatio="xMidYMid meet">
<metadata>
Created by potrace 1.15, written by Peter Selinger 2001-2017
</metadata>
<g transform="translate(0.000000,1280.000000) scale(0.100000,-0.100000)"
fill="rgb(191, 255, 16)" stroke="none">
<path d="M2635 11953 c-47 -7 -177 -53 -205 -73 -14 -9 -36 -21 -50 -25 -38
-11 -132 -60 -183 -95 -76 -51 -145 -151 -181 -264 -36 -109 -37 -242 -3 -307
27 -50 49 -58 99 -36 18 9 62 28 98 43 184 77 322 138 372 165 20 10 42 19 49
19 6 0 33 11 61 25 93 47 103 40 164 -112 49 -124 46 -133 -59 -182 -45 -21
-93 -42 -107 -46 -14 -4 -30 -11 -36 -16 -6 -5 -37 -18 -69 -29 -32 -11 -63
-24 -69 -29 -6 -4 -29 -14 -51 -21 -22 -7 -47 -19 -55 -26 -9 -7 -36 -20 -60
-29 -25 -8 -65 -25 -90 -37 -25 -12 -52 -24 -60 -28 -25 -12 -24 -74 3 -127
14 -26 39 -86 57 -133 29 -78 83 -198 115 -260 7 -14 30 -68 50 -120 20 -52
48 -120 62 -150 13 -30 35 -77 48 -105 12 -27 32 -70 43 -95 11 -25 24 -56 27
-70 4 -14 17 -47 30 -75 13 -27 49 -108 80 -180 31 -71 67 -153 81 -181 13
-28 24 -54 24 -59 0 -9 42 -109 75 -180 58 -125 76 -165 100 -230 14 -38 34
-88 44 -110 11 -22 37 -78 59 -125 22 -47 53 -121 70 -165 17 -44 40 -98 51
-121 11 -22 23 -52 26 -67 4 -15 19 -37 33 -48 31 -24 69 -20 141 15 83 42
155 75 231 106 125 52 161 67 256 109 101 46 124 49 146 24 37 -43 93 -194 89
-239 -1 -13 -91 -59 -136 -70 -16 -3 -50 -17 -75 -30 -43 -21 -117 -56 -223
-103 -26 -11 -53 -21 -60 -21 -6 0 -25 -7 -42 -16 -16 -9 -58 -27 -92 -41 -36
-14 -69 -35 -78 -49 -15 -23 -15 -29 5 -82 12 -31 27 -66 34 -77 7 -11 19 -38
26 -60 7 -22 16 -45 21 -51 5 -6 29 -62 55 -125 25 -62 65 -154 89 -204 23
-49 47 -103 53 -120 6 -16 27 -68 47 -115 20 -47 43 -103 51 -125 8 -21 21
-46 28 -55 8 -8 19 -33 25 -55 6 -22 18 -49 26 -59 8 -11 15 -26 15 -34 0 -13
44 -119 85 -207 50 -107 135 -305 135 -315 0 -7 11 -33 25 -59 13 -25 38 -80
55 -121 17 -41 42 -96 55 -121 14 -26 25 -52 25 -59 0 -12 77 -194 125 -295
41 -87 85 -193 85 -205 0 -6 9 -28 20 -48 11 -20 29 -57 40 -82 11 -25 53
-109 94 -187 66 -126 99 -183 162 -277 10 -16 28 -45 39 -65 19 -35 38 -63
130 -185 22 -29 51 -68 65 -87 14 -18 49 -60 77 -94 29 -33 74 -86 100 -119
80 -98 315 -331 363 -359 128 -74 165 -89 231 -94 63 -5 66 -4 101 28 92 86
125 298 98 634 -20 239 -64 585 -79 613 -5 9 -14 47 -20 82 -7 36 -20 90 -30
120 -11 30 -26 82 -34 115 -34 136 -108 353 -137 400 -11 18 -20 38 -20 46 0
7 -8 31 -19 53 -60 131 -81 179 -81 189 0 5 -12 35 -26 66 -14 31 -37 79 -49
106 -13 28 -38 84 -55 125 -18 41 -43 100 -56 130 -13 30 -37 88 -54 128 -17
41 -42 94 -56 119 -13 25 -24 53 -24 62 0 9 -9 30 -19 48 -11 17 -25 50 -31
73 -6 23 -20 56 -31 73 -10 18 -19 39 -19 48 0 9 -11 32 -24 52 -14 20 -29 51
-35 69 -14 49 -62 160 -77 183 -8 11 -14 26 -14 35 0 8 -13 42 -30 75 -16 33
-43 94 -61 135 -17 41 -39 91 -48 110 -10 19 -24 53 -31 75 -7 22 -21 53 -31
70 -11 16 -19 36 -19 43 0 13 -44 114 -81 183 -10 20 -19 43 -19 50 0 8 -11
35 -25 61 -14 26 -25 53 -25 59 0 7 -14 42 -31 78 -61 130 -87 187 -107 236
-43 108 -84 202 -107 250 -39 82 -75 163 -75 171 0 9 -44 112 -81 191 -16 34
-29 66 -29 73 0 6 -9 28 -20 48 -27 52 -62 129 -81 182 -22 60 -68 168 -111
260 -77 165 -98 213 -98 224 0 6 -11 34 -25 61 -13 28 -25 57 -25 66 0 8 -11
30 -25 49 -14 19 -25 41 -25 50 0 10 -11 38 -25 64 -14 26 -25 52 -25 57 0 14
-51 134 -105 245 -25 51 -54 118 -66 150 -12 33 -25 64 -29 69 -4 6 -11 21
-15 35 -8 28 -45 111 -81 183 -13 26 -24 53 -24 60 0 7 -10 30 -21 52 -12 22
-27 55 -35 75 -7 19 -29 73 -49 120 -20 47 -43 103 -51 125 -8 21 -21 46 -28
55 -8 8 -17 26 -21 40 -6 22 -20 54 -78 180 -16 34 -120 134 -183 176 -28 19
-76 43 -107 53 -57 20 -187 33 -242 24z"/>
<path d="M1659 10972 c-97 -39 -138 -76 -154 -140 -12 -47 -12 -60 4 -120 20
-74 57 -165 84 -205 9 -15 17 -31 17 -37 0 -6 11 -33 25 -60 14 -27 25 -55 25
-62 0 -7 14 -40 30 -73 16 -33 30 -65 30 -70 0 -6 20 -52 45 -103 42 -86 59
-124 106 -247 11 -27 26 -63 34 -80 46 -100 74 -163 80 -185 4 -14 16 -37 26
-51 10 -14 21 -38 25 -55 3 -16 15 -47 25 -69 10 -22 32 -74 49 -115 17 -41
44 -102 60 -135 15 -33 35 -76 43 -95 14 -33 24 -55 78 -192 11 -29 43 -98 70
-153 27 -56 49 -106 49 -113 0 -7 9 -29 20 -49 11 -21 20 -45 20 -53 0 -8 14
-42 30 -75 17 -33 30 -65 30 -71 0 -6 7 -17 15 -24 8 -7 22 -35 30 -63 8 -28
21 -60 29 -72 8 -12 20 -40 26 -63 36 -117 192 -159 275 -74 19 20 37 49 41
65 9 40 -5 117 -26 147 -9 14 -23 43 -30 65 -7 22 -17 45 -21 51 -5 6 -18 36
-28 66 -10 30 -24 63 -29 74 -6 10 -27 57 -47 104 -19 47 -46 106 -60 133 -14
26 -25 53 -25 60 0 7 -9 30 -19 51 -11 21 -36 79 -56 129 -20 51 -40 99 -45
107 -6 8 -15 26 -21 40 -15 36 -68 158 -90 208 -10 23 -19 48 -19 54 0 6 -15
43 -34 82 -63 133 -93 201 -116 261 -22 56 -58 138 -100 230 -57 123 -72 157
-80 182 -12 40 -61 156 -103 243 -46 97 -87 207 -87 233 0 11 9 35 21 54 18
28 20 45 17 101 -5 81 -38 135 -101 169 -54 29 -87 28 -168 -5z"/>
<path d="M1320 8301 c-20 -4 -41 -11 -48 -15 -9 -6 -12 -707 -12 -3215 0
-3144 0 -3209 19 -3232 l19 -24 5232 -3 5231 -2 24 25 25 24 0 3205 c0 2900
-1 3206 -16 3220 -8 9 -21 16 -27 16 -7 0 -1521 0 -3366 0 -3024 1 -3356 -1
-3370 -15 -14 -14 -13 -21 11 -68 15 -29 31 -65 37 -82 19 -59 63 -160 76
-175 7 -8 16 -26 19 -40 4 -14 18 -47 31 -75 13 -27 38 -88 55 -135 18 -47 38
-96 46 -110 24 -46 82 -175 89 -200 4 -14 13 -34 20 -45 6 -11 18 -38 25 -60
7 -22 19 -49 25 -60 7 -11 18 -37 25 -58 7 -21 26 -54 42 -73 l30 -34 2912 0
c1601 0 2916 -4 2922 -8 6 -4 16 -17 23 -29 16 -31 16 -4785 0 -4816 -7 -12
-17 -25 -23 -29 -15 -10 -9698 -10 -9713 0 -6 4 -16 19 -21 32 -6 15 -10 967
-10 2412 l-1 2387 20 26 21 26 835 -1 c635 -1 838 1 849 10 18 16 18 51 -1 76
-8 10 -20 37 -26 59 -6 22 -20 52 -30 66 -10 15 -19 33 -19 39 0 7 -16 47 -36
89 -66 140 -72 156 -104 241 -18 47 -39 93 -48 103 -21 23 -55 21 -89 -6 -15
-12 -55 -34 -88 -47 -85 -35 -223 -36 -310 -1 -117 47 -207 117 -275 215 -30
44 -100 190 -100 209 0 5 -18 47 -40 93 l-40 84 -364 0 c-200 0 -383 2 -407 4
-24 3 -60 1 -79 -3z"/>
<path d="M6208 5530 c-16 -4 -24 -14 -26 -34 -4 -32 23 -104 47 -123 12 -10
478 -13 2256 -13 2544 0 2285 -10 2285 90 0 51 -3 61 -22 72 -18 9 -501 12
-2270 13 -1236 0 -2257 -2 -2270 -5z"/>
<path d="M2332 5514 c-20 -14 -23 -23 -20 -72 3 -49 6 -58 28 -69 38 -19 1763
-19 1779 0 20 24 -29 137 -65 151 -9 3 -395 6 -858 6 -753 0 -844 -2 -864 -16z"/>
<path d="M2343 4300 c-26 -10 -36 -51 -31 -125 2 -41 7 -52 28 -62 20 -10 289
-13 1266 -13 1104 0 1243 2 1254 15 17 21 5 42 -69 125 l-59 65 -1183 2 c-674
1 -1193 -2 -1206 -7z"/>
<path d="M6392 4298 c-7 -7 -12 -43 -12 -93 0 -50 5 -86 12 -93 9 -9 505 -12
2170 -12 l2158 0 21 21 c19 19 21 30 16 92 -3 52 -9 74 -23 84 -25 18 -4323
20 -4342 1z"/>
<path d="M6915 3048 c-26 -21 -27 -24 -23 -94 3 -40 11 -80 18 -89 11 -13 217
-15 1922 -15 l1909 0 15 35 c22 54 19 138 -7 161 -21 19 -69 19 -1914 22
l-1892 2 -28 -22z"/>
</g>
</svg>
