<svg width="25" height="25" viewBox="0 0 25 25" fill="none" xmlns="http://www.w3.org/2000/svg">
<path d="M12.5 0C9.18555 0 6.00391 1.31777 3.66211 3.66113C1.3179 6.00542 0.000649355 9.18473 0 12.5C0 15.8139 1.31836 18.9955 3.66211 21.3389C6.00391 23.6822 9.18555 25 12.5 25C15.8145 25 18.9961 23.6822 21.3379 21.3389C23.6816 18.9955 25 15.8139 25 12.5C25 9.18613 23.6816 6.00449 21.3379 3.66113C18.9961 1.31777 15.8145 0 12.5 0Z" fill="url(#paint0_linear_601_37)"/>
<path d="M5.65819 12.368C9.30272 10.7805 11.7324 9.73379 12.9473 9.22812C16.4199 7.78418 17.1406 7.5334 17.6113 7.5249C17.7148 7.52324 17.9453 7.54883 18.0957 7.67041C18.2207 7.77295 18.2558 7.91162 18.2734 8.00898C18.2891 8.10625 18.3105 8.32793 18.293 8.50097C18.1055 10.4775 17.291 15.274 16.8769 17.4879C16.7031 18.4246 16.3574 18.7387 16.0234 18.7693C15.2969 18.8361 14.7461 18.2896 14.043 17.8289C12.9433 17.1076 12.3223 16.6588 11.2539 15.9551C10.0195 15.1418 10.8203 14.6947 11.5234 13.9643C11.707 13.773 14.9062 10.8639 14.9668 10.6C14.9746 10.567 14.9824 10.4439 14.9082 10.3791C14.8359 10.3141 14.7285 10.3363 14.6504 10.3539C14.5391 10.3789 12.7832 11.5406 9.37694 13.8389C8.87889 14.1814 8.42772 14.3484 8.02147 14.3396C7.57616 14.3301 6.71678 14.0873 6.07811 13.8799C5.29686 13.6254 4.67382 13.4908 4.7285 13.0586C4.75585 12.8336 5.06639 12.6033 5.65819 12.368Z" fill="white"/>
<defs>
<linearGradient id="paint0_linear_601_37" x1="2.4826e-07" y1="9.40082" x2="26.4947" y2="11.8684" gradientUnits="userSpaceOnUse">
<stop stop-color="#0090BC"/>
<stop offset="0.117896" stop-color="#0090BC"/>
<stop offset="0.213837" stop-color="#008EBC"/>
<stop offset="0.2912" stop-color="#008CBC"/>
<stop offset="0.353363" stop-color="#0089BC"/>
<stop offset="0.403704" stop-color="#0086BC"/>
<stop offset="0.4456" stop-color="#0082BD"/>
<stop offset="0.48243" stop-color="#007DBD"/>
<stop offset="0.51757" stop-color="#0079BD"/>
<stop offset="0.5544" stop-color="#0074BD"/>
<stop offset="0.596296" stop-color="#006FBD"/>
<stop offset="0.646637" stop-color="#006ABD"/>
<stop offset="0.7088" stop-color="#0065BD"/>
<stop offset="0.786163" stop-color="#0060BD"/>
<stop offset="0.882104" stop-color="#005BBD"/>
<stop offset="1" stop-color="#0057BD"/>
</linearGradient>
</defs>
</svg>
