<svg width="80" height="80" viewBox="0 0 80 80" fill="none" xmlns="http://www.w3.org/2000/svg">
<g id="TG">
<g id="bg" filter="url(#filter0_ii_265_673)">
<path d="M0 40C0 62.0914 17.9086 80 40 80C62.0914 80 80 62.0914 80 40C80 17.9086 62.0914 0 40 0C17.9086 0 0 17.9086 0 40Z" fill="url(#paint0_linear_265_673)"/>
</g>
<path id="Vector" d="M53.675 55.5517C53.5513 55.8614 53.3627 56.141 53.122 56.3718C52.8812 56.6026 52.5939 56.7792 52.2792 56.8897C51.9646 57.0003 51.6299 57.0422 51.2978 57.0127C50.9656 56.9831 50.6436 56.8829 50.3533 56.7186L41.3531 49.7239L35.5784 55.0544C35.4443 55.1534 35.2876 55.2171 35.1225 55.2397C34.9574 55.2623 34.7893 55.243 34.6336 55.1837L35.7408 45.2752L35.774 45.305L35.7972 45.1094C35.7972 45.1094 51.991 30.3643 52.6506 29.7378C53.3203 29.1112 53.0982 28.9753 53.0982 28.9753C53.1379 28.2129 51.9014 28.9753 51.9014 28.9753L30.4434 42.779L21.5095 39.7358C21.5095 39.7358 20.1371 39.2452 20.0078 38.1612C19.8719 37.0871 21.5526 36.5037 21.5526 36.5037L57.0795 22.3884C57.0795 22.3884 60 21.0889 60 23.2437L53.675 55.5517Z" fill="url(#paint1_linear_265_673)"/>
</g>
<defs>
<filter id="filter0_ii_265_673" x="0" y="-10" width="80" height="94" filterUnits="userSpaceOnUse" color-interpolation-filters="sRGB">
<feFlood flood-opacity="0" result="BackgroundImageFix"/>
<feBlend mode="normal" in="SourceGraphic" in2="BackgroundImageFix" result="shape"/>
<feColorMatrix in="SourceAlpha" type="matrix" values="0 0 0 0 0 0 0 0 0 0 0 0 0 0 0 0 0 0 127 0" result="hardAlpha"/>
<feOffset dy="4"/>
<feGaussianBlur stdDeviation="2.5"/>
<feComposite in2="hardAlpha" operator="arithmetic" k2="-1" k3="1"/>
<feColorMatrix type="matrix" values="0 0 0 0 1 0 0 0 0 1 0 0 0 0 1 0 0 0 0.12 0"/>
<feBlend mode="normal" in2="shape" result="effect1_innerShadow_265_673"/>
<feColorMatrix in="SourceAlpha" type="matrix" values="0 0 0 0 0 0 0 0 0 0 0 0 0 0 0 0 0 0 127 0" result="hardAlpha"/>
<feOffset dy="-10"/>
<feGaussianBlur stdDeviation="5"/>
<feComposite in2="hardAlpha" operator="arithmetic" k2="-1" k3="1"/>
<feColorMatrix type="matrix" values="0 0 0 0 0 0 0 0 0 0.394919 0 0 0 0 0.741494 0 0 0 0.24 0"/>
<feBlend mode="normal" in2="effect1_innerShadow_265_673" result="effect2_innerShadow_265_673"/>
</filter>
<linearGradient id="paint0_linear_265_673" x1="40" y1="0" x2="40" y2="80" gradientUnits="userSpaceOnUse">
<stop/>
<stop offset="1" stop-color="#333333" stop-opacity="0"/>
</linearGradient>
<linearGradient id="paint1_linear_265_673" x1="58.3333" y1="17" x2="34" y2="57.3333" gradientUnits="userSpaceOnUse">
<stop offset="0.367259" stop-color="#004ED3"/>
<stop offset="1" stop-color="#00C2FF"/>
</linearGradient>
</defs>
</svg>
