<svg width="25" height="26" viewBox="0 0 25 26" fill="none" xmlns="http://www.w3.org/2000/svg">
<path d="M0.533508 12.4469C0.532922 14.5638 1.08605 16.6308 2.13781 18.4526L0.432922 24.6774L6.80324 23.0071C8.56518 23.9663 10.5393 24.4689 12.5454 24.469H12.5507C19.1733 24.469 24.5642 19.0801 24.567 12.4563C24.5683 9.24668 23.3194 6.22852 21.0505 3.95781C18.7819 1.6873 15.7649 0.43623 12.5502 0.434765C5.92687 0.434765 0.536243 5.82344 0.533508 12.4469Z" fill="url(#paint0_linear_601_38)"/>
<path d="M9.44122 7.24102C9.20822 6.72314 8.963 6.7127 8.74142 6.70361C8.55997 6.6958 8.35255 6.69639 8.14532 6.69639C7.9379 6.69639 7.60089 6.77441 7.31603 7.08545C7.03087 7.39678 6.22736 8.14912 6.22736 9.6793C6.22736 11.2096 7.34191 12.6884 7.49728 12.8961C7.65284 13.1034 9.64894 16.344 12.8103 17.5907C15.4376 18.6268 15.9723 18.4207 16.5425 18.3687C17.1128 18.317 18.3827 17.6166 18.6418 16.8903C18.9011 16.1642 18.9011 15.5417 18.8234 15.4116C18.7456 15.282 18.5382 15.2042 18.2272 15.0487C17.916 14.8932 16.3869 14.1407 16.1019 14.0369C15.8167 13.9332 15.6094 13.8814 15.402 14.1929C15.1945 14.5038 14.5989 15.2042 14.4174 15.4116C14.236 15.6195 14.0545 15.6454 13.7436 15.4898C13.4323 15.3338 12.4307 15.0058 11.2423 13.9463C10.3177 13.1219 9.69347 12.1038 9.51202 11.7924C9.33058 11.4814 9.49259 11.3129 9.64855 11.1579C9.78829 11.0186 9.95968 10.7947 10.1153 10.6132C10.2704 10.4315 10.3222 10.302 10.4259 10.0945C10.5297 9.88691 10.4777 9.70527 10.4001 9.54971C10.3222 9.39414 9.71779 7.85596 9.44122 7.24102Z" fill="white"/>
<defs>
<linearGradient id="paint0_linear_601_38" x1="1250" y1="2511.2" x2="1250" y2="0" gradientUnits="userSpaceOnUse">
<stop stop-color="#1FAF38"/>
<stop offset="1" stop-color="#60D669"/>
</linearGradient>
</defs>
</svg>
