<svg xmlns="http://www.w3.org/2000/svg" viewBox="0 0 13 8" height="15" width="15"><g xmlns="http://www.w3.org/2000/svg" transform="matrix(-1 0 0 -1 13 8)"><style></style><path transform="translate(6.5, 4) rotate(180) translate(-6.5, -4)" d="M6.50006 6.31491L11.9544 1.00741C11.9984 0.963716 12.0506 0.929169 12.108 0.905773C12.1654 0.882377 12.2268 0.870595 12.2888 0.87111C12.3508 0.871625 12.412 0.884426 12.469 0.908772C12.526 0.933119 12.5776 0.968528 12.6209 1.01295C12.6641 1.05737 12.6981 1.10992 12.7209 1.16757C12.7436 1.22521 12.7548 1.2868 12.7536 1.34877C12.7524 1.41074 12.7389 1.47186 12.714 1.52859C12.689 1.58532 12.6531 1.63654 12.6082 1.67929L6.82693 7.30429C6.73942 7.38943 6.62215 7.43706 6.50006 7.43706C6.37797 7.43706 6.26069 7.38943 6.17318 7.30429L0.391932 1.67929C0.347049 1.63654 0.31109 1.58532 0.286133 1.52859C0.261175 1.47186 0.247718 1.41074 0.246538 1.34877C0.245358 1.2868 0.256479 1.22521 0.279259 1.16757C0.302038 1.10992 0.336022 1.05737 0.379246 1.01295C0.422469 0.968528 0.474073 0.933119 0.531072 0.908772C0.58807 0.884426 0.649331 0.871625 0.711309 0.87111C0.773287 0.870595 0.834752 0.882377 0.892147 0.905773C0.949542 0.929169 1.00173 0.963716 1.04568 1.00741L6.50006 6.31491Z" fill="#000" /></g></svg>