<svg width="24" height="24" viewBox="0 0 24 24" fill="none" xmlns="http://www.w3.org/2000/svg">
<path d="M9.55 18L3.85 12.3L5.275 10.875L9.55 15.15L18.725 5.975L20.15 7.4L9.55 18Z" fill="url(#paint0_linear_642_59)"/>
<path d="M-10 -1C-10 -6.52285 -5.52285 -11 0 -11H25C30.5228 -11 35 -6.52285 35 -1V24C35 29.5228 30.5228 34 25 34H-9.53674e-07C-5.52285 34 -10 29.5228 -10 24V-1Z" fill="#D9D9D9" fill-opacity="0.1"/>
<path d="M9.55 18L3.85 12.3L5.275 10.875L9.55 15.15L18.725 5.975L20.15 7.4L9.55 18Z" fill="url(#paint1_linear_642_59)"/>
<defs>
<linearGradient id="paint0_linear_642_59" x1="-10" y1="5.92148" x2="37.6904" y2="10.3631" gradientUnits="userSpaceOnUse">
<stop stop-color="#0090BC"/>
<stop offset="0.117896" stop-color="#0090BC"/>
<stop offset="0.213837" stop-color="#008EBC"/>
<stop offset="0.2912" stop-color="#008CBC"/>
<stop offset="0.353363" stop-color="#0089BC"/>
<stop offset="0.403704" stop-color="#0086BC"/>
<stop offset="0.4456" stop-color="#0082BD"/>
<stop offset="0.48243" stop-color="#007DBD"/>
<stop offset="0.51757" stop-color="#0079BD"/>
<stop offset="0.5544" stop-color="#0074BD"/>
<stop offset="0.596296" stop-color="#006FBD"/>
<stop offset="0.646637" stop-color="#006ABD"/>
<stop offset="0.7088" stop-color="#0065BD"/>
<stop offset="0.786163" stop-color="#0060BD"/>
<stop offset="0.882104" stop-color="#005BBD"/>
<stop offset="1" stop-color="#0057BD"/>
</linearGradient>
<linearGradient id="paint1_linear_642_59" x1="-10" y1="5.92148" x2="37.6904" y2="10.3631" gradientUnits="userSpaceOnUse">
<stop stop-color="#0090BC"/>
<stop offset="0.117896" stop-color="#0090BC"/>
<stop offset="0.213837" stop-color="#008EBC"/>
<stop offset="0.2912" stop-color="#008CBC"/>
<stop offset="0.353363" stop-color="#0089BC"/>
<stop offset="0.403704" stop-color="#0086BC"/>
<stop offset="0.4456" stop-color="#0082BD"/>
<stop offset="0.48243" stop-color="#007DBD"/>
<stop offset="0.51757" stop-color="#0079BD"/>
<stop offset="0.5544" stop-color="#0074BD"/>
<stop offset="0.596296" stop-color="#006FBD"/>
<stop offset="0.646637" stop-color="#006ABD"/>
<stop offset="0.7088" stop-color="#0065BD"/>
<stop offset="0.786163" stop-color="#0060BD"/>
<stop offset="0.882104" stop-color="#005BBD"/>
<stop offset="1" stop-color="#0057BD"/>
</linearGradient>
</defs>
</svg>
