<svg width="61" height="60" viewBox="0 0 61 60" fill="none" xmlns="http://www.w3.org/2000/svg">
<path id="Vector" fill-rule="evenodd" clip-rule="evenodd" d="M60.5 30C60.5 46.5675 47.0675 60 30.5 60C13.9325 60 0.5 46.5675 0.5 30C0.5 13.4325 13.9325 0 30.5 0C47.0675 0 60.5 13.4325 60.5 30ZM31.575 22.1475C28.6575 23.36 22.825 25.8725 14.08 29.6825C12.66 30.2475 11.915 30.8 11.8475 31.34C11.7325 32.255 12.8775 32.615 14.4325 33.1025C14.645 33.17 14.865 33.2375 15.09 33.3125C16.6225 33.81 18.6825 34.3925 19.7525 34.415C20.725 34.435 21.81 34.035 23.0075 33.215C31.1775 27.6975 35.395 24.91 35.66 24.85C35.8475 24.8075 36.1075 24.7525 36.2825 24.91C36.4575 25.065 36.44 25.36 36.4225 25.44C36.3075 25.9225 31.8225 30.095 29.4975 32.255C28.7725 32.9275 28.26 33.405 28.155 33.515C27.92 33.7575 27.68 33.99 27.45 34.2125C26.025 35.5825 24.96 36.6125 27.51 38.2925C28.735 39.1 29.715 39.7675 30.6925 40.4325C31.76 41.16 32.825 41.885 34.205 42.79C34.555 43.02 34.89 43.2575 35.2175 43.49C36.46 44.3775 37.5775 45.1725 38.9575 45.0475C39.7575 44.9725 40.5875 44.22 41.0075 41.9725C42 36.6575 43.955 25.1475 44.4075 20.4025C44.435 20.0085 44.4183 19.6127 44.3575 19.2225C44.3211 18.9073 44.1676 18.6173 43.9275 18.41C43.57 18.1175 43.015 18.055 42.765 18.06C41.6375 18.08 39.9075 18.6825 31.575 22.1475Z" fill="url(#paint0_linear_319_45)"/>
<defs>
<linearGradient id="paint0_linear_319_45" x1="60.5" y1="3.42261e-05" x2="-2.46283" y2="3.28952" gradientUnits="userSpaceOnUse">
<stop stop-color="#E8C25F"/>
<stop offset="0.505208" stop-color="#F2E191"/>
<stop offset="1" stop-color="#D3A647"/>
</linearGradient>
</defs>
</svg>
