<svg width="36" height="36" viewBox="0 0 36 36" fill="none" xmlns="http://www.w3.org/2000/svg">
<g id="Group 213">
<g id="Group 91">
<circle id="Ellipse 62" cx="18" cy="18" r="18" fill="url(#paint0_linear_326_360)"/>
</g>
<path id="Vector" d="M25 9.91006C24.0832 8.98399 22.9912 8.24973 21.7876 7.75011C20.5841 7.25049 19.2931 6.99552 17.99 7.00006C12.53 7.00006 8.08 11.4501 8.08 16.9101C8.08 18.6601 8.54 20.3601 9.4 21.8601L8 27.0001L13.25 25.6201C14.7 26.4101 16.33 26.8301 17.99 26.8301C23.45 26.8301 27.9 22.3801 27.9 16.9201C27.9 14.2701 26.87 11.7801 25 9.91006ZM17.99 25.1501C16.51 25.1501 15.06 24.7501 13.79 24.0001L13.49 23.8201L10.37 24.6401L11.2 21.6001L11 21.2901C10.1777 19.977 9.74114 18.4593 9.74 16.9101C9.74 12.3701 13.44 8.67006 17.98 8.67006C20.18 8.67006 22.25 9.53006 23.8 11.0901C24.5675 11.854 25.1757 12.7627 25.5894 13.7635C26.0031 14.7642 26.214 15.8372 26.21 16.9201C26.23 21.4601 22.53 25.1501 17.99 25.1501ZM22.51 18.9901C22.26 18.8701 21.04 18.2701 20.82 18.1801C20.59 18.1001 20.43 18.0601 20.26 18.3001C20.09 18.5501 19.62 19.1101 19.48 19.2701C19.34 19.4401 19.19 19.4601 18.94 19.3301C18.69 19.2101 17.89 18.9401 16.95 18.1001C16.21 17.4401 15.72 16.6301 15.57 16.3801C15.43 16.1301 15.55 16.0001 15.68 15.8701C15.79 15.7601 15.93 15.5801 16.05 15.4401C16.17 15.3001 16.22 15.1901 16.3 15.0301C16.38 14.8601 16.34 14.7201 16.28 14.6001C16.22 14.4801 15.72 13.2601 15.52 12.7601C15.32 12.2801 15.11 12.3401 14.96 12.3301H14.48C14.31 12.3301 14.05 12.3901 13.82 12.6401C13.6 12.8901 12.96 13.4901 12.96 14.7101C12.96 15.9301 13.85 17.1101 13.97 17.2701C14.09 17.4401 15.72 19.9401 18.2 21.0101C18.79 21.2701 19.25 21.4201 19.61 21.5301C20.2 21.7201 20.74 21.6901 21.17 21.6301C21.65 21.5601 22.64 21.0301 22.84 20.4501C23.05 19.8701 23.05 19.3801 22.98 19.2701C22.91 19.1601 22.76 19.1101 22.51 18.9901Z" fill="#0F0D0D"/>
</g>
<defs>
<linearGradient id="paint0_linear_326_360" x1="36" y1="2.05357e-05" x2="-1.7777" y2="1.97371" gradientUnits="userSpaceOnUse">
<stop stop-color="#E8C25F"/>
<stop offset="0.505208" stop-color="#F2E191"/>
<stop offset="1" stop-color="#D3A647"/>
</linearGradient>
</defs>
</svg>
