<svg width="20" height="20" viewBox="0 0 20 20" fill="none" xmlns="http://www.w3.org/2000/svg">
<g id="carbon:warning-filled">
<path id="Vector" d="M10 1.25C5.1875 1.25 1.25 5.1875 1.25 10C1.25 14.8125 5.1875 18.75 10 18.75C14.8125 18.75 18.75 14.8125 18.75 10C18.75 5.1875 14.8125 1.25 10 1.25ZM9.3125 5H10.6875V11.875H9.3125V5ZM10 15.625C9.5 15.625 9.0625 15.1875 9.0625 14.6875C9.0625 14.1875 9.5 13.75 10 13.75C10.5 13.75 10.9375 14.1875 10.9375 14.6875C10.9375 15.1875 10.5 15.625 10 15.625Z" fill="url(#paint0_linear_314_1140)"/>
</g>
<defs>
<linearGradient id="paint0_linear_314_1140" x1="18.75" y1="1.25001" x2="0.385841" y2="2.20944" gradientUnits="userSpaceOnUse">
<stop stop-color="#E8C25F"/>
<stop offset="0.505208" stop-color="#F2E191"/>
<stop offset="1" stop-color="#D3A647"/>
</linearGradient>
</defs>
</svg>
