<svg width="61" height="60" viewBox="0 0 61 60" fill="none" xmlns="http://www.w3.org/2000/svg">
<g id="Group 213">
<g id="Group 91">
<circle id="Ellipse 62" cx="30.5" cy="30" r="30" fill="url(#paint0_linear_319_46)"/>
</g>
<path id="Vector" d="M42.1663 16.5171C40.6383 14.9736 38.8183 13.7499 36.8124 12.9172C34.8065 12.0845 32.6549 11.6595 30.483 11.6671C21.383 11.6671 13.9663 19.0838 13.9663 28.1838C13.9663 31.1004 14.733 33.9338 16.1663 36.4338L13.833 45.0004L22.583 42.7004C24.9997 44.0171 27.7163 44.7171 30.483 44.7171C39.583 44.7171 46.9997 37.3004 46.9997 28.2004C46.9997 23.7838 45.283 19.6338 42.1663 16.5171ZM30.483 41.9171C28.0163 41.9171 25.5997 41.2504 23.483 40.0004L22.983 39.7004L17.783 41.0671L19.1663 36.0004L18.833 35.4838C17.4626 33.2954 16.7349 30.7658 16.733 28.1838C16.733 20.6171 22.8997 14.4504 30.4663 14.4504C34.133 14.4504 37.583 15.8838 40.1663 18.4838C41.4455 19.757 42.4592 21.2715 43.1487 22.9395C43.8382 24.6074 44.1897 26.3956 44.183 28.2004C44.2163 35.7671 38.0497 41.9171 30.483 41.9171ZM38.0163 31.6504C37.5997 31.4504 35.5663 30.4504 35.1997 30.3004C34.8163 30.1671 34.5497 30.1004 34.2663 30.5004C33.983 30.9171 33.1997 31.8504 32.9663 32.1171C32.733 32.4004 32.483 32.4338 32.0663 32.2171C31.6497 32.0171 30.3163 31.5671 28.7497 30.1671C27.5163 29.0671 26.6997 27.7171 26.4497 27.3004C26.2163 26.8838 26.4163 26.6671 26.633 26.4504C26.8163 26.2671 27.0497 25.9671 27.2497 25.7338C27.4497 25.5004 27.533 25.3171 27.6663 25.0504C27.7997 24.7671 27.733 24.5338 27.633 24.3338C27.533 24.1338 26.6997 22.1004 26.3663 21.2671C26.033 20.4671 25.683 20.5671 25.433 20.5504H24.633C24.3497 20.5504 23.9163 20.6504 23.533 21.0671C23.1663 21.4838 22.0997 22.4838 22.0997 24.5171C22.0997 26.5504 23.583 28.5171 23.783 28.7838C23.983 29.0671 26.6997 33.2338 30.833 35.0171C31.8163 35.4504 32.583 35.7004 33.183 35.8838C34.1663 36.2004 35.0663 36.1504 35.783 36.0504C36.583 35.9338 38.233 35.0504 38.5663 34.0838C38.9163 33.1171 38.9163 32.3004 38.7997 32.1171C38.683 31.9338 38.433 31.8504 38.0163 31.6504Z" fill="#0F0D0D"/>
</g>
<defs>
<linearGradient id="paint0_linear_319_46" x1="60.5" y1="3.42261e-05" x2="-2.46283" y2="3.28952" gradientUnits="userSpaceOnUse">
<stop stop-color="#E8C25F"/>
<stop offset="0.505208" stop-color="#F2E191"/>
<stop offset="1" stop-color="#D3A647"/>
</linearGradient>
</defs>
</svg>
