<svg width="42" height="42" viewBox="0 0 42 42" fill="none" xmlns="http://www.w3.org/2000/svg">
<path d="M16.4269 23.5817L14.8655 23.2285C13.9817 23.0286 13.1757 23.8282 13.1689 24.7343C13.1654 25.2006 13.1123 25.6734 12.963 26.0539C12.3001 27.7437 11.0635 28.8776 9.26397 28.8309C2.82473 28.664 3.41683 11.2828 9.64336 14.8501C12.6259 16.5589 15.4992 19.3424 17.5979 21.6035C18.4082 22.4765 17.5886 23.8445 16.4269 23.5817Z" stroke="white" stroke-opacity="0.5"/>
<path d="M25.7011 23.5817L27.2626 23.2285C28.1464 23.0286 28.9524 23.8282 28.9591 24.7343C28.9626 25.2006 29.0158 25.6734 29.165 26.0539C29.8279 27.7437 31.0645 28.8776 32.8641 28.8309C39.3033 28.664 38.7112 11.2828 32.4847 14.8501C29.5021 16.5589 26.6288 19.3424 24.5301 21.6035C23.7198 22.4765 24.5394 23.8445 25.7011 23.5817Z" stroke="white" stroke-opacity="0.5"/>
<path d="M14.3055 15.4452C10.4572 -1.38379 -1.77499 19.3017 16.7632 23.4601C17.6105 23.6501 18.3759 22.8531 17.9681 22.0865C17.3208 20.8698 16.4881 20.9212 15.3237 18.6474C14.8125 17.6492 14.5555 16.5384 14.3055 15.4452Z" stroke="white" stroke-opacity="0.5"/>
<path d="M27.8226 15.4452C31.6709 -1.38379 43.903 19.3017 25.3648 23.4601C24.5176 23.6501 23.7522 22.8531 24.16 22.0865C24.8073 20.8698 25.64 20.9212 26.8044 18.6474C27.3155 17.6492 27.5726 16.5384 27.8226 15.4452Z" stroke="white" stroke-opacity="0.5"/>
<path d="M7.33337 28.2153C11.265 36.8087 17.4329 34.2835 18.5442 30.9923C20.1416 26.2611 16.7567 23.0727 18.5442 17.3131C22.4889 4.60214 7.43623 5.89657 11.4474 15.976" stroke="white"/>
<path d="M34.7947 28.2153C30.8631 36.8087 24.6952 34.2835 23.5839 30.9923C21.9864 26.2611 25.3714 23.0727 23.5839 17.3131C19.6391 4.60214 34.6918 5.89657 30.6806 15.976" stroke="white"/>
</svg>
