<svg width="35" height="35" viewBox="0 0 35 35" fill="none" xmlns="http://www.w3.org/2000/svg">
<path d="M31.7188 13.6719C31.7188 10.3906 28.9844 7.65625 25.7031 7.65625C25.4844 7.65625 25.375 7.65625 25.1562 7.65625V7.10938C25.1562 5.03125 23.4062 3.28125 21.3281 3.28125C19.25 3.28125 17.5 5.03125 17.5 7.10938V27.8906C17.5 29.9687 19.25 31.7188 21.3281 31.7188C23.2969 31.7188 24.8281 30.2969 25.1562 28.4375C28.2187 28.2187 30.625 25.5938 30.625 22.4219C30.625 20.8906 30.0781 19.5781 29.2031 18.4844C30.7344 17.5 31.7188 15.6406 31.7188 13.6719Z" stroke="white" stroke-width="2" stroke-miterlimit="10" stroke-linecap="round" stroke-linejoin="round"/>
<path d="M3.28125 13.6719C3.28125 10.3906 6.01562 7.65625 9.29688 7.65625C9.51563 7.65625 9.625 7.65625 9.84375 7.65625V7.10938C9.84375 5.03125 11.5938 3.28125 13.6719 3.28125C15.75 3.28125 17.5 5.03125 17.5 7.10938V27.8906C17.5 29.9687 15.75 31.7188 13.6719 31.7188C11.7031 31.7188 10.1719 30.2969 9.84375 28.4375C6.78125 28.2187 4.375 25.5938 4.375 22.4219C4.375 20.8906 4.92188 19.5781 5.79688 18.4844C4.26563 17.5 3.28125 15.6406 3.28125 13.6719Z" stroke="white" stroke-width="2" stroke-miterlimit="10" stroke-linecap="round" stroke-linejoin="round"/>
<path d="M25.1562 17.5C28.2187 17.5 30.625 19.9063 30.625 22.9688" stroke="white" stroke-width="2" stroke-miterlimit="10" stroke-linecap="round" stroke-linejoin="round"/>
<path d="M9.29688 19.6875C6.01562 19.6875 3.28125 16.9531 3.28125 13.6719" stroke="white" stroke-width="2" stroke-miterlimit="10" stroke-linecap="round" stroke-linejoin="round"/>
<path d="M11.1562 10.0625C10.3906 9.29688 9.84375 8.3125 9.84375 7.10938" stroke="white" stroke-width="2" stroke-miterlimit="10" stroke-linecap="round" stroke-linejoin="round"/>
</svg>
