<svg width="85" height="85" viewBox="0 0 85 85" fill="none" xmlns="http://www.w3.org/2000/svg">
<rect x="42.4263" y="-0.707107" width="61" height="61" rx="24.5" transform="rotate(45 42.4263 -0.707107)" fill="url(#paint0_radial_1678_4687)" fill-opacity="0.1" stroke="url(#paint1_linear_1678_4687)"/>
<path d="M45.5514 48.4776L42.6204 50.5401C42.4941 50.629 42.3433 50.6768 42.1888 50.6768H32.7953C32.063 50.6768 31.7648 49.7349 32.3637 49.3134L35.2946 47.2509C35.421 47.162 35.5717 47.1143 35.7262 47.1143H45.1198C45.8521 47.1143 46.1503 48.0562 45.5514 48.4776Z" fill="white"/>
<path d="M52.3014 44.1651L49.3704 46.2276C49.2441 46.3165 49.0933 46.3643 48.9388 46.3643H39.5453C38.813 46.3643 38.5148 45.4224 39.1137 45.0009L42.0446 42.9384C42.171 42.8495 42.3217 42.8018 42.4762 42.8018H51.8698C52.6021 42.8018 52.9003 43.7437 52.3014 44.1651Z" fill="white"/>
<path d="M52.3014 35.5401L49.3704 37.6026C49.2441 37.6915 49.0933 37.7393 48.9388 37.7393H39.5453C38.813 37.7393 38.5148 36.7974 39.1137 36.3759L42.0446 34.3134C42.171 34.2245 42.3217 34.1768 42.4762 34.1768H51.8698C52.6021 34.1768 52.9003 35.1187 52.3014 35.5401Z" fill="white"/>
<path d="M45.5514 39.8526L42.6204 41.9151C42.4941 42.004 42.3433 42.0518 42.1888 42.0518H32.7953C32.063 42.0518 31.7648 41.1099 32.3637 40.6884L35.2946 38.6259C35.421 38.537 35.5717 38.4893 35.7262 38.4893H45.1198C45.8521 38.4893 46.1503 39.4312 45.5514 39.8526Z" fill="white"/>
<defs>
<radialGradient id="paint0_radial_1678_4687" cx="0" cy="0" r="1" gradientTransform="matrix(0 56.2105 -55.7618 0.258503 72.4263 3.78947)" gradientUnits="userSpaceOnUse">
<stop stop-color="white" stop-opacity="0"/>
<stop offset="1" stop-color="white"/>
</radialGradient>
<linearGradient id="paint1_linear_1678_4687" x1="72.4263" y1="0" x2="72.4263" y2="60" gradientUnits="userSpaceOnUse">
<stop stop-color="white" stop-opacity="0"/>
<stop offset="1" stop-color="white" stop-opacity="0.3"/>
</linearGradient>
</defs>
</svg>
