<svg width="36" height="36" viewBox="0 0 36 36" fill="none" xmlns="http://www.w3.org/2000/svg">
<path d="M21 4.125C23.8602 4.125 25.8923 4.12739 27.4338 4.33464C28.9428 4.53755 29.8123 4.91804 30.4471 5.55285C31.1778 6.28356 31.496 6.84999 31.6721 7.85976C31.8707 8.9979 31.875 10.6214 31.875 13.5C31.875 14.1213 32.3787 14.625 33 14.625C33.6213 14.625 34.125 14.1213 34.125 13.5V13.3555C34.1251 10.6568 34.1251 8.82857 33.8886 7.47299C33.6255 5.96498 33.0648 4.98852 32.0382 3.96186C30.9156 2.83932 29.4923 2.34114 27.7335 2.10471C26.0247 1.87496 23.8413 1.87497 21.0846 1.875H21C20.3787 1.875 19.875 2.37869 19.875 3C19.875 3.62132 20.3787 4.125 21 4.125Z" fill="white" fill-opacity="0.3"/>
<path d="M3.00002 21.375C3.62133 21.375 4.12502 21.8787 4.12502 22.5C4.12502 25.3786 4.12934 27.0021 4.32794 28.1403C4.50413 29.15 4.82216 29.7165 5.55287 30.4471C6.18768 31.0819 7.05714 31.4625 8.56628 31.6653C10.1078 31.8726 12.1398 31.875 15 31.875C15.6213 31.875 16.125 32.3787 16.125 33C16.125 33.6213 15.6213 34.125 15 34.125H14.9154C12.1587 34.125 9.9753 34.125 8.26647 33.8954C6.50784 33.6588 5.08442 33.1607 3.96188 32.0382C2.93522 31.0115 2.37456 30.0349 2.11143 28.527C1.87488 27.1714 1.87493 25.3433 1.875 22.6446L1.87502 22.5C1.87502 21.8787 2.37869 21.375 3.00002 21.375Z" fill="white" fill-opacity="0.3"/>
<path d="M33 21.375C33.6213 21.375 34.125 21.8787 34.125 22.5V22.6445C34.1251 25.3433 34.1251 27.1714 33.8886 28.527C33.6255 30.0349 33.0648 31.0115 32.0382 32.0382C30.9156 33.1607 29.4923 33.6588 27.7335 33.8954C26.0247 34.125 23.8413 34.125 21.0846 34.125H21C20.3787 34.125 19.875 33.6213 19.875 33C19.875 32.3787 20.3787 31.875 21 31.875C23.8602 31.875 25.8923 31.8726 27.4338 31.6653C28.9428 31.4625 29.8123 31.0819 30.4471 30.4471C31.1778 29.7165 31.496 29.15 31.6721 28.1403C31.8707 27.0021 31.875 25.3786 31.875 22.5C31.875 21.8787 32.3787 21.375 33 21.375Z" fill="white" fill-opacity="0.3"/>
<path d="M14.9154 1.875H15C15.6213 1.875 16.125 2.37869 16.125 3C16.125 3.62132 15.6213 4.125 15 4.125C12.1398 4.125 10.1078 4.12739 8.56628 4.33464C7.05714 4.53755 6.18768 4.91804 5.55287 5.55285C4.82216 6.28356 4.50413 6.84999 4.32794 7.85976C4.12934 8.9979 4.12502 10.6214 4.12502 13.5C4.12502 14.1213 3.62133 14.625 3.00002 14.625C2.37869 14.625 1.87502 14.1213 1.87502 13.5L1.875 13.3555C1.87493 10.6568 1.87488 8.82855 2.11143 7.47299C2.37456 5.96498 2.93522 4.98852 3.96188 3.96186C5.08442 2.83932 6.50784 2.34114 8.26647 2.10471C9.97529 1.87496 12.1588 1.87497 14.9154 1.875Z" fill="white" fill-opacity="0.3"/>
<path d="M20.5 13C22.4331 13 24 14.5669 24 16.5C24 18.4331 22.4331 20 20.5 20C18.5669 20 17 18.4331 17 16.5C17 16.0703 17.0771 15.6586 17.2188 15.2783C17.482 15.7107 17.9568 16 18.5 16C19.3285 16 20 15.3285 20 14.5C20 13.9568 19.7107 13.482 19.2783 13.2188C19.6586 13.0771 20.0703 13 20.5 13Z" fill="white"/>
<circle cx="18" cy="18" r="7" stroke="white" stroke-width="2"/>
</svg>
