<svg width="42" height="42" viewBox="0 0 42 42" fill="none" xmlns="http://www.w3.org/2000/svg">
<path d="M37.5 33C37.5 32.7239 37.7239 32.5 38 32.5C38.2761 32.5 38.5 32.7239 38.5 33C38.5 35.4853 36.4853 37.5 34 37.5C33.7239 37.5 33.5 37.2761 33.5 37C33.5 36.7239 33.7239 36.5 34 36.5C35.933 36.5 37.5 34.933 37.5 33Z" fill="white" fill-opacity="0.3"/>
<path d="M4.5 33C4.5 32.7239 4.27614 32.5 4 32.5C3.72386 32.5 3.5 32.7239 3.5 33C3.5 35.4853 5.51472 37.5 8 37.5C8.27614 37.5 8.5 37.2761 8.5 37C8.5 36.7239 8.27614 36.5 8 36.5C6.067 36.5 4.5 34.933 4.5 33Z" fill="white" fill-opacity="0.3"/>
<path d="M37.5 9C37.5 9.27614 37.7239 9.5 38 9.5C38.2761 9.5 38.5 9.27614 38.5 9C38.5 6.51472 36.4853 4.5 34 4.5C33.7239 4.5 33.5 4.72386 33.5 5C33.5 5.27614 33.7239 5.5 34 5.5C35.933 5.5 37.5 7.067 37.5 9Z" fill="white" fill-opacity="0.3"/>
<path d="M4.5 9C4.5 9.27614 4.27614 9.5 4 9.5C3.72386 9.5 3.5 9.27614 3.5 9C3.5 6.51472 5.51472 4.5 8 4.5C8.27614 4.5 8.5 4.72386 8.5 5C8.5 5.27614 8.27614 5.5 8 5.5C6.067 5.5 4.5 7.067 4.5 9Z" fill="white" fill-opacity="0.3"/>
<path d="M20.7969 13.501C22.9055 13.4767 25.169 14.2517 27.2373 15.2755C29.3138 16.3033 31.2404 17.6052 32.6885 18.6856C34.3954 19.9592 34.3733 22.4299 32.6338 23.6641C31.1962 24.6841 29.2931 25.9007 27.2314 26.8575C25.1766 27.8111 22.924 28.525 20.7969 28.4991C18.7258 28.4738 16.5428 27.749 14.5527 26.8008C12.5562 25.8496 10.7155 24.655 9.3203 23.6524C7.60255 22.4177 7.57829 19.9706 9.26268 18.6954C10.6686 17.631 12.534 16.3506 14.5459 15.3282C16.5498 14.3098 18.7439 13.5248 20.7969 13.501ZM20.8086 14.501C18.9799 14.5221 16.9473 15.2287 14.999 16.2188C13.0587 17.2049 11.2455 18.449 9.8662 19.4932C8.71633 20.3639 8.73534 22.0009 9.90428 22.8409C11.271 23.823 13.0582 24.9807 14.9824 25.8975C16.913 26.8174 18.9443 27.4762 20.8086 27.4991C22.7215 27.5225 24.8167 26.8756 26.8105 25.9503C28.7979 25.0279 30.646 23.8472 32.0547 22.8477C33.2381 22.0081 33.2563 20.357 32.0908 19.4874C30.67 18.4273 28.7967 17.1633 26.7939 16.1719C24.7826 15.1764 22.6865 14.4794 20.8086 14.501Z" fill="white"/>
<path d="M27.5 21C27.5 17.4101 24.5899 14.5 21 14.5C17.4101 14.5 14.5 17.4101 14.5 21C14.5 24.5899 17.4101 27.5 21 27.5C24.5899 27.5 27.5 24.5899 27.5 21ZM28.5 21C28.5 25.1421 25.1421 28.5 21 28.5C16.8579 28.5 13.5 25.1421 13.5 21C13.5 16.8579 16.8579 13.5 21 13.5C25.1421 13.5 28.5 16.8579 28.5 21Z" fill="white"/>
</svg>
