<svg width="18" height="18" viewBox="0 0 18 18" fill="none" xmlns="http://www.w3.org/2000/svg">
<g clip-path="url(#clip0_1362_8782)">
<path d="M10 7.27778H13L12.6667 8.5H10V14H8.66667V8.5H6V7.27778H8.66667V6.13378C8.66667 5.04417 8.79067 4.64878 9.02267 4.25033C9.25001 3.85666 9.6012 3.53473 10.0307 3.32633C10.4653 3.11367 10.8967 3 12.0853 3C12.4333 3 12.7387 3.03056 13 3.09167V4.22222H12.0853C11.2027 4.22222 10.934 4.26989 10.66 4.40433C10.4573 4.50333 10.3067 4.64144 10.1987 4.82722C10.052 5.07839 10 5.32467 10 6.13378V7.27778Z" fill="white"/>
</g>
<defs>
<clipPath id="clip0_1362_8782">
<rect width="18" height="18" fill="white"/>
</clipPath>
</defs>
</svg>
