<svg width="44" height="44" viewBox="0 0 44 44" fill="none" xmlns="http://www.w3.org/2000/svg">
<path d="M17.1112 35.5066C15.0474 34.4539 13.3427 32.8136 12.2223 30.6177" stroke="white" stroke-opacity="0.3" stroke-width="1.83333" stroke-linecap="round"/>
<path d="M15.8026 29.2625C18.2843 32.8291 23.5492 33.9042 28.0975 31.6189L28.5448 32.3923C23.6385 34.8711 17.7912 33.7657 15.0175 29.7156L15.8026 29.2625ZM33.954 19.0027C36.1574 23.3828 34.2097 28.9021 29.5536 31.823L29.1063 31.0486C33.3928 28.3352 35.073 23.3412 33.1678 19.4558L33.954 19.0027ZM15.1923 28.2761L14.41 28.7283L9.77625 20.8699L10.5585 20.4177L15.1923 28.2761ZM26.1874 20.1306L26.4784 20.6248L26.787 20.446C25.4036 21.7223 24.9057 23.5581 25.4911 25.0798L24.6991 25.5369C23.8886 23.6483 24.4838 21.4349 26.0555 19.907L26.1874 20.1306ZM16.8387 20.7859L16.0565 21.2371L14.3241 18.2986L15.1063 17.8474L16.8387 20.7859ZM10.7401 17.6218C10.2093 18.1141 9.98278 18.7725 10.0712 19.3611L9.24597 19.8367C8.91948 18.7738 9.35443 17.5906 10.2841 16.8328L10.7401 17.6218ZM33.3837 17.9939L32.6014 18.4451L29.7089 13.5388L30.4911 13.0876L33.3837 17.9939ZM27.1571 17.7166L26.7811 17.9294C26.6437 18.0071 26.51 18.09 26.3788 18.1755L25.161 16.1091L25.9432 15.658L27.1571 17.7166ZM20.8075 17.2312L20.0243 17.6824L17.1317 12.7751L17.9139 12.324L20.8075 17.2312ZM13.0448 16.1287C13.5835 16.238 14.0782 16.4913 14.4579 16.8835L13.7352 17.3005L13.0448 16.1287ZM12.1913 16.9626C12.0449 16.9769 11.8966 17.0055 11.7479 17.0496L11.2928 16.2634C11.4304 16.2142 11.5705 16.177 11.7108 16.1462L12.1913 16.9626ZM25.3544 14.6599L24.6307 15.0779C24.4706 14.5575 24.4931 14.0081 24.6669 13.4939L25.3544 14.6599ZM13.4462 15.03C13.0821 14.9423 12.7052 14.9049 12.328 14.9138L11.4227 13.3777L12.2059 12.9265L13.4462 15.03ZM23.9608 12.2966C23.766 12.6142 23.6128 12.9549 23.5096 13.3093L21.6796 10.2039L22.4618 9.75366L23.9608 12.2966ZM26.1239 12.8621C26.0135 12.9645 25.9169 13.0744 25.8329 13.1892L25.3505 12.3718C25.4493 12.2669 25.5546 12.1661 25.6688 12.073L26.1239 12.8621ZM26.6776 11.5037C27.8081 11.0997 29.0662 11.3215 29.8427 12.1238L29.0233 12.5964C28.5449 12.2194 27.8412 12.0799 27.1327 12.2898L26.6776 11.5037ZM12.3866 10.1306C11.8559 10.6229 11.6301 11.2813 11.7186 11.8699L10.8925 12.3455C10.5659 11.2826 11.0011 10.0994 11.9305 9.34155L12.3866 10.1306ZM17.3251 11.3259L16.6014 11.7439C16.4731 11.3269 16.4636 10.8917 16.5536 10.4705L16.7538 10.3552L17.3251 11.3259ZM12.9403 8.77222C13.9441 8.41359 15.0466 8.55073 15.8251 9.14722C15.7273 9.32573 15.6416 9.5102 15.5712 9.69995L15.286 9.86499C14.8075 9.48769 14.1032 9.3482 13.3944 9.55835L12.9403 8.77222ZM18.0946 9.52808C17.9842 9.63052 17.8876 9.74045 17.8036 9.85522L17.4608 9.27319L17.4569 9.26636L17.3212 9.03687C17.4198 8.9321 17.5255 8.83197 17.6395 8.73901L18.0946 9.52808ZM18.6483 8.16968C19.7787 7.76569 21.0368 7.98745 21.8134 8.78979L20.994 9.26245C20.5157 8.88539 19.8119 8.74594 19.1034 8.95581L18.6483 8.16968Z" fill="#1C274C" stroke="white" stroke-width="1.15856"/>
</svg>
