<svg width="105" height="97" viewBox="0 0 105 97" fill="none" xmlns="http://www.w3.org/2000/svg">
<path d="M39.0654 58.0186C39.0132 58.0059 38.9489 57.9961 38.877 57.9961C38.4364 57.9963 38.2388 58.3459 38.2178 58.3818C38.1631 58.4756 38.1343 58.5666 38.1201 58.6162C38.0886 58.7266 38.0679 58.8551 38.0518 58.9756C38.0181 59.2268 37.9904 59.5712 37.9688 59.9736C37.9251 60.7845 37.9014 61.8934 37.9014 63.1064V66.9736L34.0723 68.791V68.792C31.6847 69.8719 26.6776 72.0263 22.8398 73.5439L22.835 73.5459C14.6741 76.8454 10.6485 79.2673 8.07715 82.6357L8.07422 82.6387C4.71102 87.0902 2.09004 94.0534 1.10059 100.979L1.09961 100.979C0.96694 101.866 0.875792 102.699 1.06055 103.447C1.26079 104.258 1.75596 104.88 2.57422 105.419C3.36279 105.938 4.4939 106.41 6.04492 106.935C7.6069 107.463 9.65542 108.063 12.3135 108.825L13.9131 109.281C30.1688 113.876 38.0894 114.796 56.2236 114.413C64.3327 114.241 69.5979 113.97 74.9648 113.119C80.3291 112.269 85.7741 110.842 94.2461 108.382H94.2451C96.5498 107.739 98.5803 107.096 100.09 106.547C100.844 106.273 101.478 106.019 101.956 105.798C102.194 105.688 102.405 105.58 102.577 105.477C102.69 105.409 102.829 105.319 102.949 105.205L103.062 105.084L103.077 105.062C103.439 104.57 103.638 103.929 103.738 103.241C103.84 102.544 103.849 101.739 103.785 100.868C103.658 99.1259 103.236 97.0413 102.604 94.873C101.344 90.5451 99.2118 85.7574 96.7734 82.54L96.7705 82.5361C94.127 79.0971 91.4417 77.4433 82.4033 73.6084L80.5088 72.8115C73.1194 69.719 69.7522 68.3457 68.2031 67.4375C67.4356 66.9875 67.2839 66.7428 67.2324 66.6016C67.202 66.518 67.1835 66.4078 67.1807 66.209C67.1792 66.1091 67.1813 65.9998 67.1846 65.8652C67.1877 65.7344 67.1924 65.583 67.1924 65.4189C67.1924 64.2003 67.0427 62.2026 66.8945 60.9082L66.8926 60.8955L66.8916 60.8838L66.5498 58.5713L66.3398 57.1514L66.1768 57.3105C66.5702 56.5851 66.9275 55.8762 67.1699 55.3037L67.4082 54.8223C68.0194 53.6309 68.9883 51.9995 69.7275 51.0049L70.0527 50.5586C71.6502 48.2789 72.7987 45.2686 73.3174 42.5957C73.5945 41.1679 73.6999 39.7963 73.5801 38.6543C73.4648 37.5558 73.1197 36.4875 72.3125 35.9033L72.3135 35.9023C72.1632 35.7912 71.9859 35.6254 71.8301 34.7676C71.6694 33.8828 71.5611 32.4323 71.4385 29.9121C71.3645 28.2004 71.2289 26.4855 71.0557 25.0449C70.8858 23.6324 70.6703 22.4095 70.417 21.7266C68.5318 16.592 64.793 13.0777 59.6396 11.5352H59.6387C57.7968 10.9862 54.8143 10.7539 51.9326 10.791C49.0568 10.8281 46.1268 11.1364 44.3975 11.7432V11.7422C40.7263 13.0179 38.0131 15.0329 36.1709 18.0684C34.3425 21.0811 33.413 25.032 33.166 30.1094V30.1123C33.0683 32.3282 32.9599 33.7496 32.8037 34.6709C32.641 35.6306 32.4528 35.8518 32.375 35.9121L32.3643 35.9209L32.3525 35.9307C31.888 36.321 31.6351 36.856 31.5 37.5654C31.3688 38.2543 31.3348 39.1809 31.3594 40.4414C31.3616 42.3629 31.8109 44.4737 32.5283 46.3955C33.2463 48.3185 34.2541 50.108 35.4121 51.3545C35.9696 51.9608 37.0025 53.647 37.6191 55.0811L37.623 55.0908L37.627 55.0996C38.0148 55.9372 38.5432 57.0136 39.0654 58.0186Z" stroke="url(#paint0_linear_1661_4600)" stroke-opacity="0.5" stroke-width="1.46455"/>
<path d="M89.2461 17.4277C89.2461 9.5983 72.241 3.25128 51.2641 3.25128C30.2872 3.25128 13.2821 9.5983 13.2821 17.4277" stroke="url(#paint1_linear_1661_4600)" stroke-width="5.62696"/>
<path d="M83.6197 27.3516C83.6197 21.088 69.1339 16.0104 51.2647 16.0104C33.3955 16.0104 18.9097 21.088 18.9097 27.3516" stroke="url(#paint2_linear_1661_4600)" stroke-opacity="0.5" stroke-width="4.22022"/>
<path d="M77.9931 37.7012C77.9931 32.2206 66.0265 27.7777 51.265 27.7777C36.5035 27.7777 24.537 32.2206 24.537 37.7012" stroke="url(#paint3_linear_1661_4600)" stroke-opacity="0.1" stroke-width="2.81348"/>
<defs>
<linearGradient id="paint0_linear_1661_4600" x1="52.391" y1="79.3292" x2="52.391" y2="11.5199" gradientUnits="userSpaceOnUse">
<stop stop-color="white" stop-opacity="0"/>
<stop offset="1" stop-color="white"/>
</linearGradient>
<linearGradient id="paint1_linear_1661_4600" x1="89.2461" y1="10.3395" x2="13.2821" y2="10.3395" gradientUnits="userSpaceOnUse">
<stop stop-color="#00C2FF" stop-opacity="0"/>
<stop offset="0.5" stop-color="#00C2FF"/>
<stop offset="1" stop-color="#00C2FF" stop-opacity="0"/>
</linearGradient>
<linearGradient id="paint2_linear_1661_4600" x1="83.6197" y1="21.681" x2="18.9097" y2="21.681" gradientUnits="userSpaceOnUse">
<stop stop-color="#00C2FF" stop-opacity="0"/>
<stop offset="0.5" stop-color="#00C2FF"/>
<stop offset="1" stop-color="#00C2FF" stop-opacity="0"/>
</linearGradient>
<linearGradient id="paint3_linear_1661_4600" x1="77.9931" y1="32.7394" x2="24.537" y2="32.7394" gradientUnits="userSpaceOnUse">
<stop stop-color="#00C2FF" stop-opacity="0"/>
<stop offset="0.5" stop-color="#00C2FF"/>
<stop offset="1" stop-color="#00C2FF" stop-opacity="0"/>
</linearGradient>
</defs>
</svg>
