<svg width="62" height="12" viewBox="0 0 62 12" fill="none" xmlns="http://www.w3.org/2000/svg">
<g opacity="0.3" clip-path="url(#clip0_2371_1147)">
<ellipse cx="0.10676" cy="6.0001" rx="0.595041" ry="3.42149" fill="white"/>
<ellipse cx="2.29817" cy="6.0001" rx="0.595041" ry="3.42149" fill="white"/>
<ellipse cx="4.58484" cy="5.99991" rx="0.694215" ry="4.90909" fill="white" fill-opacity="0.3"/>
<ellipse cx="7.2234" cy="6" rx="0.942149" ry="6" fill="white"/>
<ellipse cx="9.85828" cy="5.99991" rx="0.694215" ry="4.90909" fill="white" fill-opacity="0.3"/>
<ellipse cx="12.1497" cy="6.0001" rx="0.595041" ry="3.42149" fill="white"/>
<ellipse cx="14.4364" cy="5.99991" rx="0.694215" ry="4.90909" fill="white" fill-opacity="0.3"/>
<ellipse cx="17.075" cy="6" rx="0.942149" ry="6" fill="white"/>
<ellipse cx="19.7098" cy="5.99991" rx="0.694215" ry="4.90909" fill="white" fill-opacity="0.3"/>
<ellipse cx="22.0013" cy="6.0001" rx="0.595041" ry="3.42149" fill="white"/>
<ellipse cx="24.288" cy="5.99991" rx="0.694215" ry="4.90909" fill="white" fill-opacity="0.3"/>
<ellipse cx="26.9265" cy="6" rx="0.942149" ry="6" fill="white"/>
<ellipse cx="29.5614" cy="5.99991" rx="0.694215" ry="4.90909" fill="white" fill-opacity="0.3"/>
<ellipse cx="31.8529" cy="6.0001" rx="0.595041" ry="3.42149" fill="white"/>
<ellipse cx="34.1395" cy="5.99991" rx="0.694215" ry="4.90909" fill="white" fill-opacity="0.3"/>
<ellipse cx="36.7781" cy="6" rx="0.942149" ry="6" fill="white"/>
<ellipse cx="39.413" cy="5.99991" rx="0.694215" ry="4.90909" fill="white" fill-opacity="0.3"/>
<ellipse cx="41.7044" cy="6.0001" rx="0.595041" ry="3.42149" fill="white"/>
<ellipse cx="43.9911" cy="5.99991" rx="0.694215" ry="4.90909" fill="white" fill-opacity="0.3"/>
<ellipse cx="46.6297" cy="6" rx="0.942149" ry="6" fill="white"/>
<ellipse cx="49.2645" cy="5.99991" rx="0.694215" ry="4.90909" fill="white" fill-opacity="0.3"/>
<ellipse cx="51.556" cy="6.0001" rx="0.595041" ry="3.42149" fill="white"/>
<ellipse cx="53.8427" cy="5.99991" rx="0.694215" ry="4.90909" fill="white" fill-opacity="0.3"/>
<ellipse cx="56.4812" cy="6" rx="0.942149" ry="6" fill="white"/>
<ellipse cx="59.1161" cy="5.99991" rx="0.694215" ry="4.90909" fill="white" fill-opacity="0.3"/>
<ellipse cx="61.4075" cy="6.0001" rx="0.595041" ry="3.42149" fill="white"/>
</g>
<defs>
<clipPath id="clip0_2371_1147">
<rect width="62" height="12" fill="white"/>
</clipPath>
</defs>
</svg>
