<svg width="110" height="73" viewBox="0 0 110 73" fill="none" xmlns="http://www.w3.org/2000/svg">
<g clip-path="url(#clip0_3042_2286)">
<path d="M15.9482 97.5405C29.166 101.173 36.0956 101.904 51.3262 101.585C58.3635 101.437 62.9334 101.204 67.5918 100.471C72.2465 99.7394 76.9708 98.5117 84.3193 96.395L85.7725 95.981C87.1751 95.569 88.4136 95.1686 89.3975 94.814C90.052 94.578 90.6032 94.3592 91.0186 94.1685C91.2255 94.0734 91.4088 93.9801 91.5586 93.8911C91.656 93.8332 91.7786 93.7553 91.8848 93.6558L91.9834 93.5483L91.9912 93.5396L91.998 93.5298C92.3155 93.1019 92.4898 92.5454 92.5771 91.9507C92.6657 91.3479 92.6733 90.6527 92.6182 89.9019C92.5078 88.3997 92.1402 86.6042 91.5918 84.7368C90.4972 81.0095 88.6466 76.885 86.5283 74.1128L86.5254 74.1089C84.0748 70.9469 81.5815 69.5375 72.4062 65.7339C65.9925 63.0716 63.0717 61.8899 61.7285 61.1089C61.0632 60.722 60.9373 60.5143 60.8955 60.4009C60.8706 60.3331 60.854 60.2415 60.8516 60.0718C60.8503 59.9865 60.8526 59.8927 60.8555 59.7769C60.8582 59.6643 60.8613 59.5337 60.8613 59.3921C60.8613 58.3418 60.7322 56.621 60.6035 55.5063L60.6016 55.4956L60.6006 55.4849L60.3037 53.4946L60.1162 52.2368L60.04 52.311C60.3567 51.7265 60.642 51.16 60.8398 50.6968L61.0469 50.2837C61.5779 49.2572 62.4204 47.8501 63.0615 46.9956H63.0605C64.5945 44.9934 65.6964 42.2076 66.1768 39.7524C66.4175 38.5219 66.5096 37.3386 66.4053 36.3521C66.3046 35.4002 66.0029 34.4672 65.29 33.9604C65.1668 33.8689 65.0185 33.7243 64.8867 33.0044C64.7477 32.2449 64.6533 30.9982 64.5469 28.8286C64.4827 27.3549 64.3643 25.8788 64.2139 24.6382C64.0662 23.4204 63.8798 22.3626 63.6582 21.772C62.0702 17.4844 58.9707 14.5102 54.71 13.1206L54.2939 12.9907C52.6937 12.5176 50.1037 12.3181 47.6025 12.3501C45.1057 12.382 42.5593 12.646 41.0566 13.1694V13.1704C37.8699 14.2693 35.5116 16.0052 33.9102 18.6226C32.3206 21.2206 31.5142 24.626 31.2998 28.9985V29.0015C31.215 30.9091 31.1206 32.1313 30.9854 32.9224C30.8447 33.7449 30.6832 33.9278 30.6221 33.9751L30.6113 33.9829L30.6016 33.9917C30.1937 34.3316 29.9726 34.7977 29.8545 35.4126C29.7401 36.0085 29.7102 36.808 29.7314 37.8931C29.7334 39.5511 30.1245 41.3714 30.748 43.0278C31.3719 44.6852 32.2476 46.2287 33.2549 47.3042C33.7365 47.8241 34.6317 49.2729 35.166 50.5054L35.1689 50.5132L35.1729 50.521C35.5045 51.2313 35.9576 52.1395 36.4043 52.9937C36.3655 52.9863 36.321 52.98 36.2725 52.98C35.8832 52.9801 35.7067 53.2866 35.6865 53.3208C35.6374 53.4043 35.6121 53.4863 35.5996 53.5298C35.5718 53.6266 35.5531 53.7384 35.5391 53.8423C35.5097 54.0596 35.4866 54.357 35.4678 54.7036C35.4298 55.4022 35.4082 56.3574 35.4082 57.4019V60.7144L32.0967 62.2739V62.2749C30.0244 63.2045 25.6802 65.0578 22.3506 66.3638L22.3457 66.3657C15.2638 69.2057 11.7663 71.2916 9.53125 74.1958L9.5293 74.1978C6.60727 78.0338 4.33049 84.0335 3.47168 89.9995L3.47266 90.0005C3.35799 90.762 3.27696 91.483 3.43848 92.1313C3.61431 92.8367 4.04941 93.3759 4.76172 93.8413C5.4478 94.2895 6.43066 94.6955 7.77637 95.147C9.13216 95.6018 10.9103 96.1192 13.2168 96.7749L15.9482 97.5405Z" stroke="url(#paint0_linear_3042_2286)" stroke-opacity="0.5" stroke-width="1.30543"/>
<path d="M80.55 16.5347C80.55 9.55588 65.3924 3.89846 46.6947 3.89846C27.9969 3.89846 12.8394 9.55588 12.8394 16.5347" stroke="url(#paint1_linear_3042_2286)" stroke-width="5.0156"/>
<path d="M75.5349 25.3794C75.5349 19.7964 62.6229 15.2704 46.6952 15.2704C30.7675 15.2704 17.8555 19.7964 17.8555 25.3794" stroke="url(#paint2_linear_3042_2286)" stroke-opacity="0.5" stroke-width="3.7617"/>
<path d="M70.5193 34.6055C70.5193 29.7203 59.8529 25.7601 46.6952 25.7601C33.5375 25.7601 22.8711 29.7203 22.8711 34.6055" stroke="url(#paint3_linear_3042_2286)" stroke-opacity="0.1" stroke-width="2.5078"/>
</g>
<defs>
<linearGradient id="paint0_linear_3042_2286" x1="48" y1="71.3649" x2="48" y2="12.9995" gradientUnits="userSpaceOnUse">
<stop stop-color="#234772" stop-opacity="0"/>
<stop offset="1" stop-color="#234772"/>
</linearGradient>
<linearGradient id="paint1_linear_3042_2286" x1="80.55" y1="10.2166" x2="12.8394" y2="10.2166" gradientUnits="userSpaceOnUse">
<stop stop-color="#00C2FF" stop-opacity="0"/>
<stop offset="0.5" stop-color="#00C2FF"/>
<stop offset="1" stop-color="#00C2FF" stop-opacity="0"/>
</linearGradient>
<linearGradient id="paint2_linear_3042_2286" x1="75.5349" y1="20.3249" x2="17.8555" y2="20.3249" gradientUnits="userSpaceOnUse">
<stop stop-color="#00C2FF" stop-opacity="0"/>
<stop offset="0.5" stop-color="#00C2FF"/>
<stop offset="1" stop-color="#00C2FF" stop-opacity="0"/>
</linearGradient>
<linearGradient id="paint3_linear_3042_2286" x1="70.5193" y1="30.1828" x2="22.8711" y2="30.1828" gradientUnits="userSpaceOnUse">
<stop stop-color="#00C2FF" stop-opacity="0"/>
<stop offset="0.5" stop-color="#00C2FF"/>
<stop offset="1" stop-color="#00C2FF" stop-opacity="0"/>
</linearGradient>
<clipPath id="clip0_3042_2286">
<rect width="110" height="73" fill="white"/>
</clipPath>
</defs>
</svg>
