<svg width="110" height="73" viewBox="0 0 110 73" fill="none" xmlns="http://www.w3.org/2000/svg">
<path d="M17.5552 32.834C20.0405 32.834 22.0552 34.8487 22.0552 37.334C22.0552 38.987 21.164 40.4313 19.8358 41.2133C18.9091 41.759 18.0796 42.6706 18.1697 43.7422C18.2502 44.6996 19.0748 45.4083 19.8454 45.9821C20.5796 46.5289 21.0552 47.4037 21.0552 48.3896C21.0551 50.0464 19.712 51.3896 18.0552 51.3896C16.3985 51.3896 15.0553 50.0464 15.0552 48.3896C15.0552 47.695 15.2915 47.0561 15.688 46.5481C16.3655 45.6802 17.1671 44.7141 17.0746 43.617C16.9844 42.547 16.1206 41.7325 15.2053 41.1711C14.344 40.6428 13.6744 39.8329 13.3245 38.8695C13.0281 38.0532 12.4305 37.2981 11.573 37.1607C10.9156 37.0553 10.2768 37.3755 9.69288 37.6954C9.3386 37.8894 8.93226 38 8.49951 38C7.11894 37.9998 5.99951 36.8806 5.99951 35.5C5.99951 34.1194 7.11894 33.0002 8.49951 33C9.4493 33 10.2738 33.5297 10.696 34.3098C11.0212 34.9105 11.4849 35.517 12.1593 35.6253C12.8323 35.7333 13.4684 35.3297 13.8573 34.7699C14.6698 33.6 16.0229 32.834 17.5552 32.834Z" fill="url(#paint0_linear_3042_2295)"/>
<path d="M9.38867 11.5552C10.5255 11.5552 11.539 12.0805 12.2006 12.9016C12.8254 13.6771 13.5049 14.5042 14.4669 14.7618C15.8278 15.1264 17.2054 14.2875 18.2831 13.38C19.0998 12.6922 20.1544 12.2778 21.3057 12.2778C23.8983 12.2779 26 14.3795 26 16.9722C26 17.7368 25.8166 18.4581 25.4919 19.0957C25.2263 19.6172 25.1843 20.2529 25.5178 20.7338C25.8918 21.2732 26.6031 21.4407 27.2303 21.2472C27.8687 21.0503 28.5469 20.9439 29.25 20.9438C33.0392 20.9438 36.1112 24.016 36.1113 27.8052C36.1113 30.9056 34.0548 33.5255 31.2314 34.3757C30.347 34.642 29.6113 35.3811 29.6113 36.3048V36.6059C29.6113 37.2205 30.058 37.7345 30.5589 38.0905C31.1934 38.5415 32.0484 38.8389 32.7226 38.4498L34.9853 37.1437C35.9044 36.6131 36.1115 35.3664 36.1113 34.3052C36.1113 32.5103 37.5664 31.0552 39.3613 31.0552C41.1562 31.0553 42.6113 32.5103 42.6113 34.3052C42.6111 36.0998 41.156 37.5551 39.3613 37.5552C38.4842 37.5552 37.5544 37.5188 36.7947 37.9573L34.7659 39.1281C32.8549 40.2309 31.6534 42.8067 29.4961 43.2694C29.3003 43.3114 29.0971 43.3335 28.8887 43.3335C27.2933 43.3334 26 42.0393 26 40.4438C26.0001 39.9184 26.1406 39.426 26.3861 39.0019C26.8553 38.1912 27.4443 37.3671 27.4443 36.4304C27.4443 35.2461 26.6169 34.2509 25.6132 33.6224C23.6767 32.4099 22.3887 30.2584 22.3887 27.8052C22.3887 26.5871 22.7063 25.4431 23.263 24.4515C23.6175 23.8201 23.6691 23.0318 23.2565 22.4367C22.862 21.8676 22.1476 21.6419 21.4554 21.6641C21.4057 21.6657 21.3558 21.6665 21.3057 21.6665C19.3806 21.6665 17.7263 20.5079 17.0019 18.8499C16.602 17.9347 15.9655 17.0541 15.0008 16.7955C13.7981 16.4731 12.5792 17.2641 11.5938 18.0254C10.9839 18.4965 10.2191 18.7769 9.38867 18.7769C9.17079 18.7768 8.95746 18.7575 8.75027 18.7205C7.92273 18.5725 6.98372 18.6509 6.43142 19.2847C5.65315 20.1777 6.0736 21.6622 6.69184 22.6727C6.72015 22.7189 6.74744 22.7659 6.77368 22.8135C7.16589 23.5248 7.7556 24.1944 8.56036 24.3043L8.81831 24.3396C9.75996 24.4683 10.6365 23.8965 11.3539 23.2731C11.9881 22.7219 12.8166 22.3882 13.7227 22.3882C15.7168 22.3884 17.333 24.0053 17.333 25.9995C17.3329 27.9936 15.7167 29.6106 13.7227 29.6108C12.8302 29.6108 12.0133 29.2869 11.3832 28.7502C10.4848 27.9851 9.57281 27.0804 8.40363 26.9204C7.25669 26.7636 6.15554 27.3658 5.10172 27.8449C4.6475 28.0514 4.14295 28.1665 3.61133 28.1665C1.61697 28.1665 0 26.5495 0 24.5552C5.66689e-05 23.3181 0.622217 22.2263 1.5707 21.5756C2.44155 20.9781 3.46242 20.5454 4.15639 19.7494L4.98666 18.797C5.81624 17.8454 5.77734 16.428 5.77734 15.1655C5.77758 13.1714 7.39456 11.5553 9.38867 11.5552Z" fill="url(#paint1_linear_3042_2295)"/>
<path d="M28.1665 0.0556641C29.9152 0.0556641 31.4533 0.953477 32.3464 2.31324C33.0127 3.32759 33.9269 4.29736 35.1337 4.42529C36.292 4.54809 37.353 3.84419 38.2365 3.08507C39.0237 2.40876 40.0472 2.00002 41.1665 2C43.6518 2 45.6665 4.01472 45.6665 6.5C45.6664 8.98523 43.6517 11 41.1665 11C39.4995 11 38.0444 10.0934 37.2669 8.74647C36.718 7.79562 35.9099 6.88498 34.8181 6.76925C33.7204 6.65289 32.7323 7.3726 32.0321 8.2259C31.1154 9.34294 29.7244 10.0557 28.1665 10.0557C26.8242 10.0556 25.6057 9.52646 24.7078 8.66544C23.7368 7.73432 22.4363 6.93102 21.1309 7.25601C20.1185 7.50804 19.4292 8.43405 18.7171 9.19642C18.1912 9.75943 17.4428 10.1113 16.6108 10.1113C15.0155 10.1112 13.7222 8.81805 13.7222 7.22266C13.7222 5.62723 15.0154 4.33408 16.6108 4.33398C16.9568 4.33398 17.2885 4.39479 17.5958 4.50628C18.7601 4.92861 19.994 5.64264 21.1959 5.34377C22.3665 5.05268 23.1361 3.9775 23.659 2.89046C24.4658 1.21329 26.1808 0.0557167 28.1665 0.0556641Z" fill="url(#paint2_linear_3042_2295)"/>
<path d="M51.2783 11.2227C52.6588 11.2229 53.7783 12.3421 53.7783 13.7227C53.7783 13.934 53.7519 14.1391 53.7023 14.335C53.5004 15.1323 53.2602 16.0099 53.6138 16.7525L53.7102 16.9549C54.1473 17.8728 55.3163 18.1671 56.333 18.167C58.266 18.167 59.833 19.734 59.833 21.667C59.8329 23.5999 58.2659 25.167 56.333 25.167C55.2437 25.1669 54.0636 25.109 53.1601 25.7177L51.1721 27.0569C50.8151 27.2974 50.667 27.7355 50.667 28.166C50.6669 29.8227 49.3237 31.1659 47.667 31.166C46.0102 31.166 44.6671 29.8228 44.667 28.166C44.667 28.0911 44.6698 28.0168 44.6752 27.9432C44.7486 26.9524 44.8355 25.849 44.2314 25.0602L44.0769 24.8585C43.5779 24.2069 42.7094 24 41.8887 24C39.6797 23.9998 37.8887 22.209 37.8887 20C37.8887 19.7651 37.909 19.5348 37.9479 19.311C38.0445 18.7552 37.8863 18.1502 37.4154 17.8395C36.9218 17.514 36.2651 17.6578 35.7128 17.869C35.4914 17.9536 35.2512 18 35 18C33.8955 17.9999 33 17.1045 33 16C33 14.8955 33.8955 14.0001 35 14C36.1046 14 37 14.8954 37 16C37 16.3265 37.1087 16.6631 37.3812 16.843L37.6627 17.0288C38.2066 17.3879 38.9286 17.2335 39.444 16.8346C40.1199 16.3115 40.9678 16.0001 41.8887 16C44.0978 16 45.8887 17.7909 45.8887 20C45.8887 20.7309 45.6926 21.4157 45.3501 22.0051C44.9068 22.7683 44.7313 23.7662 45.2681 24.4669C45.7592 25.1079 46.6638 25.2254 47.4696 25.1725C47.5349 25.1682 47.6007 25.166 47.667 25.166C47.9962 25.166 48.3129 25.2192 48.6091 25.3173C49.6609 25.6658 50.9256 26.017 51.8447 25.3981C52.8672 24.7096 52.9533 23.2016 52.8463 21.9735C52.8375 21.8725 52.833 21.7703 52.833 21.667C52.833 21.2685 52.8997 20.8855 53.0226 20.5286C53.3159 19.6764 53.5375 18.723 53.1501 17.9092L52.6833 16.9285C52.4427 16.423 51.8382 16.2226 51.2783 16.2227C49.8977 16.2227 48.7784 15.1033 48.7783 13.7227C48.7783 12.3419 49.8976 11.2227 51.2783 11.2227Z" fill="url(#paint3_linear_3042_2295)"/>
<defs>
<linearGradient id="paint0_linear_3042_2295" x1="1.16159" y1="31.6657" x2="27.0368" y2="45.8054" gradientUnits="userSpaceOnUse">
<stop stop-color="#00C2FF"/>
<stop offset="1" stop-color="#00C2FF" stop-opacity="0"/>
</linearGradient>
<linearGradient id="paint1_linear_3042_2295" x1="-2.08006" y1="11.2067" x2="45.4017" y2="43.5789" gradientUnits="userSpaceOnUse">
<stop stop-color="#00C2FF" stop-opacity="0"/>
<stop offset="1" stop-color="#00C2FF"/>
</linearGradient>
<linearGradient id="paint2_linear_3042_2295" x1="12.1628" y1="-0.0643348" x2="28.4444" y2="24.0987" gradientUnits="userSpaceOnUse">
<stop stop-color="#00C2FF" stop-opacity="0"/>
<stop offset="1" stop-color="#00C2FF"/>
</linearGradient>
<linearGradient id="paint3_linear_3042_2295" x1="28.1559" y1="9.99069" x2="59.6403" y2="33.2481" gradientUnits="userSpaceOnUse">
<stop stop-color="#00C2FF"/>
<stop offset="1" stop-color="#00C2FF" stop-opacity="0"/>
</linearGradient>
</defs>
</svg>
