<svg width="110" height="73" viewBox="0 0 110 73" fill="none" xmlns="http://www.w3.org/2000/svg">
<g opacity="0.8">
<path d="M52.2561 37.612C52.3761 37.6442 52.4783 37.7229 52.5405 37.8307C52.5675 37.8775 52.5944 37.9243 52.6214 37.9711C53.0496 38.7141 53.4777 39.4572 53.9059 40.2001C54.7279 41.6265 55.5504 43.0525 56.3724 44.4789C57.4412 46.2709 57.1153 48.7502 55.6201 50.2039C54.9141 50.9062 54.5048 51.8962 54.5084 52.8929V59.4419C54.6055 63.4674 50.9834 67.0954 46.9653 66.9981C46.1359 66.9983 45.3068 66.86 44.5221 66.5905C42.1686 65.783 39.8143 64.9762 37.4608 64.1687C34.8662 63.2891 32.6536 61.35 31.4345 58.8932C31.0075 58.0401 30.6966 57.1283 30.513 56.1921C30.4891 56.07 30.5147 55.9435 30.5839 55.8402C30.6532 55.7368 30.7607 55.6649 30.8827 55.6409C31.0046 55.6169 31.1308 55.6425 31.2339 55.7119C31.3372 55.7813 31.4089 55.8891 31.4329 56.0113C31.6003 56.8646 31.8833 57.6947 32.2723 58.4719C33.3833 60.7109 35.4006 62.4778 37.7653 63.2793C40.1188 64.0868 42.4723 64.8945 44.8258 65.702C45.5129 65.9379 46.239 66.0589 46.9653 66.0587C50.483 66.145 53.6569 62.9661 53.5708 59.4419V52.8929C53.5663 51.65 54.0767 50.4155 54.9571 49.5398C56.1561 48.3745 56.4176 46.3851 55.5605 44.9486C54.7384 43.5222 53.9159 42.0962 53.0939 40.6698C52.6388 39.88 52.1836 39.0901 51.7285 38.3004C51.6664 38.1925 51.6496 38.064 51.6818 37.9437C51.6856 37.9294 51.69 37.9155 51.6951 37.9018C51.733 37.7998 51.8053 37.7137 51.9001 37.6588C52.0078 37.5965 52.136 37.5797 52.2561 37.612Z" fill="url(#paint0_linear_3042_2313)"/>
<path d="M26.3133 47.9024C25.2999 49.7709 25.1831 51.7373 25.4554 53.5031L25.6544 54.5022C25.9825 55.8676 26.5048 57.0813 26.9658 57.9982C27.1704 58.405 27.3659 58.7545 27.5257 59.0352C20.2062 58.2985 15.6049 54.4632 12.8044 49.8949C9.88389 45.1307 8.92253 39.5666 8.93784 35.9068V35.9044C8.93789 29.0223 11.6123 23.8257 15.6053 20.328C19.6073 16.8225 24.9573 15.0044 30.3217 14.9411C35.6862 14.878 41.0319 16.5699 45.0293 20.0399C49.0171 23.5017 51.6951 28.7599 51.6951 35.9044V37.9018C51.733 37.7998 51.8053 37.7137 51.9001 37.6588C52.0078 37.5965 52.136 37.5797 52.2561 37.612C52.3761 37.6442 52.4783 37.7229 52.5405 37.8307L52.6214 37.9711H52.6328V35.9044C52.6327 28.5033 49.8486 22.9808 45.6439 19.3305C41.4486 15.6886 35.8703 13.9363 30.3112 14.0018C24.7523 14.0672 19.1789 15.9503 14.9883 19.6211C10.7889 23.2995 8.00066 28.7544 8.00019 35.9027C7.98431 39.6952 8.97366 45.4408 12.0053 50.3864C15.0502 55.3532 20.1563 59.5083 28.3167 60.0456C28.4096 60.0517 28.5649 60.0319 28.6905 59.9012C28.8029 59.7841 28.8198 59.6502 28.8226 59.5929C28.8276 59.4904 28.7977 59.4079 28.791 59.3896L28.7904 59.3879C28.7701 59.3314 28.7403 59.2732 28.7187 59.233C28.6704 59.1429 28.5936 59.0127 28.5068 58.8633C28.3285 58.5562 28.0761 58.1173 27.8036 57.5753C27.2567 56.4876 26.6375 55.0012 26.3842 53.3707C26.1316 51.744 26.2459 49.9949 27.1374 48.3511L26.3133 47.9024Z" fill="url(#paint1_linear_3042_2313)"/>
</g>
<rect y="17.5312" width="39.0619" height="39.0619" rx="19.5309" transform="rotate(-30 0 17.5312)" stroke="url(#paint2_linear_3042_2313)" stroke-width="4" stroke-linecap="round"/>
<rect x="11.2368" y="29.2607" width="24.7782" height="24.7782" rx="12.3891" transform="rotate(-45 11.2368 29.2607)" stroke="url(#paint3_linear_3042_2313)" stroke-opacity="0.5" stroke-width="2" stroke-linecap="round"/>
<rect width="15.0181" height="15.0181" rx="7.50903" transform="matrix(-0.866025 0.5 0.5 0.866025 33.5781 23.5781)" stroke="url(#paint4_linear_3042_2313)" stroke-opacity="0.2" stroke-linecap="round"/>
<path d="M31 33.0005L31.866 33.5005V34.5005L31 35.0005L30.134 34.5005V33.5005L31 33.0005Z" fill="#00C2FF"/>
<defs>
<linearGradient id="paint0_linear_3042_2313" x1="55.8993" y1="30.5843" x2="32.3271" y2="69.3863" gradientUnits="userSpaceOnUse">
<stop stop-color="#234772"/>
<stop offset="1" stop-color="#234772" stop-opacity="0"/>
</linearGradient>
<linearGradient id="paint1_linear_3042_2313" x1="55.8993" y1="30.5843" x2="32.3271" y2="69.3863" gradientUnits="userSpaceOnUse">
<stop stop-color="#234772"/>
<stop offset="1" stop-color="#234772" stop-opacity="0"/>
</linearGradient>
<linearGradient id="paint2_linear_3042_2313" x1="37.4006" y1="12.0809" x2="30.1859" y2="53.2444" gradientUnits="userSpaceOnUse">
<stop stop-color="#00C2FF" stop-opacity="0"/>
<stop offset="0.5" stop-color="#00C2FF"/>
<stop offset="1" stop-color="#00C2FF" stop-opacity="0"/>
</linearGradient>
<linearGradient id="paint3_linear_3042_2313" x1="34.9612" y1="25.8034" x2="30.3847" y2="51.9147" gradientUnits="userSpaceOnUse">
<stop stop-color="#00C2FF" stop-opacity="0"/>
<stop offset="0.5" stop-color="#00C2FF"/>
<stop offset="1" stop-color="#00C2FF" stop-opacity="0"/>
</linearGradient>
<linearGradient id="paint4_linear_3042_2313" x1="14.3793" y1="-2.09547" x2="11.6055" y2="13.7306" gradientUnits="userSpaceOnUse">
<stop stop-color="#00C2FF" stop-opacity="0"/>
<stop offset="0.5" stop-color="#00C2FF"/>
<stop offset="1" stop-color="#00C2FF" stop-opacity="0"/>
</linearGradient>
</defs>
</svg>
