<svg width="110" height="73" viewBox="0 0 110 73" fill="none" xmlns="http://www.w3.org/2000/svg">
<g clip-path="url(#clip0_3042_2331)">
<path d="M10.3193 91.1997C24.8628 95.3813 31.4295 96.2124 47.1162 95.8813C53.9118 95.737 58.3246 95.5103 62.8223 94.7974C67.3162 94.085 71.8778 92.8903 78.9736 90.8296C80.9071 90.2907 82.6108 89.7497 83.877 89.2896C84.5087 89.0599 85.0409 88.8471 85.4414 88.6616C85.6409 88.5693 85.818 88.4793 85.9619 88.3931C86.056 88.3367 86.1726 88.2608 86.2734 88.1655L86.3682 88.064L86.375 88.0552L86.3818 88.0454C86.685 87.633 86.8516 87.0955 86.9355 86.519C87.0206 85.9348 87.0278 85.2604 86.9746 84.5308C86.8682 83.0707 86.5146 81.3243 85.9854 79.5073C84.9289 75.8803 83.1421 71.8677 81.0986 69.1714L81.0957 69.1675C78.7328 66.0937 76.3296 64.7225 67.4688 61.019C61.2765 58.4276 58.4546 57.2762 57.1562 56.5151C56.5137 56.1384 56.3861 55.9334 56.3428 55.8149C56.3173 55.745 56.3012 55.6523 56.2988 55.4858C56.2976 55.4022 56.3 55.3105 56.3027 55.1978C56.3054 55.0881 56.3086 54.9612 56.3086 54.8237C56.3086 53.8025 56.1838 52.1282 56.0596 51.0435L56.0576 51.0327L56.0566 51.0229L55.7705 49.0854L55.5938 47.895L55.459 48.0269C55.7882 47.4197 56.0871 46.8264 56.29 46.3472L56.4902 45.9438C57.0025 44.9453 57.814 43.5772 58.4336 42.7437L58.7061 42.3706C60.0448 40.4601 61.0067 37.9368 61.4414 35.6968C61.6736 34.5003 61.7625 33.351 61.6621 32.394C61.5655 31.4734 61.2762 30.5778 60.5996 30.0884L60.6006 30.0874C60.4747 29.9943 60.3258 29.8556 60.1953 29.1372C60.0607 28.3957 59.9699 27.1798 59.8672 25.0679C59.8052 23.6336 59.6911 22.1969 59.5459 20.9897C59.4035 19.8059 59.223 18.7809 59.0107 18.2085L59.0117 18.2075C57.4319 13.9047 54.2981 10.9612 49.9795 9.66846L49.9785 9.66748C48.4351 9.20755 45.9362 9.01333 43.5215 9.04443C41.1106 9.07552 38.6532 9.33242 37.2041 9.84131V9.84229C34.1288 10.9114 31.855 12.599 30.3115 15.1421C28.7793 17.6668 28.0009 20.978 27.7939 25.2329V25.2358C27.712 27.0929 27.6211 28.2841 27.4902 29.0562C27.3539 29.8604 27.1961 30.0456 27.1309 30.0962L27.1221 30.104L27.1123 30.1118C26.723 30.4389 26.5117 30.8874 26.3984 31.4819C26.2885 32.0591 26.2597 32.835 26.2803 33.8911C26.2821 35.5015 26.6585 37.2706 27.2598 38.8813C27.8614 40.4929 28.7054 41.993 29.6758 43.0376C30.143 43.5457 31.0086 44.9588 31.5254 46.1606L31.5293 46.1685L31.5322 46.1763C31.8578 46.8793 32.3039 47.7813 32.7422 48.6245C32.6976 48.6134 32.6426 48.603 32.5801 48.603C32.2107 48.6031 32.0449 48.8961 32.0273 48.9263C31.9817 49.0046 31.9582 49.0809 31.9463 49.1226C31.9199 49.2152 31.9022 49.3233 31.8887 49.4243C31.8605 49.6348 31.8375 49.9231 31.8193 50.2603C31.7828 50.9397 31.7617 51.8689 31.7617 52.8853V56.1265L28.5635 57.645L26.7021 58.4702C24.5263 59.4201 21.5569 60.6768 19.1406 61.6323L19.1357 61.6343C12.2965 64.3994 8.92342 66.4294 6.76855 69.2524L6.7666 69.2544C3.9477 72.9856 1.74975 78.8223 0.920898 84.6274L0.921875 84.6284C0.811081 85.3703 0.73411 86.0674 0.888672 86.6929C1.05653 87.3717 1.47174 87.8926 2.15723 88.3442C2.81802 88.7795 3.7658 89.1751 5.06543 89.6147C6.0471 89.9468 7.25843 90.3129 8.74219 90.7446L10.3193 91.1997Z" stroke="url(#paint0_linear_3042_2331)" stroke-opacity="0.5" stroke-width="1.22733"/>
<path d="M51.5536 19.3829L72.2997 25.9577C73.4498 26.3222 74.4399 27.0702 75.1048 28.0769C76.2565 29.8207 76.256 32.1002 75.1234 33.8565C74.4518 34.8981 73.4308 35.6838 72.2494 36.0582L51.5536 42.6171C46.6585 44.1684 41.4058 44.1837 36.5017 42.6609L15.0021 35.985C13.9431 35.6562 13.0092 34.9907 12.3472 34.1011C10.9664 32.2453 10.9658 29.6792 12.3678 27.8394C13.0213 26.9818 13.9258 26.3492 14.9555 26.0295L36.5017 19.3391C41.4058 17.8163 46.6585 17.8316 51.5536 19.3829Z" fill="url(#paint1_linear_3042_2331)"/>
</g>
<defs>
<linearGradient id="paint0_linear_3042_2331" x1="43.9049" y1="66.4807" x2="43.9049" y2="9.65491" gradientUnits="userSpaceOnUse">
<stop stop-color="#234772" stop-opacity="0"/>
<stop offset="1" stop-color="#234772"/>
</linearGradient>
<linearGradient id="paint1_linear_3042_2331" x1="13.3725" y1="30.9469" x2="74.0772" y2="30.9469" gradientUnits="userSpaceOnUse">
<stop stop-color="#00C2FF" stop-opacity="0"/>
<stop offset="0.5" stop-color="#00C2FF"/>
<stop offset="1" stop-color="#00C2FF" stop-opacity="0"/>
</linearGradient>
<clipPath id="clip0_3042_2331">
<rect width="110" height="73" fill="white"/>
</clipPath>
</defs>
</svg>
