<svg width="103" height="84" viewBox="0 0 103 84" fill="none" xmlns="http://www.w3.org/2000/svg">
<path d="M38.65 5.8C44.7833 5.8 47.85 8.78333 47.85 14.75V32.25C47.85 38.2167 44.7833 41.2 38.65 41.2H27.55V45.5C27.55 45.9667 27.3167 46.2 26.85 46.2H24.05C23.55 46.2 23.3 45.9667 23.3 45.5V41.2H12.2C6.06667 41.2 3 38.2167 3 32.25V14.75C3 8.78333 6.06667 5.8 12.2 5.8H38.65ZM43.6 31.8V15.2C43.6 13.2333 43.15 11.8167 42.25 10.95C41.35 10.0833 39.9 9.65 37.9 9.65H12.95C10.95 9.65 9.5 10.0833 8.6 10.95C7.7 11.8167 7.25 13.2333 7.25 15.2V31.8C7.25 33.7667 7.7 35.1833 8.6 36.05C9.5 36.9167 10.95 37.35 12.95 37.35H37.9C39.9 37.35 41.35 36.9167 42.25 36.05C43.15 35.1833 43.6 33.7667 43.6 31.8ZM51.25 81.15C51.4167 81.4167 51.4333 81.6333 51.3 81.8C51.2 81.9333 51.0167 82 50.75 82H47.4C47.0667 82 46.7333 81.7333 46.4 81.2L42.65 75.45H10.75L7 81.2C6.66667 81.7333 6.31667 82 5.95 82H2.65C2.38333 82 2.18333 81.9333 2.05 81.8C1.95 81.6333 1.98333 81.4167 2.15 81.15L23.95 47.8C24.2833 47.2667 24.6167 47 24.95 47H28.45C28.75 47 29.0667 47.2667 29.4 47.8L51.25 81.15ZM13.15 71.75H40.2L26.95 51.45H26.4L13.15 71.75Z" fill="white"/>
<path d="M90.3273 6C96.394 6 99.4273 8.98333 99.4273 14.95V23.8C99.4273 29.8 96.394 32.8 90.3273 32.8H62.2773V40.3C62.2773 40.7667 62.0273 41 61.5273 41H58.7273C58.2607 41 58.0273 40.7667 58.0273 40.3V6.7C58.0273 6.23333 58.2607 6 58.7273 6H90.3273ZM95.1773 23.4V15.4C95.1773 13.4333 94.7273 12.0167 93.8273 11.15C92.9607 10.2833 91.5273 9.85 89.5273 9.85H62.2773V28.95H89.5273C91.5273 28.95 92.9607 28.5167 93.8273 27.65C94.7273 26.7833 95.1773 25.3667 95.1773 23.4ZM58.0273 47.7C58.0273 47.2333 58.2607 47 58.7273 47H61.5273C62.0273 47 62.2773 47.2333 62.2773 47.7V81.3C62.2773 81.7667 62.0273 82 61.5273 82H58.7273C58.2607 82 58.0273 81.7667 58.0273 81.3V47.7Z" fill="white"/>
</svg>
