<svg width="143" height="125" viewBox="0 0 143 125" fill="none" xmlns="http://www.w3.org/2000/svg">
<rect x="31" y="72" width="7" height="19" rx="3.5" fill="white" fill-opacity="0.14"/>
<rect x="46" y="30" width="7" height="61" rx="3.5" fill="#00C2FF"/>
<rect x="46" y="30" width="7" height="61" rx="3.5" fill="url(#paint0_linear_1453_6840)"/>
<path d="M61 3.5C61 1.56701 62.567 0 64.5 0C66.433 0 68 1.567 68 3.5V87.5C68 89.433 66.433 91 64.5 91C62.567 91 61 89.433 61 87.5V3.5Z" fill="#2EF5AF"/>
<rect x="76" y="59" width="7" height="32" rx="3.5" fill="white" fill-opacity="0.14"/>
<path d="M91 33.5C91 31.567 92.567 30 94.5 30C96.433 30 98 31.567 98 33.5V87.5C98 89.433 96.433 91 94.5 91C92.567 91 91 89.433 91 87.5V33.5Z" fill="#00C2FF"/>
<path d="M91 33.5C91 31.567 92.567 30 94.5 30C96.433 30 98 31.567 98 33.5V87.5C98 89.433 96.433 91 94.5 91C92.567 91 91 89.433 91 87.5V33.5Z" fill="url(#paint1_linear_1453_6840)"/>
<rect x="106" y="72" width="7" height="19" rx="3.5" fill="white" fill-opacity="0.14"/>
<rect x="4" y="118" width="4" height="4" rx="2" transform="rotate(90 4 118)" fill="#2EF5AF"/>
<path d="M9.31 123C9.13 123 9 122.96 8.92 122.88C8.84 122.793 8.8 122.677 8.8 122.53C8.8 122.437 8.82333 122.347 8.87 122.26C8.91667 122.173 8.98333 122.083 9.07 121.99L11.2 119.71C11.5267 119.363 11.76 119.047 11.9 118.76C12.0467 118.467 12.12 118.173 12.12 117.88C12.12 117.507 12.0067 117.223 11.78 117.03C11.5533 116.837 11.22 116.74 10.78 116.74C10.5133 116.74 10.2567 116.78 10.01 116.86C9.76333 116.94 9.51667 117.07 9.27 117.25C9.17 117.317 9.07667 117.347 8.99 117.34C8.90333 117.333 8.82667 117.3 8.76 117.24C8.7 117.18 8.66 117.107 8.64 117.02C8.62 116.933 8.62333 116.843 8.65 116.75C8.67667 116.657 8.74 116.577 8.84 116.51C9.11333 116.303 9.43 116.143 9.79 116.03C10.15 115.917 10.5167 115.86 10.89 115.86C11.3767 115.86 11.7867 115.937 12.12 116.09C12.46 116.237 12.7167 116.453 12.89 116.74C13.0633 117.027 13.15 117.377 13.15 117.79C13.15 118.07 13.1033 118.343 13.01 118.61C12.9233 118.877 12.7867 119.15 12.6 119.43C12.42 119.703 12.1833 119.993 11.89 120.3L9.87 122.42V122.13H13.05C13.1967 122.13 13.31 122.167 13.39 122.24C13.47 122.313 13.51 122.42 13.51 122.56C13.51 122.7 13.47 122.81 13.39 122.89C13.31 122.963 13.1967 123 13.05 123H9.31ZM16.7961 123.09C15.9761 123.09 15.3494 122.78 14.9161 122.16C14.4894 121.533 14.2761 120.637 14.2761 119.47C14.2761 118.677 14.3728 118.013 14.5661 117.48C14.7594 116.947 15.0428 116.543 15.4161 116.27C15.7894 115.997 16.2494 115.86 16.7961 115.86C17.6228 115.86 18.2494 116.167 18.6761 116.78C19.1028 117.387 19.3161 118.28 19.3161 119.46C19.3161 120.24 19.2194 120.9 19.0261 121.44C18.8328 121.98 18.5494 122.39 18.1761 122.67C17.8028 122.95 17.3428 123.09 16.7961 123.09ZM16.7961 122.23C17.3094 122.23 17.6861 122.007 17.9261 121.56C18.1728 121.107 18.2961 120.407 18.2961 119.46C18.2961 118.507 18.1728 117.813 17.9261 117.38C17.6861 116.94 17.3094 116.72 16.7961 116.72C16.2894 116.72 15.9128 116.94 15.6661 117.38C15.4194 117.813 15.2961 118.507 15.2961 119.46C15.2961 120.407 15.4194 121.107 15.6661 121.56C15.9128 122.007 16.2894 122.23 16.7961 122.23ZM20.9022 123C20.7222 123 20.5922 122.96 20.5122 122.88C20.4322 122.793 20.3922 122.677 20.3922 122.53C20.3922 122.437 20.4155 122.347 20.4622 122.26C20.5089 122.173 20.5755 122.083 20.6622 121.99L22.7922 119.71C23.1189 119.363 23.3522 119.047 23.4922 118.76C23.6389 118.467 23.7122 118.173 23.7122 117.88C23.7122 117.507 23.5989 117.223 23.3722 117.03C23.1455 116.837 22.8122 116.74 22.3722 116.74C22.1055 116.74 21.8489 116.78 21.6022 116.86C21.3555 116.94 21.1089 117.07 20.8622 117.25C20.7622 117.317 20.6689 117.347 20.5822 117.34C20.4955 117.333 20.4189 117.3 20.3522 117.24C20.2922 117.18 20.2522 117.107 20.2322 117.02C20.2122 116.933 20.2155 116.843 20.2422 116.75C20.2689 116.657 20.3322 116.577 20.4322 116.51C20.7055 116.303 21.0222 116.143 21.3822 116.03C21.7422 115.917 22.1089 115.86 22.4822 115.86C22.9689 115.86 23.3789 115.937 23.7122 116.09C24.0522 116.237 24.3089 116.453 24.4822 116.74C24.6555 117.027 24.7422 117.377 24.7422 117.79C24.7422 118.07 24.6955 118.343 24.6022 118.61C24.5155 118.877 24.3789 119.15 24.1922 119.43C24.0122 119.703 23.7755 119.993 23.4822 120.3L21.4622 122.42V122.13H24.6422C24.7889 122.13 24.9022 122.167 24.9822 122.24C25.0622 122.313 25.1022 122.42 25.1022 122.56C25.1022 122.7 25.0622 122.81 24.9822 122.89C24.9022 122.963 24.7889 123 24.6422 123H20.9022ZM28.4983 123.09C28.1316 123.09 27.7616 123.04 27.3883 122.94C27.0149 122.833 26.6749 122.67 26.3683 122.45C26.2683 122.39 26.2016 122.313 26.1683 122.22C26.1349 122.127 26.1283 122.037 26.1483 121.95C26.1683 121.857 26.2083 121.78 26.2683 121.72C26.3349 121.66 26.4149 121.627 26.5083 121.62C26.6016 121.607 26.7016 121.633 26.8083 121.7C27.0683 121.867 27.3349 121.993 27.6083 122.08C27.8883 122.167 28.1783 122.21 28.4783 122.21C28.7849 122.21 29.0483 122.153 29.2683 122.04C29.4883 121.927 29.6549 121.77 29.7683 121.57C29.8883 121.363 29.9483 121.123 29.9483 120.85C29.9483 120.43 29.8249 120.087 29.5783 119.82C29.3316 119.553 28.9883 119.42 28.5483 119.42C28.2949 119.42 28.0583 119.467 27.8383 119.56C27.6183 119.647 27.4083 119.793 27.2083 120C27.1616 120.053 27.0983 120.103 27.0183 120.15C26.9449 120.19 26.8616 120.21 26.7683 120.21C26.6283 120.21 26.5216 120.173 26.4483 120.1C26.3749 120.027 26.3383 119.927 26.3383 119.8V116.41C26.3383 116.263 26.3783 116.15 26.4583 116.07C26.5383 115.99 26.6516 115.95 26.7983 115.95H30.1483C30.2949 115.95 30.4083 115.987 30.4883 116.06C30.5683 116.133 30.6083 116.24 30.6083 116.38C30.6083 116.52 30.5683 116.63 30.4883 116.71C30.4083 116.783 30.2949 116.82 30.1483 116.82H27.3483V119.36H27.0683C27.2483 119.107 27.4849 118.91 27.7783 118.77C28.0783 118.63 28.4083 118.56 28.7683 118.56C29.2149 118.56 29.6016 118.653 29.9283 118.84C30.2549 119.027 30.5083 119.29 30.6883 119.63C30.8683 119.963 30.9583 120.353 30.9583 120.8C30.9583 121.253 30.8583 121.653 30.6583 122C30.4583 122.34 30.1749 122.607 29.8083 122.8C29.4416 122.993 29.0049 123.09 28.4983 123.09Z" fill="white" fill-opacity="0.4"/>
<rect x="56.3333" y="118" width="4" height="4" rx="2" transform="rotate(90 56.3333 118)" fill="#00C2FF"/>
<path d="M61.6433 123C61.4633 123 61.3333 122.96 61.2533 122.88C61.1733 122.793 61.1333 122.677 61.1333 122.53C61.1333 122.437 61.1566 122.347 61.2033 122.26C61.2499 122.173 61.3166 122.083 61.4033 121.99L63.5333 119.71C63.8599 119.363 64.0933 119.047 64.2333 118.76C64.3799 118.467 64.4533 118.173 64.4533 117.88C64.4533 117.507 64.3399 117.223 64.1133 117.03C63.8866 116.837 63.5533 116.74 63.1133 116.74C62.8466 116.74 62.5899 116.78 62.3433 116.86C62.0966 116.94 61.8499 117.07 61.6033 117.25C61.5033 117.317 61.4099 117.347 61.3233 117.34C61.2366 117.333 61.1599 117.3 61.0933 117.24C61.0333 117.18 60.9933 117.107 60.9733 117.02C60.9533 116.933 60.9566 116.843 60.9833 116.75C61.0099 116.657 61.0733 116.577 61.1733 116.51C61.4466 116.303 61.7633 116.143 62.1233 116.03C62.4833 115.917 62.8499 115.86 63.2233 115.86C63.7099 115.86 64.1199 115.937 64.4533 116.09C64.7933 116.237 65.0499 116.453 65.2233 116.74C65.3966 117.027 65.4833 117.377 65.4833 117.79C65.4833 118.07 65.4366 118.343 65.3433 118.61C65.2566 118.877 65.1199 119.15 64.9333 119.43C64.7533 119.703 64.5166 119.993 64.2233 120.3L62.2033 122.42V122.13H65.3833C65.5299 122.13 65.6433 122.167 65.7233 122.24C65.8033 122.313 65.8433 122.42 65.8433 122.56C65.8433 122.7 65.8033 122.81 65.7233 122.89C65.6433 122.963 65.5299 123 65.3833 123H61.6433ZM69.1293 123.09C68.3093 123.09 67.6827 122.78 67.2493 122.16C66.8227 121.533 66.6093 120.637 66.6093 119.47C66.6093 118.677 66.706 118.013 66.8993 117.48C67.0927 116.947 67.376 116.543 67.7493 116.27C68.1227 115.997 68.5827 115.86 69.1293 115.86C69.956 115.86 70.5827 116.167 71.0093 116.78C71.436 117.387 71.6493 118.28 71.6493 119.46C71.6493 120.24 71.5527 120.9 71.3593 121.44C71.166 121.98 70.8827 122.39 70.5093 122.67C70.136 122.95 69.676 123.09 69.1293 123.09ZM69.1293 122.23C69.6427 122.23 70.0193 122.007 70.2593 121.56C70.506 121.107 70.6293 120.407 70.6293 119.46C70.6293 118.507 70.506 117.813 70.2593 117.38C70.0193 116.94 69.6427 116.72 69.1293 116.72C68.6227 116.72 68.246 116.94 67.9993 117.38C67.7527 117.813 67.6293 118.507 67.6293 119.46C67.6293 120.407 67.7527 121.107 67.9993 121.56C68.246 122.007 68.6227 122.23 69.1293 122.23ZM73.2354 123C73.0554 123 72.9254 122.96 72.8454 122.88C72.7654 122.793 72.7254 122.677 72.7254 122.53C72.7254 122.437 72.7488 122.347 72.7954 122.26C72.8421 122.173 72.9088 122.083 72.9954 121.99L75.1254 119.71C75.4521 119.363 75.6854 119.047 75.8254 118.76C75.9721 118.467 76.0454 118.173 76.0454 117.88C76.0454 117.507 75.9321 117.223 75.7054 117.03C75.4788 116.837 75.1454 116.74 74.7054 116.74C74.4388 116.74 74.1821 116.78 73.9354 116.86C73.6888 116.94 73.4421 117.07 73.1954 117.25C73.0954 117.317 73.0021 117.347 72.9154 117.34C72.8288 117.333 72.7521 117.3 72.6854 117.24C72.6254 117.18 72.5854 117.107 72.5654 117.02C72.5454 116.933 72.5488 116.843 72.5754 116.75C72.6021 116.657 72.6654 116.577 72.7654 116.51C73.0388 116.303 73.3554 116.143 73.7154 116.03C74.0754 115.917 74.4421 115.86 74.8154 115.86C75.3021 115.86 75.7121 115.937 76.0454 116.09C76.3854 116.237 76.6421 116.453 76.8154 116.74C76.9888 117.027 77.0754 117.377 77.0754 117.79C77.0754 118.07 77.0288 118.343 76.9354 118.61C76.8488 118.877 76.7121 119.15 76.5254 119.43C76.3454 119.703 76.1088 119.993 75.8154 120.3L73.7954 122.42V122.13H76.9754C77.1221 122.13 77.2354 122.167 77.3154 122.24C77.3954 122.313 77.4354 122.42 77.4354 122.56C77.4354 122.7 77.3954 122.81 77.3154 122.89C77.2354 122.963 77.1221 123 76.9754 123H73.2354ZM81.8815 123.07C81.7215 123.07 81.5949 123.027 81.5015 122.94C81.4082 122.847 81.3615 122.72 81.3615 122.56V121.57H78.6815C78.5149 121.57 78.3815 121.533 78.2815 121.46C78.1815 121.387 78.1315 121.273 78.1315 121.12C78.1315 121.033 78.1515 120.94 78.1915 120.84C78.2382 120.74 78.3182 120.61 78.4315 120.45L81.3415 116.22C81.4149 116.107 81.4982 116.023 81.5915 115.97C81.6849 115.91 81.7915 115.88 81.9115 115.88C82.0515 115.88 82.1649 115.923 82.2515 116.01C82.3449 116.09 82.3915 116.217 82.3915 116.39V120.7H83.0215C83.1815 120.7 83.2982 120.737 83.3715 120.81C83.4515 120.883 83.4915 120.99 83.4915 121.13C83.4915 121.277 83.4515 121.387 83.3715 121.46C83.2982 121.533 83.1815 121.57 83.0215 121.57H82.3915V122.56C82.3915 122.72 82.3449 122.847 82.2515 122.94C82.1649 123.027 82.0415 123.07 81.8815 123.07ZM81.3615 120.7V117.17H81.6315L79.0215 120.98V120.7H81.3615Z" fill="white" fill-opacity="0.4"/>
<rect x="108.667" y="118" width="4" height="4" rx="2" transform="rotate(90 108.667 118)" fill="white" fill-opacity="0.28"/>
<path d="M113.977 123C113.797 123 113.667 122.96 113.587 122.88C113.507 122.793 113.467 122.677 113.467 122.53C113.467 122.437 113.49 122.347 113.537 122.26C113.583 122.173 113.65 122.083 113.737 121.99L115.867 119.71C116.193 119.363 116.427 119.047 116.567 118.76C116.713 118.467 116.787 118.173 116.787 117.88C116.787 117.507 116.673 117.223 116.447 117.03C116.22 116.837 115.887 116.74 115.447 116.74C115.18 116.74 114.923 116.78 114.677 116.86C114.43 116.94 114.183 117.07 113.937 117.25C113.837 117.317 113.743 117.347 113.657 117.34C113.57 117.333 113.493 117.3 113.427 117.24C113.367 117.18 113.327 117.107 113.307 117.02C113.287 116.933 113.29 116.843 113.317 116.75C113.343 116.657 113.407 116.577 113.507 116.51C113.78 116.303 114.097 116.143 114.457 116.03C114.817 115.917 115.183 115.86 115.557 115.86C116.043 115.86 116.453 115.937 116.787 116.09C117.127 116.237 117.383 116.453 117.557 116.74C117.73 117.027 117.817 117.377 117.817 117.79C117.817 118.07 117.77 118.343 117.677 118.61C117.59 118.877 117.453 119.15 117.267 119.43C117.087 119.703 116.85 119.993 116.557 120.3L114.537 122.42V122.13H117.717C117.863 122.13 117.977 122.167 118.057 122.24C118.137 122.313 118.177 122.42 118.177 122.56C118.177 122.7 118.137 122.81 118.057 122.89C117.977 122.963 117.863 123 117.717 123H113.977ZM121.463 123.09C120.643 123.09 120.016 122.78 119.583 122.16C119.156 121.533 118.943 120.637 118.943 119.47C118.943 118.677 119.04 118.013 119.233 117.48C119.426 116.947 119.71 116.543 120.083 116.27C120.456 115.997 120.916 115.86 121.463 115.86C122.29 115.86 122.916 116.167 123.343 116.78C123.77 117.387 123.983 118.28 123.983 119.46C123.983 120.24 123.886 120.9 123.693 121.44C123.5 121.98 123.216 122.39 122.843 122.67C122.47 122.95 122.01 123.09 121.463 123.09ZM121.463 122.23C121.976 122.23 122.353 122.007 122.593 121.56C122.84 121.107 122.963 120.407 122.963 119.46C122.963 118.507 122.84 117.813 122.593 117.38C122.353 116.94 121.976 116.72 121.463 116.72C120.956 116.72 120.58 116.94 120.333 117.38C120.086 117.813 119.963 118.507 119.963 119.46C119.963 120.407 120.086 121.107 120.333 121.56C120.58 122.007 120.956 122.23 121.463 122.23ZM125.569 123C125.389 123 125.259 122.96 125.179 122.88C125.099 122.793 125.059 122.677 125.059 122.53C125.059 122.437 125.082 122.347 125.129 122.26C125.176 122.173 125.242 122.083 125.329 121.99L127.459 119.71C127.786 119.363 128.019 119.047 128.159 118.76C128.306 118.467 128.379 118.173 128.379 117.88C128.379 117.507 128.266 117.223 128.039 117.03C127.812 116.837 127.479 116.74 127.039 116.74C126.772 116.74 126.516 116.78 126.269 116.86C126.022 116.94 125.776 117.07 125.529 117.25C125.429 117.317 125.336 117.347 125.249 117.34C125.162 117.333 125.086 117.3 125.019 117.24C124.959 117.18 124.919 117.107 124.899 117.02C124.879 116.933 124.882 116.843 124.909 116.75C124.936 116.657 124.999 116.577 125.099 116.51C125.372 116.303 125.689 116.143 126.049 116.03C126.409 115.917 126.776 115.86 127.149 115.86C127.636 115.86 128.046 115.937 128.379 116.09C128.719 116.237 128.976 116.453 129.149 116.74C129.322 117.027 129.409 117.377 129.409 117.79C129.409 118.07 129.362 118.343 129.269 118.61C129.182 118.877 129.046 119.15 128.859 119.43C128.679 119.703 128.442 119.993 128.149 120.3L126.129 122.42V122.13H129.309C129.456 122.13 129.569 122.167 129.649 122.24C129.729 122.313 129.769 122.42 129.769 122.56C129.769 122.7 129.729 122.81 129.649 122.89C129.569 122.963 129.456 123 129.309 123H125.569ZM132.945 123.09C132.572 123.09 132.192 123.04 131.805 122.94C131.418 122.833 131.082 122.677 130.795 122.47C130.688 122.403 130.615 122.323 130.575 122.23C130.542 122.13 130.535 122.04 130.555 121.96C130.575 121.873 130.615 121.8 130.675 121.74C130.742 121.68 130.822 121.647 130.915 121.64C131.008 121.627 131.112 121.653 131.225 121.72C131.512 121.893 131.792 122.02 132.065 122.1C132.338 122.173 132.622 122.21 132.915 122.21C133.235 122.21 133.505 122.163 133.725 122.07C133.945 121.977 134.108 121.84 134.215 121.66C134.328 121.48 134.385 121.263 134.385 121.01C134.385 120.63 134.258 120.347 134.005 120.16C133.758 119.967 133.398 119.87 132.925 119.87H132.245C132.092 119.87 131.975 119.833 131.895 119.76C131.815 119.68 131.775 119.57 131.775 119.43C131.775 119.297 131.815 119.193 131.895 119.12C131.975 119.04 132.092 119 132.245 119H132.825C133.112 119 133.355 118.953 133.555 118.86C133.755 118.76 133.908 118.623 134.015 118.45C134.128 118.27 134.185 118.053 134.185 117.8C134.185 117.46 134.072 117.2 133.845 117.02C133.625 116.833 133.302 116.74 132.875 116.74C132.602 116.74 132.342 116.777 132.095 116.85C131.855 116.923 131.605 117.053 131.345 117.24C131.245 117.307 131.148 117.337 131.055 117.33C130.968 117.317 130.892 117.283 130.825 117.23C130.765 117.17 130.722 117.097 130.695 117.01C130.675 116.923 130.682 116.833 130.715 116.74C130.748 116.647 130.815 116.567 130.915 116.5C131.195 116.293 131.512 116.137 131.865 116.03C132.218 115.917 132.582 115.86 132.955 115.86C133.422 115.86 133.822 115.933 134.155 116.08C134.495 116.227 134.752 116.437 134.925 116.71C135.105 116.983 135.195 117.31 135.195 117.69C135.195 117.977 135.142 118.237 135.035 118.47C134.928 118.703 134.775 118.903 134.575 119.07C134.382 119.23 134.145 119.343 133.865 119.41V119.3C134.352 119.38 134.728 119.58 134.995 119.9C135.262 120.213 135.395 120.607 135.395 121.08C135.395 121.493 135.295 121.853 135.095 122.16C134.902 122.46 134.622 122.69 134.255 122.85C133.888 123.01 133.452 123.09 132.945 123.09Z" fill="white" fill-opacity="0.4"/>
<line x1="4.37114e-08" y1="104.5" x2="143" y2="104.5" stroke="white" stroke-opacity="0.18"/>
<defs>
<linearGradient id="paint0_linear_1453_6840" x1="49.5" y1="30" x2="49.5" y2="91" gradientUnits="userSpaceOnUse">
<stop stop-color="#00C2FF"/>
<stop offset="1" stop-color="#00C2FF" stop-opacity="0"/>
</linearGradient>
<linearGradient id="paint1_linear_1453_6840" x1="94.5" y1="30" x2="94.5" y2="91" gradientUnits="userSpaceOnUse">
<stop stop-color="#00C2FF"/>
<stop offset="1" stop-color="#00C2FF" stop-opacity="0"/>
</linearGradient>
</defs>
</svg>
