<svg width="42" height="42" viewBox="0 0 42 42" fill="none" xmlns="http://www.w3.org/2000/svg">
<path d="M23.5214 20.5636C24.4763 19.1326 26.5581 19.0712 27.5956 20.4434L33.4569 28.1983C33.6233 28.4185 33.5802 28.7319 33.3602 28.8985C33.1401 29.0649 32.8266 29.0218 32.66 28.8018L26.7977 21.047C26.1753 20.2235 24.9264 20.2597 24.3534 21.1182L19.246 28.7725C18.2536 30.2596 16.0666 30.2543 15.0809 28.7628L10.5223 21.8653C9.99163 21.0626 8.85284 20.9602 8.18738 21.6554L7.9198 21.9347C7.72884 22.1341 7.41224 22.1412 7.21277 21.9503C7.0134 21.7593 7.00622 21.4427 7.19714 21.2432L7.46472 20.964C8.57394 19.8052 10.4719 19.9763 11.3563 21.3145L15.9149 28.212C16.5062 29.1068 17.8184 29.1097 18.4139 28.2179L23.5214 20.5636Z" fill="white" fill-opacity="0.5"/>
<path d="M22.6278 15.6728C23.2189 13.4176 26.3034 13.1278 27.3046 15.2334L33.5096 28.2851C33.6282 28.5344 33.5225 28.8325 33.2733 28.9512C33.024 29.0697 32.726 28.964 32.6073 28.7148L26.4012 15.6631C25.8005 14.3996 23.9501 14.5734 23.5956 15.9267L19.4637 31.7002C18.8682 33.9738 15.7487 34.2438 14.7714 32.1064L10.3065 22.3379C9.87684 21.3984 8.63437 21.1885 7.9198 21.9346C7.72884 22.134 7.41224 22.1411 7.21277 21.9502C7.0134 21.7592 7.00622 21.4426 7.19714 21.2431C8.40035 19.9864 10.4923 20.3404 11.2157 21.9228L15.6805 31.6904C16.2669 32.973 18.1386 32.8105 18.496 31.4463L22.6278 15.6728Z" fill="white"/>
</svg>
