<svg width="38" height="38" viewBox="0 0 38 38" fill="none" xmlns="http://www.w3.org/2000/svg">
<path d="M19 6C19.7408 6 20.3513 6.55762 20.4347 7.27599L20.4444 7.44444V30.5556C20.4444 31.3533 19.7978 32 19 32C18.2592 32 17.6487 31.4424 17.5653 30.724L17.5556 30.5556V7.44444C17.5556 6.64671 18.2022 6 19 6ZM13.2222 10.3333C14.02 10.3333 14.6667 10.98 14.6667 11.7778V26.2222C14.6667 27.02 14.02 27.6667 13.2222 27.6667C12.4245 27.6667 11.7778 27.02 11.7778 26.2222V11.7778C11.7778 10.98 12.4245 10.3333 13.2222 10.3333ZM24.7778 10.3333C25.5755 10.3333 26.2222 10.98 26.2222 11.7778V26.2222C26.2222 27.02 25.5755 27.6667 24.7778 27.6667C23.98 27.6667 23.3333 27.02 23.3333 26.2222V11.7778C23.3333 10.98 23.98 10.3333 24.7778 10.3333ZM7.44444 14.6667C8.24218 14.6667 8.88889 15.3134 8.88889 16.1111V21.8889C8.88889 22.6867 8.24218 23.3333 7.44444 23.3333C6.64671 23.3333 6 22.6867 6 21.8889V16.1111C6 15.3134 6.64671 14.6667 7.44444 14.6667ZM30.5556 14.6667C31.2963 14.6667 31.9068 15.2243 31.9903 15.9427L32 16.1111V21.8889C32 22.6867 31.3533 23.3333 30.5556 23.3333C29.8148 23.3333 29.2043 22.7757 29.1208 22.0573L29.1111 21.8889V16.1111C29.1111 15.3134 29.7578 14.6667 30.5556 14.6667Z" fill="white" fill-opacity="0.3"/>
<path fill-rule="evenodd" clip-rule="evenodd" d="M19 6C19.7408 6 20.3513 6.55762 20.4347 7.27599L20.4444 7.44444V30.5556C20.4444 31.3533 19.7978 32 19 32C18.2592 32 17.6487 31.4424 17.5653 30.724L17.5556 30.5556V7.44444C17.5556 6.64671 18.2022 6 19 6ZM13.2222 10.3333C14.02 10.3333 14.6667 10.98 14.6667 11.7778V26.2222C14.6667 27.02 14.02 27.6667 13.2222 27.6667C12.4245 27.6667 11.7778 27.02 11.7778 26.2222V11.7778C11.7778 10.98 12.4245 10.3333 13.2222 10.3333ZM24.7778 10.3333C25.5755 10.3333 26.2222 10.98 26.2222 11.7778V26.2222C26.2222 27.02 25.5755 27.6667 24.7778 27.6667C23.98 27.6667 23.3333 27.02 23.3333 26.2222V11.7778C23.3333 10.98 23.98 10.3333 24.7778 10.3333Z" fill="white"/>
</svg>
