<svg width="1579" height="433" viewBox="0 0 1579 433" fill="none" xmlns="http://www.w3.org/2000/svg">
<path d="M0 322.5H198.5C209.546 322.5 218.5 313.546 218.5 302.5V204C218.5 192.954 227.454 184 238.5 184H426.5M1578 0V235.5C1578 246.546 1569.05 255.5 1558 255.5H1331.5M426.5 184H474C485.046 184 494 192.954 494 204V412C494 423.046 502.954 432 514 432H1042C1053.05 432 1062 423.046 1062 412V275.5C1062 264.454 1070.95 255.5 1082 255.5H1331.5M426.5 184V147C426.5 135.954 435.454 127 446.5 127H893.5C904.546 127 913.5 135.954 913.5 147V205C913.5 216.046 922.454 225 933.5 225H1311.5C1322.55 225 1331.5 233.954 1331.5 245V255.5" stroke="white" stroke-opacity="0.2"/>
</svg>
