<svg width="86" height="35" viewBox="0 0 86 35" fill="none" xmlns="http://www.w3.org/2000/svg">
<path d="M-2.92361e-05 14V-9.53674e-07H11.56V2.58H2.79997V5.7H11.24V8.28H2.79997V11.4H11.56V14H-2.92361e-05ZM13.9843 4H16.4843L16.7443 5.28C17.7643 4.28 19.2243 3.7 20.9043 3.7C24.2243 3.7 26.7243 5.96 26.7243 8.98C26.7243 12.04 24.2443 14.3 20.9043 14.3C19.2443 14.3 17.8043 13.74 16.7843 12.74V18H13.9843V4ZM23.9243 8.98C23.9243 7.34 22.4043 6.16 20.3043 6.16C18.2043 6.16 16.7843 7.32 16.7843 8.98C16.7843 10.66 18.2043 11.82 20.3043 11.82C22.4443 11.82 23.9243 10.62 23.9243 8.98ZM30.8714 9.02C30.8714 10.62 32.2914 11.74 34.1914 11.74C35.7114 11.74 36.8314 11.14 37.2914 10.1H40.1914C39.6714 12.64 37.2914 14.3 34.1914 14.3C30.6914 14.3 28.0714 12.04 28.0714 9.02C28.0714 5.96 30.6714 3.7 34.1914 3.7C37.2714 3.7 39.6314 5.32 40.1714 7.88H37.2714C36.8114 6.86 35.6914 6.24 34.1914 6.24C32.2714 6.24 30.8714 7.4 30.8714 9.02ZM-2.92361e-05 34V20H2.79997V25.7H10.46V20H13.26V34H10.46V28.28H2.79997V34H-2.92361e-05ZM24.5236 28.66V24H27.3236V34H24.8036L24.5436 32.34C23.6636 33.56 22.3436 34.3 20.7836 34.3C17.7836 34.3 15.6836 31.98 15.6836 28.66V24H18.4836V28.66C18.4836 30.46 19.7436 31.7 21.5236 31.7C23.2836 31.7 24.5236 30.44 24.5236 28.66ZM32.6437 29.34V34H29.8437V24H32.3437L32.6237 25.64C33.5037 24.44 34.8237 23.7 36.3837 23.7C39.3837 23.7 41.4837 26 41.4837 29.34V34H38.6837V29.34C38.6837 27.54 37.4037 26.28 35.6237 26.28C33.8437 26.28 32.6437 27.54 32.6437 29.34ZM48.2239 26.58V29.32C48.2239 30.92 49.1839 31.7 51.1039 31.7V34.3C47.4039 34.3 45.4239 32.46 45.4239 29.32V26.58H43.3839V25.46L47.1039 21.76H48.2239V24H51.1039V26.58H48.2239ZM64.504 29.7H55.424C55.724 31.14 57.004 32.1 58.684 32.1C59.884 32.1 60.844 31.66 61.364 30.94H64.204C63.444 32.98 61.304 34.3 58.564 34.3C55.124 34.3 52.544 32.04 52.544 29.02C52.544 25.96 55.104 23.7 58.564 23.7C61.984 23.7 64.544 25.84 64.544 29.02C64.544 29.24 64.544 29.48 64.504 29.7ZM55.424 28.3H61.664C61.384 26.88 60.204 25.96 58.564 25.96C56.944 25.96 55.724 26.9 55.424 28.3ZM73.9848 23.7V26.66C71.0048 26.66 69.2648 28.36 69.2648 31.16V34H66.4648V24H68.9648L69.2648 26.6C70.1848 24.82 71.8448 23.7 73.9848 23.7ZM85.0654 31.16C85.0654 32.96 83.1654 34.3 80.2454 34.3C77.2454 34.3 75.2054 32.98 74.9854 30.9H77.7854C77.9454 31.78 78.8254 32.3 80.2454 32.3C81.3854 32.3 82.2454 31.8 82.2454 31.16C82.2454 28.96 75.2454 30.9 75.2454 26.88C75.2454 25.12 77.0454 23.7 79.9654 23.7C82.9654 23.7 84.7454 25 84.9054 27.08H82.1054C81.9854 26.28 81.2654 25.72 79.9454 25.72C78.8454 25.72 78.0454 26.2 78.0454 26.86C78.0454 29 85.0654 26.84 85.0654 31.16Z" fill="#F2F3EF"/>
</svg>
