<svg width="137" height="53" viewBox="0 0 137 53" fill="none" xmlns="http://www.w3.org/2000/svg">
<path d="M3.57628e-06 22.4V0H18.496V4.128H4.48V9.12H17.984V13.248H4.48V18.24H18.496V22.4H3.57628e-06ZM22.375 6.4H26.375L26.791 8.448C28.423 6.848 30.759 5.92 33.447 5.92C38.759 5.92 42.759 9.536 42.759 14.368C42.759 19.264 38.791 22.88 33.447 22.88C30.791 22.88 28.487 21.984 26.855 20.384V28.8H22.375V6.4ZM38.279 14.368C38.279 11.744 35.847 9.856 32.487 9.856C29.127 9.856 26.855 11.712 26.855 14.368C26.855 17.056 29.127 18.912 32.487 18.912C35.911 18.912 38.279 16.992 38.279 14.368ZM49.3943 14.432C49.3943 16.992 51.6663 18.784 54.7063 18.784C57.1383 18.784 58.9303 17.824 59.6663 16.16H64.3063C63.4743 20.224 59.6663 22.88 54.7063 22.88C49.1063 22.88 44.9143 19.264 44.9143 14.432C44.9143 9.536 49.0743 5.92 54.7063 5.92C59.6343 5.92 63.4103 8.512 64.2743 12.608H59.6343C58.8983 10.976 57.1063 9.984 54.7063 9.984C51.6343 9.984 49.3943 11.84 49.3943 14.432ZM3.57628e-06 52.4V30H4.48V39.12H16.736V30H21.216V52.4H16.736V43.248H4.48V52.4H3.57628e-06ZM39.2378 43.856V36.4H43.7178V52.4H39.6858L39.2698 49.744C37.8618 51.696 35.7498 52.88 33.2538 52.88C28.4538 52.88 25.0938 49.168 25.0938 43.856V36.4H29.5738V43.856C29.5738 46.736 31.5898 48.72 34.4378 48.72C37.2538 48.72 39.2378 46.704 39.2378 43.856ZM52.23 44.944V52.4H47.75V36.4H51.75L52.198 39.024C53.606 37.104 55.718 35.92 58.214 35.92C63.014 35.92 66.374 39.6 66.374 44.944V52.4H61.894V44.944C61.894 42.064 59.846 40.048 56.998 40.048C54.15 40.048 52.23 42.064 52.23 44.944ZM77.1583 40.528V44.912C77.1583 47.472 78.6943 48.72 81.7663 48.72V52.88C75.8463 52.88 72.6783 49.936 72.6783 44.912V40.528H69.4143V38.736L75.3663 32.816H77.1583V36.4H81.7663V40.528H77.1583ZM103.207 45.52H88.6785C89.1585 47.824 91.2065 49.36 93.8945 49.36C95.8145 49.36 97.3505 48.656 98.1825 47.504H102.727C101.511 50.768 98.0865 52.88 93.7025 52.88C88.1985 52.88 84.0705 49.264 84.0705 44.432C84.0705 39.536 88.1665 35.92 93.7025 35.92C99.1745 35.92 103.271 39.344 103.271 44.432C103.271 44.784 103.271 45.168 103.207 45.52ZM88.6785 43.28H98.6625C98.2145 41.008 96.3265 39.536 93.7025 39.536C91.1105 39.536 89.1585 41.04 88.6785 43.28ZM118.376 35.92V40.656C113.608 40.656 110.824 43.376 110.824 47.856V52.4H106.344V36.4H110.344L110.824 40.56C112.296 37.712 114.952 35.92 118.376 35.92ZM136.105 47.856C136.105 50.736 133.065 52.88 128.393 52.88C123.593 52.88 120.329 50.768 119.977 47.44H124.457C124.713 48.848 126.121 49.68 128.393 49.68C130.217 49.68 131.593 48.88 131.593 47.856C131.593 44.336 120.393 47.44 120.393 41.008C120.393 38.192 123.273 35.92 127.945 35.92C132.745 35.92 135.593 38 135.849 41.328H131.369C131.177 40.048 130.025 39.152 127.913 39.152C126.153 39.152 124.873 39.92 124.873 40.976C124.873 44.4 136.105 40.944 136.105 47.856Z" fill="white"/>
</svg>
