<svg width="38" height="39" viewBox="0 0 38 39" fill="none" xmlns="http://www.w3.org/2000/svg">
<mask id="path-1-inside-1_1_806" fill="white">
<path d="M16.6816 0.000173376V9.88806H18.1668V0H16.6817L16.6816 0.000173376ZM7.59165 0.0541933C6.2895 0.0541933 5.23254 1.14377 5.23254 2.48621C5.23254 3.82866 6.2895 4.91563 7.59165 4.91563C8.65432 4.91563 9.55156 4.19087 9.8458 3.19505H13.6192V9.88806H15.1045V1.66388H9.81154C9.48505 0.725719 8.61393 0.0541933 7.59165 0.0541933ZM23.8192 0.0541933C22.5171 0.0541933 21.4627 1.14377 21.4627 2.48621C21.4627 3.53579 22.1074 4.42972 23.0112 4.76959V9.88797H24.4937V4.81556C25.4674 4.51672 26.1784 3.58687 26.1784 2.4863C26.1784 1.14377 25.1215 0.0541933 23.8193 0.0541933H23.8192ZM19.8121 5.21863V9.88806H21.2948V5.21863H19.8123H19.8121ZM35.6435 5.56751C34.3413 5.56751 33.2844 6.65725 33.2844 7.9997C33.2844 9.1323 34.0358 10.0838 35.0531 10.3534V12.7313H27.2489V14.2599H36.5382V10.248C37.3967 9.88511 37.9999 9.01586 37.9999 7.99979C37.9999 6.65734 36.9455 5.56768 35.6433 5.56768L35.6435 5.56751ZM0 7.9159V9.44715H5.58943V14.2599H10.864V12.7312H7.07472V7.91581L0 7.9159ZM12.3466 11.4194V25.2462H25.7661V11.4192H12.3467L12.3466 11.4194ZM13.8211 12.7747H15.3038V19.5786L18.0251 22.384H24.3465V23.9127H17.4085L17.1907 23.6881L16.288 22.7575C16.2012 23.3968 15.6699 23.8883 15.0259 23.8883C14.3212 23.8883 13.7503 23.3 13.7503 22.5735C13.7503 21.9085 14.2286 21.3633 14.8499 21.275L14.0392 20.4389L13.8214 20.2144V12.7745L13.8211 12.7747ZM18.4345 12.7882H19.9197V17.5767H24.3307L24.3309 19.108H18.4346V12.7883L18.4345 12.7882ZM1.92606 16.0291V23.8177C0.961227 24.1218 0.259725 25.0469 0.259725 26.1416C0.259725 27.4839 1.31416 28.5737 2.61631 28.5737C3.91847 28.5737 4.97534 27.484 4.97534 26.1417C4.97534 25.086 4.3212 24.1883 3.40876 23.853V17.5576H10.864V16.0292H1.92606V16.0291ZM27.2489 16.0291V17.5576H31.7807V16.0292H27.2487L27.2489 16.0291ZM35.6434 17.931C34.7283 17.931 33.9353 18.4686 33.5441 19.2538H27.2487L27.2489 20.7851H33.3212C33.5164 21.925 34.482 22.7924 35.6435 22.7924C36.9456 22.7924 38 21.7027 38 20.3603C38 19.0179 36.9456 17.931 35.6434 17.931V17.931ZM6.33199 19.2538V20.7851H10.864V19.2538H6.33199ZM7.77261 22.4111V29.7017C6.8071 30.0059 6.10367 30.931 6.10367 32.0256C6.10367 33.368 7.16063 34.4577 8.46278 34.4577C9.76485 34.4577 10.819 33.368 10.819 32.0256C10.819 30.97 10.1669 30.0723 9.25514 29.737V23.942H10.8637V22.4109H7.7727L7.77261 22.4111ZM27.2489 22.4111V23.9421H31.0407V32.1908C30.0899 32.5045 29.4008 33.4253 29.4008 34.5092C29.4006 35.8515 30.4576 36.9386 31.7597 36.9386C33.0619 36.9386 34.1162 35.8515 34.1162 34.5093C34.1162 33.4427 33.4499 32.5374 32.5233 32.2097V22.4111H27.2486H27.2489ZM13.6192 26.7772V31.4549H15.1045V26.7772H13.6192ZM16.6817 26.7772V34.2711C15.7569 34.5995 15.0913 35.5033 15.0913 36.5678C15.0913 37.9102 16.1483 39 17.4505 39C18.7526 39 19.807 37.9101 19.807 36.5678C19.807 35.4831 19.1181 34.5646 18.1668 34.2521V26.7772H16.6817ZM19.8122 26.7772V31.4549H21.2975L21.2948 26.7773H19.8123L19.8122 26.7772ZM23.011 26.7772V38.9026H24.4935V26.7772H23.0111H23.011Z"/>
</mask>
<path d="M16.6816 0.000173376V9.88806H18.1668V0H16.6817L16.6816 0.000173376ZM7.59165 0.0541933C6.2895 0.0541933 5.23254 1.14377 5.23254 2.48621C5.23254 3.82866 6.2895 4.91563 7.59165 4.91563C8.65432 4.91563 9.55156 4.19087 9.8458 3.19505H13.6192V9.88806H15.1045V1.66388H9.81154C9.48505 0.725719 8.61393 0.0541933 7.59165 0.0541933ZM23.8192 0.0541933C22.5171 0.0541933 21.4627 1.14377 21.4627 2.48621C21.4627 3.53579 22.1074 4.42972 23.0112 4.76959V9.88797H24.4937V4.81556C25.4674 4.51672 26.1784 3.58687 26.1784 2.4863C26.1784 1.14377 25.1215 0.0541933 23.8193 0.0541933H23.8192ZM19.8121 5.21863V9.88806H21.2948V5.21863H19.8123H19.8121ZM35.6435 5.56751C34.3413 5.56751 33.2844 6.65725 33.2844 7.9997C33.2844 9.1323 34.0358 10.0838 35.0531 10.3534V12.7313H27.2489V14.2599H36.5382V10.248C37.3967 9.88511 37.9999 9.01586 37.9999 7.99979C37.9999 6.65734 36.9455 5.56768 35.6433 5.56768L35.6435 5.56751ZM0 7.9159V9.44715H5.58943V14.2599H10.864V12.7312H7.07472V7.91581L0 7.9159ZM12.3466 11.4194V25.2462H25.7661V11.4192H12.3467L12.3466 11.4194ZM13.8211 12.7747H15.3038V19.5786L18.0251 22.384H24.3465V23.9127H17.4085L17.1907 23.6881L16.288 22.7575C16.2012 23.3968 15.6699 23.8883 15.0259 23.8883C14.3212 23.8883 13.7503 23.3 13.7503 22.5735C13.7503 21.9085 14.2286 21.3633 14.8499 21.275L14.0392 20.4389L13.8214 20.2144V12.7745L13.8211 12.7747ZM18.4345 12.7882H19.9197V17.5767H24.3307L24.3309 19.108H18.4346V12.7883L18.4345 12.7882ZM1.92606 16.0291V23.8177C0.961227 24.1218 0.259725 25.0469 0.259725 26.1416C0.259725 27.4839 1.31416 28.5737 2.61631 28.5737C3.91847 28.5737 4.97534 27.484 4.97534 26.1417C4.97534 25.086 4.3212 24.1883 3.40876 23.853V17.5576H10.864V16.0292H1.92606V16.0291ZM27.2489 16.0291V17.5576H31.7807V16.0292H27.2487L27.2489 16.0291ZM35.6434 17.931C34.7283 17.931 33.9353 18.4686 33.5441 19.2538H27.2487L27.2489 20.7851H33.3212C33.5164 21.925 34.482 22.7924 35.6435 22.7924C36.9456 22.7924 38 21.7027 38 20.3603C38 19.0179 36.9456 17.931 35.6434 17.931V17.931ZM6.33199 19.2538V20.7851H10.864V19.2538H6.33199ZM7.77261 22.4111V29.7017C6.8071 30.0059 6.10367 30.931 6.10367 32.0256C6.10367 33.368 7.16063 34.4577 8.46278 34.4577C9.76485 34.4577 10.819 33.368 10.819 32.0256C10.819 30.97 10.1669 30.0723 9.25514 29.737V23.942H10.8637V22.4109H7.7727L7.77261 22.4111ZM27.2489 22.4111V23.9421H31.0407V32.1908C30.0899 32.5045 29.4008 33.4253 29.4008 34.5092C29.4006 35.8515 30.4576 36.9386 31.7597 36.9386C33.0619 36.9386 34.1162 35.8515 34.1162 34.5093C34.1162 33.4427 33.4499 32.5374 32.5233 32.2097V22.4111H27.2486H27.2489ZM13.6192 26.7772V31.4549H15.1045V26.7772H13.6192ZM16.6817 26.7772V34.2711C15.7569 34.5995 15.0913 35.5033 15.0913 36.5678C15.0913 37.9102 16.1483 39 17.4505 39C18.7526 39 19.807 37.9101 19.807 36.5678C19.807 35.4831 19.1181 34.5646 18.1668 34.2521V26.7772H16.6817ZM19.8122 26.7772V31.4549H21.2975L21.2948 26.7773H19.8123L19.8122 26.7772ZM23.011 26.7772V38.9026H24.4935V26.7772H23.0111H23.011Z" fill="white" stroke="#FFA101" stroke-width="0.2" mask="url(#path-1-inside-1_1_806)"/>
</svg>
