<svg width="73" height="32" viewBox="0 0 73 32" fill="none" xmlns="http://www.w3.org/2000/svg">
<mask id="path-1-inside-1_2058_198" fill="white">
<path d="M14.0477 0.000142257V8.11328H15.2984V0H14.0478L14.0477 0.000142257ZM6.39297 0.0444663C5.29642 0.0444663 4.40635 0.938475 4.40635 2.03997C4.40635 3.14146 5.29642 4.03334 6.39297 4.03334C7.28785 4.03334 8.04342 3.43866 8.2912 2.62158H11.4688V8.11328H12.7196V1.36524H8.26235C7.98741 0.595462 7.25383 0.0444663 6.39297 0.0444663ZM20.0583 0.0444663C18.9618 0.0444663 18.0739 0.938475 18.0739 2.03997C18.0739 2.90116 18.6167 3.63464 19.3778 3.91351V8.11321H20.6263V3.95123C21.4463 3.70603 22.045 2.94307 22.045 2.04004C22.045 0.938475 21.1549 0.0444663 20.0584 0.0444663H20.0583ZM16.6839 4.28195V8.11328H17.9325V4.28195H16.684H16.6839ZM30.0156 4.56821C28.919 4.56821 28.029 5.46236 28.029 6.56386C28.029 7.49317 28.6617 8.27388 29.5184 8.49508V10.4462H22.9464V11.7004H30.769V8.40863C31.4919 8.11086 31.9999 7.39763 31.9999 6.56393C31.9999 5.46243 31.112 4.56835 30.0154 4.56835L30.0156 4.56821ZM0 6.4951V7.75151H4.70689V11.7005H9.14867V10.4461H5.95766V6.49503L0 6.4951ZM10.3971 9.36976V20.7149H21.6978V9.36962H10.3972L10.3971 9.36976ZM11.6388 10.4818H12.8874V16.0645L15.179 18.3664H20.5023V19.6207H14.6598L14.4763 19.4364L13.7162 18.6728C13.6431 19.1974 13.1957 19.6006 12.6534 19.6006C12.0599 19.6006 11.5792 19.1179 11.5792 18.5219C11.5792 17.9762 11.982 17.5289 12.5052 17.4564L11.8225 16.7704L11.639 16.5862V10.4816L11.6388 10.4818ZM15.5238 10.4929H16.7745V14.4219H20.489L20.4892 15.6783H15.5239V10.493L15.5238 10.4929ZM1.62195 13.1521V19.5428C0.809454 19.7922 0.218716 20.5513 0.218716 21.4495C0.218716 22.5509 1.10666 23.445 2.20321 23.445C3.29976 23.445 4.18976 22.551 4.18976 21.4496C4.18976 20.5834 3.6389 19.8468 2.87053 19.5717V14.4062H9.1486V13.1521H1.62195V13.1521ZM22.9464 13.1521V14.4062H26.7627V13.1521H22.9463L22.9464 13.1521ZM30.0155 14.7127C29.2449 14.7127 28.5771 15.1538 28.2477 15.798H22.9463L22.9464 17.0544H28.0599C28.2243 17.9898 29.0375 18.7015 30.0156 18.7015C31.1121 18.7015 32 17.8073 32 16.7059C32 15.6045 31.1121 14.7126 30.0155 14.7126V14.7127ZM5.3322 15.798V17.0544H9.1486V15.798H5.3322ZM6.54536 18.3886V24.3707C5.7323 24.6202 5.13993 25.3793 5.13993 26.2774C5.13993 27.3789 6.03 28.273 7.12655 28.273C8.22303 28.273 9.11076 27.3789 9.11076 26.2774C9.11076 25.4113 8.56161 24.6747 7.7938 24.3996V19.6447H9.14838V18.3884H6.54543L6.54536 18.3886ZM22.9464 18.3886V19.6448H26.1396V26.413C25.3389 26.6704 24.7585 27.4259 24.7585 28.3152C24.7584 29.4166 25.6485 30.3086 26.745 30.3086C27.8416 30.3086 28.7294 29.4166 28.7294 28.3153C28.7294 27.4402 28.1683 26.6973 27.388 26.4285V18.3886H22.9462H22.9464ZM11.4688 21.9711V25.8091H12.7196V21.9711H11.4688ZM14.0478 21.9711V28.1199C13.269 28.3894 12.7084 29.1309 12.7084 30.0044C12.7084 31.1058 13.5986 32 14.6951 32C15.7917 32 16.6796 31.1057 16.6796 30.0044C16.6796 29.1143 16.0995 28.3607 15.2984 28.1042V21.9711H14.0478ZM16.6839 21.9711V25.8091H17.9347L17.9325 21.9711H16.684L16.6839 21.9711ZM19.3777 21.9711V31.9201H20.6261V21.9711H19.3778H19.3777Z"/>
</mask>
<path d="M14.0477 0.000142257V8.11328H15.2984V0H14.0478L14.0477 0.000142257ZM6.39297 0.0444663C5.29642 0.0444663 4.40635 0.938475 4.40635 2.03997C4.40635 3.14146 5.29642 4.03334 6.39297 4.03334C7.28785 4.03334 8.04342 3.43866 8.2912 2.62158H11.4688V8.11328H12.7196V1.36524H8.26235C7.98741 0.595462 7.25383 0.0444663 6.39297 0.0444663ZM20.0583 0.0444663C18.9618 0.0444663 18.0739 0.938475 18.0739 2.03997C18.0739 2.90116 18.6167 3.63464 19.3778 3.91351V8.11321H20.6263V3.95123C21.4463 3.70603 22.045 2.94307 22.045 2.04004C22.045 0.938475 21.1549 0.0444663 20.0584 0.0444663H20.0583ZM16.6839 4.28195V8.11328H17.9325V4.28195H16.684H16.6839ZM30.0156 4.56821C28.919 4.56821 28.029 5.46236 28.029 6.56386C28.029 7.49317 28.6617 8.27388 29.5184 8.49508V10.4462H22.9464V11.7004H30.769V8.40863C31.4919 8.11086 31.9999 7.39763 31.9999 6.56393C31.9999 5.46243 31.112 4.56835 30.0154 4.56835L30.0156 4.56821ZM0 6.4951V7.75151H4.70689V11.7005H9.14867V10.4461H5.95766V6.49503L0 6.4951ZM10.3971 9.36976V20.7149H21.6978V9.36962H10.3972L10.3971 9.36976ZM11.6388 10.4818H12.8874V16.0645L15.179 18.3664H20.5023V19.6207H14.6598L14.4763 19.4364L13.7162 18.6728C13.6431 19.1974 13.1957 19.6006 12.6534 19.6006C12.0599 19.6006 11.5792 19.1179 11.5792 18.5219C11.5792 17.9762 11.982 17.5289 12.5052 17.4564L11.8225 16.7704L11.639 16.5862V10.4816L11.6388 10.4818ZM15.5238 10.4929H16.7745V14.4219H20.489L20.4892 15.6783H15.5239V10.493L15.5238 10.4929ZM1.62195 13.1521V19.5428C0.809454 19.7922 0.218716 20.5513 0.218716 21.4495C0.218716 22.5509 1.10666 23.445 2.20321 23.445C3.29976 23.445 4.18976 22.551 4.18976 21.4496C4.18976 20.5834 3.6389 19.8468 2.87053 19.5717V14.4062H9.1486V13.1521H1.62195V13.1521ZM22.9464 13.1521V14.4062H26.7627V13.1521H22.9463L22.9464 13.1521ZM30.0155 14.7127C29.2449 14.7127 28.5771 15.1538 28.2477 15.798H22.9463L22.9464 17.0544H28.0599C28.2243 17.9898 29.0375 18.7015 30.0156 18.7015C31.1121 18.7015 32 17.8073 32 16.7059C32 15.6045 31.1121 14.7126 30.0155 14.7126V14.7127ZM5.3322 15.798V17.0544H9.1486V15.798H5.3322ZM6.54536 18.3886V24.3707C5.7323 24.6202 5.13993 25.3793 5.13993 26.2774C5.13993 27.3789 6.03 28.273 7.12655 28.273C8.22303 28.273 9.11076 27.3789 9.11076 26.2774C9.11076 25.4113 8.56161 24.6747 7.7938 24.3996V19.6447H9.14838V18.3884H6.54543L6.54536 18.3886ZM22.9464 18.3886V19.6448H26.1396V26.413C25.3389 26.6704 24.7585 27.4259 24.7585 28.3152C24.7584 29.4166 25.6485 30.3086 26.745 30.3086C27.8416 30.3086 28.7294 29.4166 28.7294 28.3153C28.7294 27.4402 28.1683 26.6973 27.388 26.4285V18.3886H22.9462H22.9464ZM11.4688 21.9711V25.8091H12.7196V21.9711H11.4688ZM14.0478 21.9711V28.1199C13.269 28.3894 12.7084 29.1309 12.7084 30.0044C12.7084 31.1058 13.5986 32 14.6951 32C15.7917 32 16.6796 31.1057 16.6796 30.0044C16.6796 29.1143 16.0995 28.3607 15.2984 28.1042V21.9711H14.0478ZM16.6839 21.9711V25.8091H17.9347L17.9325 21.9711H16.684L16.6839 21.9711ZM19.3777 21.9711V31.9201H20.6261V21.9711H19.3778H19.3777Z" fill="white" stroke="#FFA101" stroke-width="0.2" mask="url(#path-1-inside-1_2058_198)"/>
<mask id="path-2-inside-2_2058_198" fill="white">
<path d="M54.4867 0.000142257V8.11328H55.7765V0H54.4867L54.4867 0.000142257ZM46.5928 0.0444663C45.4619 0.0444663 44.5441 0.938475 44.5441 2.03997C44.5441 3.14146 45.4619 4.03334 46.5928 4.03334C47.5156 4.03334 48.2948 3.43866 48.5503 2.62158H51.8272V8.11328H53.1171V1.36524H48.5205C48.237 0.595462 47.4805 0.0444663 46.5928 0.0444663ZM60.6851 0.0444663C59.5543 0.0444663 58.6387 0.938475 58.6387 2.03997C58.6387 2.90116 59.1985 3.63464 59.9834 3.91351V8.11321H61.2708V3.95123C62.1165 3.70603 62.7339 2.94307 62.7339 2.04004C62.7339 0.938475 61.816 0.0444663 60.6852 0.0444663H60.6851ZM57.2052 4.28195V8.11328H58.4928V4.28195H57.2054H57.2052ZM70.9536 4.56821C69.8227 4.56821 68.9049 5.46236 68.9049 6.56386C68.9049 7.49317 69.5574 8.27388 70.4408 8.49508V10.4462H63.6635V11.7004H71.7306V8.40863C72.476 8.11086 72.9999 7.39763 72.9999 6.56393C72.9999 5.46243 72.0842 4.56835 70.9534 4.56835L70.9536 4.56821ZM40 6.4951V7.75151H44.854V11.7005H49.4346V10.4461H46.1438V6.49503L40 6.4951ZM50.722 9.36976V20.7149H62.3758V9.36962H50.7221L50.722 9.36976ZM52.0025 10.4818H53.2901V16.0645L55.6534 18.3664H61.143V19.6207H55.1179L54.9287 19.4364L54.1448 18.6728C54.0695 19.1974 53.6081 19.6006 53.0488 19.6006C52.4368 19.6006 51.9411 19.1179 51.9411 18.5219C51.9411 17.9762 52.3564 17.5289 52.896 17.4564L52.1919 16.7704L52.0028 16.5862V10.4816L52.0025 10.4818ZM56.0089 10.4929H57.2987V14.4219H61.1293L61.1294 15.6783H56.009V10.493L56.0089 10.4929ZM41.6726 13.1521V19.5428C40.8347 19.7922 40.2256 20.5513 40.2256 21.4495C40.2256 22.5509 41.1412 23.445 42.2721 23.445C43.4029 23.445 44.3207 22.551 44.3207 21.4496C44.3207 20.5834 43.7526 19.8468 42.9602 19.5717V14.4062H49.4345V13.1521H41.6726V13.1521ZM63.6635 13.1521V14.4062H67.599V13.1521H63.6634L63.6635 13.1521ZM70.9535 14.7127C70.1588 14.7127 69.4701 15.1538 69.1304 15.798H63.6634L63.6635 17.0544H68.9368C69.1063 17.9898 69.9449 18.7015 70.9536 18.7015C72.0844 18.7015 73 17.8073 73 16.7059C73 15.6045 72.0843 14.7126 70.9535 14.7126V14.7127ZM45.4988 15.798V17.0544H49.4345V15.798H45.4988ZM46.7499 18.3886V24.3707C45.9114 24.6202 45.3006 25.3793 45.3006 26.2774C45.3006 27.3789 46.2184 28.273 47.3493 28.273C48.48 28.273 49.3955 27.3789 49.3955 26.2774C49.3955 25.4113 48.8292 24.6747 48.0374 24.3996V19.6447H49.4343V18.3884H46.75L46.7499 18.3886ZM63.6635 18.3886V19.6448H66.9564V26.413C66.1307 26.6704 65.5322 27.4259 65.5322 28.3152C65.5321 29.4166 66.45 30.3086 67.5808 30.3086C68.7116 30.3086 69.6272 29.4166 69.6272 28.3153C69.6272 27.4402 69.0486 26.6973 68.2439 26.4285V18.3886H63.6633H63.6635ZM51.8272 21.9711V25.8091H53.1171V21.9711H51.8272ZM54.4867 21.9711V28.1199C53.6836 28.3894 53.1056 29.1309 53.1056 30.0044C53.1056 31.1058 54.0235 32 55.1544 32C56.2852 32 57.2008 31.1057 57.2008 30.0044C57.2008 29.1143 56.6026 28.3607 55.7765 28.1042V21.9711H54.4867ZM57.2053 21.9711V25.8091H58.4952L58.4928 21.9711H57.2054L57.2053 21.9711ZM59.9832 21.9711V31.9201H61.2707V21.9711H59.9833H59.9832Z"/>
</mask>
<path d="M54.4867 0.000142257V8.11328H55.7765V0H54.4867L54.4867 0.000142257ZM46.5928 0.0444663C45.4619 0.0444663 44.5441 0.938475 44.5441 2.03997C44.5441 3.14146 45.4619 4.03334 46.5928 4.03334C47.5156 4.03334 48.2948 3.43866 48.5503 2.62158H51.8272V8.11328H53.1171V1.36524H48.5205C48.237 0.595462 47.4805 0.0444663 46.5928 0.0444663ZM60.6851 0.0444663C59.5543 0.0444663 58.6387 0.938475 58.6387 2.03997C58.6387 2.90116 59.1985 3.63464 59.9834 3.91351V8.11321H61.2708V3.95123C62.1165 3.70603 62.7339 2.94307 62.7339 2.04004C62.7339 0.938475 61.816 0.0444663 60.6852 0.0444663H60.6851ZM57.2052 4.28195V8.11328H58.4928V4.28195H57.2054H57.2052ZM70.9536 4.56821C69.8227 4.56821 68.9049 5.46236 68.9049 6.56386C68.9049 7.49317 69.5574 8.27388 70.4408 8.49508V10.4462H63.6635V11.7004H71.7306V8.40863C72.476 8.11086 72.9999 7.39763 72.9999 6.56393C72.9999 5.46243 72.0842 4.56835 70.9534 4.56835L70.9536 4.56821ZM40 6.4951V7.75151H44.854V11.7005H49.4346V10.4461H46.1438V6.49503L40 6.4951ZM50.722 9.36976V20.7149H62.3758V9.36962H50.7221L50.722 9.36976ZM52.0025 10.4818H53.2901V16.0645L55.6534 18.3664H61.143V19.6207H55.1179L54.9287 19.4364L54.1448 18.6728C54.0695 19.1974 53.6081 19.6006 53.0488 19.6006C52.4368 19.6006 51.9411 19.1179 51.9411 18.5219C51.9411 17.9762 52.3564 17.5289 52.896 17.4564L52.1919 16.7704L52.0028 16.5862V10.4816L52.0025 10.4818ZM56.0089 10.4929H57.2987V14.4219H61.1293L61.1294 15.6783H56.009V10.493L56.0089 10.4929ZM41.6726 13.1521V19.5428C40.8347 19.7922 40.2256 20.5513 40.2256 21.4495C40.2256 22.5509 41.1412 23.445 42.2721 23.445C43.4029 23.445 44.3207 22.551 44.3207 21.4496C44.3207 20.5834 43.7526 19.8468 42.9602 19.5717V14.4062H49.4345V13.1521H41.6726V13.1521ZM63.6635 13.1521V14.4062H67.599V13.1521H63.6634L63.6635 13.1521ZM70.9535 14.7127C70.1588 14.7127 69.4701 15.1538 69.1304 15.798H63.6634L63.6635 17.0544H68.9368C69.1063 17.9898 69.9449 18.7015 70.9536 18.7015C72.0844 18.7015 73 17.8073 73 16.7059C73 15.6045 72.0843 14.7126 70.9535 14.7126V14.7127ZM45.4988 15.798V17.0544H49.4345V15.798H45.4988ZM46.7499 18.3886V24.3707C45.9114 24.6202 45.3006 25.3793 45.3006 26.2774C45.3006 27.3789 46.2184 28.273 47.3493 28.273C48.48 28.273 49.3955 27.3789 49.3955 26.2774C49.3955 25.4113 48.8292 24.6747 48.0374 24.3996V19.6447H49.4343V18.3884H46.75L46.7499 18.3886ZM63.6635 18.3886V19.6448H66.9564V26.413C66.1307 26.6704 65.5322 27.4259 65.5322 28.3152C65.5321 29.4166 66.45 30.3086 67.5808 30.3086C68.7116 30.3086 69.6272 29.4166 69.6272 28.3153C69.6272 27.4402 69.0486 26.6973 68.2439 26.4285V18.3886H63.6633H63.6635ZM51.8272 21.9711V25.8091H53.1171V21.9711H51.8272ZM54.4867 21.9711V28.1199C53.6836 28.3894 53.1056 29.1309 53.1056 30.0044C53.1056 31.1058 54.0235 32 55.1544 32C56.2852 32 57.2008 31.1057 57.2008 30.0044C57.2008 29.1143 56.6026 28.3607 55.7765 28.1042V21.9711H54.4867ZM57.2053 21.9711V25.8091H58.4952L58.4928 21.9711H57.2054L57.2053 21.9711ZM59.9832 21.9711V31.9201H61.2707V21.9711H59.9833H59.9832Z" fill="white" stroke="#FFA101" stroke-width="0.2" mask="url(#path-2-inside-2_2058_198)"/>
</svg>
