<svg width="70" height="65" viewBox="0 0 70 65" fill="none" xmlns="http://www.w3.org/2000/svg">
<mask id="path-1-inside-1_2058_199" fill="white">
<path d="M13.6087 0.000142257V8.11328H14.8203V0H13.6088L13.6087 0.000142257ZM6.19319 0.0444663C5.13091 0.0444663 4.26866 0.938475 4.26866 2.03997C4.26866 3.14146 5.13091 4.03334 6.19319 4.03334C7.0601 4.03334 7.79206 3.43866 8.0321 2.62158H11.1104V8.11328H12.3221V1.36524H8.00415C7.73781 0.595462 7.02715 0.0444663 6.19319 0.0444663ZM19.4315 0.0444663C18.3692 0.0444663 17.5091 0.938475 17.5091 2.03997C17.5091 2.90116 18.035 3.63464 18.7723 3.91351V8.11321H19.9817V3.95123C20.7761 3.70603 21.3561 2.94307 21.3561 2.04004C21.3561 0.938475 20.4938 0.0444663 19.4315 0.0444663H19.4315ZM16.1625 4.28195V8.11328H17.3721V4.28195H16.1626H16.1625ZM29.0776 4.56821C28.0153 4.56821 27.1531 5.46236 27.1531 6.56386C27.1531 7.49317 27.766 8.27388 28.5959 8.49508V10.4462H22.2294V11.7004H29.8075V8.40863C30.5078 8.11086 30.9999 7.39763 30.9999 6.56393C30.9999 5.46243 30.1397 4.56835 29.0775 4.56835L29.0776 4.56821ZM0 6.4951V7.75151H4.5598V11.7005H8.86277V10.4461H5.77148V6.49503L0 6.4951ZM10.0722 9.36976V20.7149H21.0197V9.36962H10.0723L10.0722 9.36976ZM11.2751 10.4818H12.4847V16.0645L14.7047 18.3664H19.8616V19.6207H14.2017L14.024 19.4364L13.2875 18.6728C13.2168 19.1974 12.7834 19.6006 12.2579 19.6006C11.6831 19.6006 11.2174 19.1179 11.2174 18.5219C11.2174 17.9762 11.6076 17.5289 12.1144 17.4564L11.453 16.7704L11.2753 16.5862V10.4816L11.2751 10.4818ZM15.0387 10.4929H16.2503V14.4219H19.8487L19.8489 15.6783H15.0388V10.493L15.0387 10.4929ZM1.57126 13.1521V19.5428C0.784159 19.7922 0.211881 20.5513 0.211881 21.4495C0.211881 22.5509 1.07208 23.445 2.13436 23.445C3.19665 23.445 4.05883 22.551 4.05883 21.4496C4.05883 20.5834 3.52519 19.8468 2.78083 19.5717V14.4062H8.8627V13.1521H1.57126V13.1521ZM22.2294 13.1521V14.4062H25.9264V13.1521H22.2292L22.2294 13.1521ZM29.0775 14.7127C28.331 14.7127 27.684 15.1538 27.3649 15.798H22.2292L22.2294 17.0544H27.1831C27.3423 17.9898 28.13 18.7015 29.0776 18.7015C30.1399 18.7015 31 17.8073 31 16.7059C31 15.6045 30.1398 14.7126 29.0775 14.7126V14.7127ZM5.16557 15.798V17.0544H8.8627V15.798H5.16557ZM6.34082 18.3886V24.3707C5.55316 24.6202 4.97931 25.3793 4.97931 26.2774C4.97931 27.3789 5.84156 28.273 6.90385 28.273C7.96606 28.273 8.82605 27.3789 8.82605 26.2774C8.82605 25.4113 8.29406 24.6747 7.55025 24.3996V19.6447H8.8625V18.3884H6.34088L6.34082 18.3886ZM22.2294 18.3886V19.6448H25.3227V26.413C24.547 26.6704 23.9848 27.4259 23.9848 28.3152C23.9847 29.4166 24.847 30.3086 25.9092 30.3086C26.9715 30.3086 27.8316 29.4166 27.8316 28.3153C27.8316 27.4402 27.2881 26.6973 26.5321 26.4285V18.3886H22.2292H22.2294ZM11.1104 21.9711V25.8091H12.3221V21.9711H11.1104ZM13.6088 21.9711V28.1199C12.8543 28.3894 12.3113 29.1309 12.3113 30.0044C12.3113 31.1058 13.1736 32 14.2359 32C15.2982 32 16.1583 31.1057 16.1583 30.0044C16.1583 29.1143 15.5964 28.3607 14.8203 28.1042V21.9711H13.6088ZM16.1626 21.9711V25.8091H17.3743L17.3721 21.9711H16.1626L16.1626 21.9711ZM18.7721 21.9711V31.9201H19.9816V21.9711H18.7722H18.7721Z"/>
</mask>
<path d="M13.6087 0.000142257V8.11328H14.8203V0H13.6088L13.6087 0.000142257ZM6.19319 0.0444663C5.13091 0.0444663 4.26866 0.938475 4.26866 2.03997C4.26866 3.14146 5.13091 4.03334 6.19319 4.03334C7.0601 4.03334 7.79206 3.43866 8.0321 2.62158H11.1104V8.11328H12.3221V1.36524H8.00415C7.73781 0.595462 7.02715 0.0444663 6.19319 0.0444663ZM19.4315 0.0444663C18.3692 0.0444663 17.5091 0.938475 17.5091 2.03997C17.5091 2.90116 18.035 3.63464 18.7723 3.91351V8.11321H19.9817V3.95123C20.7761 3.70603 21.3561 2.94307 21.3561 2.04004C21.3561 0.938475 20.4938 0.0444663 19.4315 0.0444663H19.4315ZM16.1625 4.28195V8.11328H17.3721V4.28195H16.1626H16.1625ZM29.0776 4.56821C28.0153 4.56821 27.1531 5.46236 27.1531 6.56386C27.1531 7.49317 27.766 8.27388 28.5959 8.49508V10.4462H22.2294V11.7004H29.8075V8.40863C30.5078 8.11086 30.9999 7.39763 30.9999 6.56393C30.9999 5.46243 30.1397 4.56835 29.0775 4.56835L29.0776 4.56821ZM0 6.4951V7.75151H4.5598V11.7005H8.86277V10.4461H5.77148V6.49503L0 6.4951ZM10.0722 9.36976V20.7149H21.0197V9.36962H10.0723L10.0722 9.36976ZM11.2751 10.4818H12.4847V16.0645L14.7047 18.3664H19.8616V19.6207H14.2017L14.024 19.4364L13.2875 18.6728C13.2168 19.1974 12.7834 19.6006 12.2579 19.6006C11.6831 19.6006 11.2174 19.1179 11.2174 18.5219C11.2174 17.9762 11.6076 17.5289 12.1144 17.4564L11.453 16.7704L11.2753 16.5862V10.4816L11.2751 10.4818ZM15.0387 10.4929H16.2503V14.4219H19.8487L19.8489 15.6783H15.0388V10.493L15.0387 10.4929ZM1.57126 13.1521V19.5428C0.784159 19.7922 0.211881 20.5513 0.211881 21.4495C0.211881 22.5509 1.07208 23.445 2.13436 23.445C3.19665 23.445 4.05883 22.551 4.05883 21.4496C4.05883 20.5834 3.52519 19.8468 2.78083 19.5717V14.4062H8.8627V13.1521H1.57126V13.1521ZM22.2294 13.1521V14.4062H25.9264V13.1521H22.2292L22.2294 13.1521ZM29.0775 14.7127C28.331 14.7127 27.684 15.1538 27.3649 15.798H22.2292L22.2294 17.0544H27.1831C27.3423 17.9898 28.13 18.7015 29.0776 18.7015C30.1399 18.7015 31 17.8073 31 16.7059C31 15.6045 30.1398 14.7126 29.0775 14.7126V14.7127ZM5.16557 15.798V17.0544H8.8627V15.798H5.16557ZM6.34082 18.3886V24.3707C5.55316 24.6202 4.97931 25.3793 4.97931 26.2774C4.97931 27.3789 5.84156 28.273 6.90385 28.273C7.96606 28.273 8.82605 27.3789 8.82605 26.2774C8.82605 25.4113 8.29406 24.6747 7.55025 24.3996V19.6447H8.8625V18.3884H6.34088L6.34082 18.3886ZM22.2294 18.3886V19.6448H25.3227V26.413C24.547 26.6704 23.9848 27.4259 23.9848 28.3152C23.9847 29.4166 24.847 30.3086 25.9092 30.3086C26.9715 30.3086 27.8316 29.4166 27.8316 28.3153C27.8316 27.4402 27.2881 26.6973 26.5321 26.4285V18.3886H22.2292H22.2294ZM11.1104 21.9711V25.8091H12.3221V21.9711H11.1104ZM13.6088 21.9711V28.1199C12.8543 28.3894 12.3113 29.1309 12.3113 30.0044C12.3113 31.1058 13.1736 32 14.2359 32C15.2982 32 16.1583 31.1057 16.1583 30.0044C16.1583 29.1143 15.5964 28.3607 14.8203 28.1042V21.9711H13.6088ZM16.1626 21.9711V25.8091H17.3743L17.3721 21.9711H16.1626L16.1626 21.9711ZM18.7721 21.9711V31.9201H19.9816V21.9711H18.7722H18.7721Z" fill="white" stroke="#FFA101" stroke-width="0.2" mask="url(#path-1-inside-1_2058_199)"/>
<mask id="path-2-inside-2_2058_199" fill="white">
<path d="M52.6087 0.000142257V8.11328H53.8203V0H52.6088L52.6087 0.000142257ZM45.1932 0.0444663C44.1309 0.0444663 43.2687 0.938475 43.2687 2.03997C43.2687 3.14146 44.1309 4.03334 45.1932 4.03334C46.0601 4.03334 46.7921 3.43866 47.0321 2.62158H50.1104V8.11328H51.3221V1.36524H47.0041C46.7378 0.595462 46.0272 0.0444663 45.1932 0.0444663ZM58.4315 0.0444663C57.3692 0.0444663 56.5091 0.938475 56.5091 2.03997C56.5091 2.90116 57.035 3.63464 57.7723 3.91351V8.11321H58.9817V3.95123C59.7761 3.70603 60.3561 2.94307 60.3561 2.04004C60.3561 0.938475 59.4938 0.0444663 58.4315 0.0444663H58.4315ZM55.1625 4.28195V8.11328H56.3721V4.28195H55.1626H55.1625ZM68.0776 4.56821C67.0153 4.56821 66.1531 5.46236 66.1531 6.56386C66.1531 7.49317 66.766 8.27388 67.5959 8.49508V10.4462H61.2294V11.7004H68.8075V8.40863C69.5078 8.11086 69.9999 7.39763 69.9999 6.56393C69.9999 5.46243 69.1397 4.56835 68.0775 4.56835L68.0776 4.56821ZM39 6.4951V7.75151H43.5598V11.7005H47.8628V10.4461H44.7715V6.49503L39 6.4951ZM49.0722 9.36976V20.7149H60.0197V9.36962H49.0723L49.0722 9.36976ZM50.2751 10.4818H51.4847V16.0645L53.7047 18.3664H58.8616V19.6207H53.2017L53.024 19.4364L52.2875 18.6728C52.2168 19.1974 51.7834 19.6006 51.2579 19.6006C50.6831 19.6006 50.2174 19.1179 50.2174 18.5219C50.2174 17.9762 50.6076 17.5289 51.1144 17.4564L50.453 16.7704L50.2753 16.5862V10.4816L50.2751 10.4818ZM54.0387 10.4929H55.2503V14.4219H58.8487L58.8489 15.6783H54.0388V10.493L54.0387 10.4929ZM40.5713 13.1521V19.5428C39.7842 19.7922 39.2119 20.5513 39.2119 21.4495C39.2119 22.5509 40.0721 23.445 41.1344 23.445C42.1966 23.445 43.0588 22.551 43.0588 21.4496C43.0588 20.5834 42.5252 19.8468 41.7808 19.5717V14.4062H47.8627V13.1521H40.5713V13.1521ZM61.2294 13.1521V14.4062H64.9264V13.1521H61.2292L61.2294 13.1521ZM68.0775 14.7127C67.331 14.7127 66.684 15.1538 66.3649 15.798H61.2292L61.2294 17.0544H66.1831C66.3423 17.9898 67.13 18.7015 68.0776 18.7015C69.1399 18.7015 70 17.8073 70 16.7059C70 15.6045 69.1398 14.7126 68.0775 14.7126V14.7127ZM44.1656 15.798V17.0544H47.8627V15.798H44.1656ZM45.3408 18.3886V24.3707C44.5532 24.6202 43.9793 25.3793 43.9793 26.2774C43.9793 27.3789 44.8416 28.273 45.9038 28.273C46.9661 28.273 47.8261 27.3789 47.8261 26.2774C47.8261 25.4113 47.2941 24.6747 46.5502 24.3996V19.6447H47.8625V18.3884H45.3409L45.3408 18.3886ZM61.2294 18.3886V19.6448H64.3227V26.413C63.547 26.6704 62.9848 27.4259 62.9848 28.3152C62.9847 29.4166 63.847 30.3086 64.9092 30.3086C65.9715 30.3086 66.8316 29.4166 66.8316 28.3153C66.8316 27.4402 66.2881 26.6973 65.5321 26.4285V18.3886H61.2292H61.2294ZM50.1104 21.9711V25.8091H51.3221V21.9711H50.1104ZM52.6088 21.9711V28.1199C51.8543 28.3894 51.3113 29.1309 51.3113 30.0044C51.3113 31.1058 52.1736 32 53.2359 32C54.2982 32 55.1583 31.1057 55.1583 30.0044C55.1583 29.1143 54.5964 28.3607 53.8203 28.1042V21.9711H52.6088ZM55.1626 21.9711V25.8091H56.3743L56.3721 21.9711H55.1626L55.1626 21.9711ZM57.7721 21.9711V31.9201H58.9816V21.9711H57.7722H57.7721Z"/>
</mask>
<path d="M52.6087 0.000142257V8.11328H53.8203V0H52.6088L52.6087 0.000142257ZM45.1932 0.0444663C44.1309 0.0444663 43.2687 0.938475 43.2687 2.03997C43.2687 3.14146 44.1309 4.03334 45.1932 4.03334C46.0601 4.03334 46.7921 3.43866 47.0321 2.62158H50.1104V8.11328H51.3221V1.36524H47.0041C46.7378 0.595462 46.0272 0.0444663 45.1932 0.0444663ZM58.4315 0.0444663C57.3692 0.0444663 56.5091 0.938475 56.5091 2.03997C56.5091 2.90116 57.035 3.63464 57.7723 3.91351V8.11321H58.9817V3.95123C59.7761 3.70603 60.3561 2.94307 60.3561 2.04004C60.3561 0.938475 59.4938 0.0444663 58.4315 0.0444663H58.4315ZM55.1625 4.28195V8.11328H56.3721V4.28195H55.1626H55.1625ZM68.0776 4.56821C67.0153 4.56821 66.1531 5.46236 66.1531 6.56386C66.1531 7.49317 66.766 8.27388 67.5959 8.49508V10.4462H61.2294V11.7004H68.8075V8.40863C69.5078 8.11086 69.9999 7.39763 69.9999 6.56393C69.9999 5.46243 69.1397 4.56835 68.0775 4.56835L68.0776 4.56821ZM39 6.4951V7.75151H43.5598V11.7005H47.8628V10.4461H44.7715V6.49503L39 6.4951ZM49.0722 9.36976V20.7149H60.0197V9.36962H49.0723L49.0722 9.36976ZM50.2751 10.4818H51.4847V16.0645L53.7047 18.3664H58.8616V19.6207H53.2017L53.024 19.4364L52.2875 18.6728C52.2168 19.1974 51.7834 19.6006 51.2579 19.6006C50.6831 19.6006 50.2174 19.1179 50.2174 18.5219C50.2174 17.9762 50.6076 17.5289 51.1144 17.4564L50.453 16.7704L50.2753 16.5862V10.4816L50.2751 10.4818ZM54.0387 10.4929H55.2503V14.4219H58.8487L58.8489 15.6783H54.0388V10.493L54.0387 10.4929ZM40.5713 13.1521V19.5428C39.7842 19.7922 39.2119 20.5513 39.2119 21.4495C39.2119 22.5509 40.0721 23.445 41.1344 23.445C42.1966 23.445 43.0588 22.551 43.0588 21.4496C43.0588 20.5834 42.5252 19.8468 41.7808 19.5717V14.4062H47.8627V13.1521H40.5713V13.1521ZM61.2294 13.1521V14.4062H64.9264V13.1521H61.2292L61.2294 13.1521ZM68.0775 14.7127C67.331 14.7127 66.684 15.1538 66.3649 15.798H61.2292L61.2294 17.0544H66.1831C66.3423 17.9898 67.13 18.7015 68.0776 18.7015C69.1399 18.7015 70 17.8073 70 16.7059C70 15.6045 69.1398 14.7126 68.0775 14.7126V14.7127ZM44.1656 15.798V17.0544H47.8627V15.798H44.1656ZM45.3408 18.3886V24.3707C44.5532 24.6202 43.9793 25.3793 43.9793 26.2774C43.9793 27.3789 44.8416 28.273 45.9038 28.273C46.9661 28.273 47.8261 27.3789 47.8261 26.2774C47.8261 25.4113 47.2941 24.6747 46.5502 24.3996V19.6447H47.8625V18.3884H45.3409L45.3408 18.3886ZM61.2294 18.3886V19.6448H64.3227V26.413C63.547 26.6704 62.9848 27.4259 62.9848 28.3152C62.9847 29.4166 63.847 30.3086 64.9092 30.3086C65.9715 30.3086 66.8316 29.4166 66.8316 28.3153C66.8316 27.4402 66.2881 26.6973 65.5321 26.4285V18.3886H61.2292H61.2294ZM50.1104 21.9711V25.8091H51.3221V21.9711H50.1104ZM52.6088 21.9711V28.1199C51.8543 28.3894 51.3113 29.1309 51.3113 30.0044C51.3113 31.1058 52.1736 32 53.2359 32C54.2982 32 55.1583 31.1057 55.1583 30.0044C55.1583 29.1143 54.5964 28.3607 53.8203 28.1042V21.9711H52.6088ZM55.1626 21.9711V25.8091H56.3743L56.3721 21.9711H55.1626L55.1626 21.9711ZM57.7721 21.9711V31.9201H58.9816V21.9711H57.7722H57.7721Z" fill="white" stroke="#FFA101" stroke-width="0.2" mask="url(#path-2-inside-2_2058_199)"/>
<mask id="path-3-inside-3_2058_199" fill="white">
<path d="M32.4867 33.0001V41.1133H33.7765V33H32.4867L32.4867 33.0001ZM24.5928 33.0445C23.4619 33.0445 22.5441 33.9385 22.5441 35.04C22.5441 36.1415 23.4619 37.0333 24.5928 37.0333C25.5156 37.0333 26.2948 36.4387 26.5503 35.6216H29.8272V41.1133H31.1171V34.3652H26.5205C26.237 33.5955 25.4805 33.0445 24.5928 33.0445ZM38.6851 33.0445C37.5543 33.0445 36.6387 33.9385 36.6387 35.04C36.6387 35.9012 37.1985 36.6346 37.9834 36.9135V41.1132H39.2708V36.9512C40.1165 36.706 40.7339 35.9431 40.7339 35.04C40.7339 33.9385 39.816 33.0445 38.6852 33.0445H38.6851ZM35.2052 37.282V41.1133H36.4928V37.282H35.2054H35.2052ZM48.9536 37.5682C47.8227 37.5682 46.9049 38.4624 46.9049 39.5639C46.9049 40.4932 47.5574 41.2739 48.4408 41.4951V43.4462H41.6635V44.7004H49.7306V41.4086C50.476 41.1109 50.9999 40.3976 50.9999 39.5639C50.9999 38.4624 50.0842 37.5684 48.9534 37.5684L48.9536 37.5682ZM18 39.4951V40.7515H22.854V44.7005H27.4346V43.4461H24.1438V39.495L18 39.4951ZM28.722 42.3698V53.7149H40.3758V42.3696H28.7221L28.722 42.3698ZM30.0025 43.4818H31.2901V49.0645L33.6534 51.3664H39.143V52.6207H33.1179L32.9287 52.4364L32.1448 51.6728C32.0695 52.1974 31.6081 52.6006 31.0488 52.6006C30.4368 52.6006 29.9411 52.1179 29.9411 51.5219C29.9411 50.9762 30.3564 50.5289 30.896 50.4564L30.1919 49.7704L30.0028 49.5862V43.4816L30.0025 43.4818ZM34.0089 43.4929H35.2987V47.4219H39.1293L39.1294 48.6783H34.009V43.493L34.0089 43.4929ZM19.6726 46.1521V52.5428C18.8347 52.7922 18.2256 53.5513 18.2256 54.4495C18.2256 55.5509 19.1412 56.445 20.2721 56.445C21.4029 56.445 22.3207 55.551 22.3207 54.4496C22.3207 53.5834 21.7526 52.8468 20.9602 52.5717V47.4062H27.4345V46.1521H19.6726V46.1521ZM41.6635 46.1521V47.4062H45.599V46.1521H41.6634L41.6635 46.1521ZM48.9535 47.7127C48.1588 47.7127 47.4701 48.1538 47.1304 48.798H41.6634L41.6635 50.0544H46.9368C47.1063 50.9898 47.9449 51.7015 48.9536 51.7015C50.0844 51.7015 51 50.8073 51 49.7059C51 48.6045 50.0843 47.7126 48.9535 47.7126V47.7127ZM23.4988 48.798V50.0544H27.4345V48.798H23.4988ZM24.7499 51.3886V57.3707C23.9114 57.6202 23.3006 58.3793 23.3006 59.2774C23.3006 60.3789 24.2184 61.273 25.3493 61.273C26.48 61.273 27.3955 60.3789 27.3955 59.2774C27.3955 58.4113 26.8292 57.6747 26.0374 57.3996V52.6447H27.4343V51.3884H24.75L24.7499 51.3886ZM41.6635 51.3886V52.6448H44.9564V59.413C44.1307 59.6704 43.5322 60.4259 43.5322 61.3152C43.5321 62.4166 44.45 63.3086 45.5808 63.3086C46.7116 63.3086 47.6272 62.4166 47.6272 61.3153C47.6272 60.4402 47.0486 59.6973 46.2439 59.4285V51.3886H41.6633H41.6635ZM29.8272 54.9711V58.8091H31.1171V54.9711H29.8272ZM32.4867 54.9711V61.1199C31.6836 61.3894 31.1056 62.1309 31.1056 63.0044C31.1056 64.1058 32.0235 65 33.1544 65C34.2852 65 35.2008 64.1057 35.2008 63.0044C35.2008 62.1143 34.6026 61.3607 33.7765 61.1042V54.9711H32.4867ZM35.2053 54.9711V58.8091H36.4952L36.4928 54.9711H35.2054L35.2053 54.9711ZM37.9832 54.9711V64.9201H39.2707V54.9711H37.9833H37.9832Z"/>
</mask>
<path d="M32.4867 33.0001V41.1133H33.7765V33H32.4867L32.4867 33.0001ZM24.5928 33.0445C23.4619 33.0445 22.5441 33.9385 22.5441 35.04C22.5441 36.1415 23.4619 37.0333 24.5928 37.0333C25.5156 37.0333 26.2948 36.4387 26.5503 35.6216H29.8272V41.1133H31.1171V34.3652H26.5205C26.237 33.5955 25.4805 33.0445 24.5928 33.0445ZM38.6851 33.0445C37.5543 33.0445 36.6387 33.9385 36.6387 35.04C36.6387 35.9012 37.1985 36.6346 37.9834 36.9135V41.1132H39.2708V36.9512C40.1165 36.706 40.7339 35.9431 40.7339 35.04C40.7339 33.9385 39.816 33.0445 38.6852 33.0445H38.6851ZM35.2052 37.282V41.1133H36.4928V37.282H35.2054H35.2052ZM48.9536 37.5682C47.8227 37.5682 46.9049 38.4624 46.9049 39.5639C46.9049 40.4932 47.5574 41.2739 48.4408 41.4951V43.4462H41.6635V44.7004H49.7306V41.4086C50.476 41.1109 50.9999 40.3976 50.9999 39.5639C50.9999 38.4624 50.0842 37.5684 48.9534 37.5684L48.9536 37.5682ZM18 39.4951V40.7515H22.854V44.7005H27.4346V43.4461H24.1438V39.495L18 39.4951ZM28.722 42.3698V53.7149H40.3758V42.3696H28.7221L28.722 42.3698ZM30.0025 43.4818H31.2901V49.0645L33.6534 51.3664H39.143V52.6207H33.1179L32.9287 52.4364L32.1448 51.6728C32.0695 52.1974 31.6081 52.6006 31.0488 52.6006C30.4368 52.6006 29.9411 52.1179 29.9411 51.5219C29.9411 50.9762 30.3564 50.5289 30.896 50.4564L30.1919 49.7704L30.0028 49.5862V43.4816L30.0025 43.4818ZM34.0089 43.4929H35.2987V47.4219H39.1293L39.1294 48.6783H34.009V43.493L34.0089 43.4929ZM19.6726 46.1521V52.5428C18.8347 52.7922 18.2256 53.5513 18.2256 54.4495C18.2256 55.5509 19.1412 56.445 20.2721 56.445C21.4029 56.445 22.3207 55.551 22.3207 54.4496C22.3207 53.5834 21.7526 52.8468 20.9602 52.5717V47.4062H27.4345V46.1521H19.6726V46.1521ZM41.6635 46.1521V47.4062H45.599V46.1521H41.6634L41.6635 46.1521ZM48.9535 47.7127C48.1588 47.7127 47.4701 48.1538 47.1304 48.798H41.6634L41.6635 50.0544H46.9368C47.1063 50.9898 47.9449 51.7015 48.9536 51.7015C50.0844 51.7015 51 50.8073 51 49.7059C51 48.6045 50.0843 47.7126 48.9535 47.7126V47.7127ZM23.4988 48.798V50.0544H27.4345V48.798H23.4988ZM24.7499 51.3886V57.3707C23.9114 57.6202 23.3006 58.3793 23.3006 59.2774C23.3006 60.3789 24.2184 61.273 25.3493 61.273C26.48 61.273 27.3955 60.3789 27.3955 59.2774C27.3955 58.4113 26.8292 57.6747 26.0374 57.3996V52.6447H27.4343V51.3884H24.75L24.7499 51.3886ZM41.6635 51.3886V52.6448H44.9564V59.413C44.1307 59.6704 43.5322 60.4259 43.5322 61.3152C43.5321 62.4166 44.45 63.3086 45.5808 63.3086C46.7116 63.3086 47.6272 62.4166 47.6272 61.3153C47.6272 60.4402 47.0486 59.6973 46.2439 59.4285V51.3886H41.6633H41.6635ZM29.8272 54.9711V58.8091H31.1171V54.9711H29.8272ZM32.4867 54.9711V61.1199C31.6836 61.3894 31.1056 62.1309 31.1056 63.0044C31.1056 64.1058 32.0235 65 33.1544 65C34.2852 65 35.2008 64.1057 35.2008 63.0044C35.2008 62.1143 34.6026 61.3607 33.7765 61.1042V54.9711H32.4867ZM35.2053 54.9711V58.8091H36.4952L36.4928 54.9711H35.2054L35.2053 54.9711ZM37.9832 54.9711V64.9201H39.2707V54.9711H37.9833H37.9832Z" fill="white" stroke="#FFA101" stroke-width="0.2" mask="url(#path-3-inside-3_2058_199)"/>
</svg>
