<svg width="72" height="67" viewBox="0 0 72 67" fill="none" xmlns="http://www.w3.org/2000/svg">
<mask id="path-1-inside-1_2058_200" fill="white">
<path d="M13.6087 0.000137811V7.85974H14.8203V0H13.6088L13.6087 0.000137811ZM6.19319 0.0430767C5.13091 0.0430767 4.26866 0.909148 4.26866 1.97622C4.26866 3.04329 5.13091 3.9073 6.19319 3.9073C7.0601 3.9073 7.79206 3.3312 8.0321 2.53965H11.1104V7.85974H12.3221V1.32257H8.00415C7.73781 0.576853 7.02715 0.0430767 6.19319 0.0430767ZM19.4315 0.0430767C18.3692 0.0430767 17.5091 0.909148 17.5091 1.97622C17.5091 2.8105 18.035 3.52106 18.7723 3.79121V7.85967H19.9817V3.82775C20.7761 3.59021 21.3561 2.8511 21.3561 1.97629C21.3561 0.909148 20.4938 0.0430767 19.4315 0.0430767H19.4315ZM16.1625 4.14814V7.85974H17.3721V4.14814H16.1626H16.1625ZM29.0776 4.42545C28.0153 4.42545 27.1531 5.29166 27.1531 6.35874C27.1531 7.25901 27.766 8.01532 28.5959 8.2296V10.1197H22.2294V11.3348H29.8075V8.14586C30.5078 7.8574 30.9999 7.16645 30.9999 6.3588C30.9999 5.29173 30.1397 4.42559 29.0775 4.42559L29.0776 4.42545ZM0 6.29213V7.50928H4.5598V11.3348H8.86277V10.1197H5.77148V6.29206L0 6.29213ZM10.0722 9.07696V20.0675H21.0197V9.07682H10.0723L10.0722 9.07696ZM11.2751 10.1542H12.4847V15.5625L14.7047 17.7924H19.8616V19.0075H14.2017L14.024 18.829L13.2875 18.0893C13.2168 18.5975 12.7834 18.9881 12.2579 18.9881C11.6831 18.9881 11.2174 18.5205 11.2174 17.9431C11.2174 17.4145 11.6076 16.9811 12.1144 16.9109L11.453 16.2463L11.2753 16.0679V10.1541L11.2751 10.1542ZM15.0387 10.165H16.2503V13.9712H19.8487L19.8489 15.1884H15.0388V10.1651L15.0387 10.165ZM1.57126 12.7411V18.932C0.784159 19.1737 0.211881 19.909 0.211881 20.7792C0.211881 21.8462 1.07208 22.7124 2.13436 22.7124C3.19665 22.7124 4.05883 21.8462 4.05883 20.7793C4.05883 19.9401 3.52519 19.2266 2.78083 18.9601V13.956H8.8627V12.7411H1.57126V12.7411ZM22.2294 12.7411V13.956H25.9264V12.7411H22.2292L22.2294 12.7411ZM29.0775 14.2529C28.331 14.2529 27.684 14.6802 27.3649 15.3043H22.2292L22.2294 16.5215H27.1831C27.3423 17.4276 28.13 18.117 29.0776 18.117C30.1399 18.117 31 17.2508 31 16.1838C31 15.1168 30.1398 14.2528 29.0775 14.2528V14.2529ZM5.16557 15.3043V16.5215H8.8627V15.3043H5.16557ZM6.34082 17.8139V23.6091C5.55316 23.8508 4.97931 24.5862 4.97931 25.4563C4.97931 26.5233 5.84156 27.3895 6.90385 27.3895C7.96606 27.3895 8.82605 26.5233 8.82605 25.4563C8.82605 24.6172 8.29406 23.9036 7.55025 23.6371V19.0308H8.8625V17.8138H6.34088L6.34082 17.8139ZM22.2294 17.8139V19.0309H25.3227V25.5876C24.547 25.8369 23.9848 26.5688 23.9848 27.4304C23.9847 28.4974 24.847 29.3614 25.9092 29.3614C26.9715 29.3614 27.8316 28.4974 27.8316 27.4304C27.8316 26.5827 27.2881 25.863 26.5321 25.6026V17.8139H22.2292H22.2294ZM11.1104 21.2845V25.0026H12.3221V21.2845H11.1104ZM13.6088 21.2845V27.2411C12.8543 27.5022 12.3113 28.2205 12.3113 29.0667C12.3113 30.1337 13.1736 31 14.2359 31C15.2982 31 16.1583 30.1337 16.1583 29.0667C16.1583 28.2045 15.5964 27.4744 14.8203 27.226V21.2845H13.6088ZM16.1626 21.2845V25.0026H17.3743L17.3721 21.2845H16.1626L16.1626 21.2845ZM18.7721 21.2845V30.9226H19.9816V21.2845H18.7722H18.7721Z"/>
</mask>
<path d="M13.6087 0.000137811V7.85974H14.8203V0H13.6088L13.6087 0.000137811ZM6.19319 0.0430767C5.13091 0.0430767 4.26866 0.909148 4.26866 1.97622C4.26866 3.04329 5.13091 3.9073 6.19319 3.9073C7.0601 3.9073 7.79206 3.3312 8.0321 2.53965H11.1104V7.85974H12.3221V1.32257H8.00415C7.73781 0.576853 7.02715 0.0430767 6.19319 0.0430767ZM19.4315 0.0430767C18.3692 0.0430767 17.5091 0.909148 17.5091 1.97622C17.5091 2.8105 18.035 3.52106 18.7723 3.79121V7.85967H19.9817V3.82775C20.7761 3.59021 21.3561 2.8511 21.3561 1.97629C21.3561 0.909148 20.4938 0.0430767 19.4315 0.0430767H19.4315ZM16.1625 4.14814V7.85974H17.3721V4.14814H16.1626H16.1625ZM29.0776 4.42545C28.0153 4.42545 27.1531 5.29166 27.1531 6.35874C27.1531 7.25901 27.766 8.01532 28.5959 8.2296V10.1197H22.2294V11.3348H29.8075V8.14586C30.5078 7.8574 30.9999 7.16645 30.9999 6.3588C30.9999 5.29173 30.1397 4.42559 29.0775 4.42559L29.0776 4.42545ZM0 6.29213V7.50928H4.5598V11.3348H8.86277V10.1197H5.77148V6.29206L0 6.29213ZM10.0722 9.07696V20.0675H21.0197V9.07682H10.0723L10.0722 9.07696ZM11.2751 10.1542H12.4847V15.5625L14.7047 17.7924H19.8616V19.0075H14.2017L14.024 18.829L13.2875 18.0893C13.2168 18.5975 12.7834 18.9881 12.2579 18.9881C11.6831 18.9881 11.2174 18.5205 11.2174 17.9431C11.2174 17.4145 11.6076 16.9811 12.1144 16.9109L11.453 16.2463L11.2753 16.0679V10.1541L11.2751 10.1542ZM15.0387 10.165H16.2503V13.9712H19.8487L19.8489 15.1884H15.0388V10.1651L15.0387 10.165ZM1.57126 12.7411V18.932C0.784159 19.1737 0.211881 19.909 0.211881 20.7792C0.211881 21.8462 1.07208 22.7124 2.13436 22.7124C3.19665 22.7124 4.05883 21.8462 4.05883 20.7793C4.05883 19.9401 3.52519 19.2266 2.78083 18.9601V13.956H8.8627V12.7411H1.57126V12.7411ZM22.2294 12.7411V13.956H25.9264V12.7411H22.2292L22.2294 12.7411ZM29.0775 14.2529C28.331 14.2529 27.684 14.6802 27.3649 15.3043H22.2292L22.2294 16.5215H27.1831C27.3423 17.4276 28.13 18.117 29.0776 18.117C30.1399 18.117 31 17.2508 31 16.1838C31 15.1168 30.1398 14.2528 29.0775 14.2528V14.2529ZM5.16557 15.3043V16.5215H8.8627V15.3043H5.16557ZM6.34082 17.8139V23.6091C5.55316 23.8508 4.97931 24.5862 4.97931 25.4563C4.97931 26.5233 5.84156 27.3895 6.90385 27.3895C7.96606 27.3895 8.82605 26.5233 8.82605 25.4563C8.82605 24.6172 8.29406 23.9036 7.55025 23.6371V19.0308H8.8625V17.8138H6.34088L6.34082 17.8139ZM22.2294 17.8139V19.0309H25.3227V25.5876C24.547 25.8369 23.9848 26.5688 23.9848 27.4304C23.9847 28.4974 24.847 29.3614 25.9092 29.3614C26.9715 29.3614 27.8316 28.4974 27.8316 27.4304C27.8316 26.5827 27.2881 25.863 26.5321 25.6026V17.8139H22.2292H22.2294ZM11.1104 21.2845V25.0026H12.3221V21.2845H11.1104ZM13.6088 21.2845V27.2411C12.8543 27.5022 12.3113 28.2205 12.3113 29.0667C12.3113 30.1337 13.1736 31 14.2359 31C15.2982 31 16.1583 30.1337 16.1583 29.0667C16.1583 28.2045 15.5964 27.4744 14.8203 27.226V21.2845H13.6088ZM16.1626 21.2845V25.0026H17.3743L17.3721 21.2845H16.1626L16.1626 21.2845ZM18.7721 21.2845V30.9226H19.9816V21.2845H18.7722H18.7721Z" fill="white" stroke="#FFA101" stroke-width="0.2" mask="url(#path-1-inside-1_2058_200)"/>
<mask id="path-2-inside-2_2058_200" fill="white">
<path d="M13.6087 35.0001V43.1133H14.8203V35H13.6088L13.6087 35.0001ZM6.19319 35.0445C5.13091 35.0445 4.26866 35.9385 4.26866 37.04C4.26866 38.1415 5.13091 39.0333 6.19319 39.0333C7.0601 39.0333 7.79206 38.4387 8.0321 37.6216H11.1104V43.1133H12.3221V36.3652H8.00415C7.73781 35.5955 7.02715 35.0445 6.19319 35.0445ZM19.4315 35.0445C18.3692 35.0445 17.5091 35.9385 17.5091 37.04C17.5091 37.9012 18.035 38.6346 18.7723 38.9135V43.1132H19.9817V38.9512C20.7761 38.706 21.3561 37.9431 21.3561 37.04C21.3561 35.9385 20.4938 35.0445 19.4315 35.0445H19.4315ZM16.1625 39.282V43.1133H17.3721V39.282H16.1626H16.1625ZM29.0776 39.5682C28.0153 39.5682 27.1531 40.4624 27.1531 41.5639C27.1531 42.4932 27.766 43.2739 28.5959 43.4951V45.4462H22.2294V46.7004H29.8075V43.4086C30.5078 43.1109 30.9999 42.3976 30.9999 41.5639C30.9999 40.4624 30.1397 39.5684 29.0775 39.5684L29.0776 39.5682ZM0 41.4951V42.7515H4.5598V46.7005H8.86277V45.4461H5.77148V41.495L0 41.4951ZM10.0722 44.3698V55.7149H21.0197V44.3696H10.0723L10.0722 44.3698ZM11.2751 45.4818H12.4847V51.0645L14.7047 53.3664H19.8616V54.6207H14.2017L14.024 54.4364L13.2875 53.6728C13.2168 54.1974 12.7834 54.6006 12.2579 54.6006C11.6831 54.6006 11.2174 54.1179 11.2174 53.5219C11.2174 52.9762 11.6076 52.5289 12.1144 52.4564L11.453 51.7704L11.2753 51.5862V45.4816L11.2751 45.4818ZM15.0387 45.4929H16.2503V49.4219H19.8487L19.8489 50.6783H15.0388V45.493L15.0387 45.4929ZM1.57126 48.1521V54.5428C0.784159 54.7922 0.211881 55.5513 0.211881 56.4495C0.211881 57.5509 1.07208 58.445 2.13436 58.445C3.19665 58.445 4.05883 57.551 4.05883 56.4496C4.05883 55.5834 3.52519 54.8468 2.78083 54.5717V49.4062H8.8627V48.1521H1.57126V48.1521ZM22.2294 48.1521V49.4062H25.9264V48.1521H22.2292L22.2294 48.1521ZM29.0775 49.7127C28.331 49.7127 27.684 50.1538 27.3649 50.798H22.2292L22.2294 52.0544H27.1831C27.3423 52.9898 28.13 53.7015 29.0776 53.7015C30.1399 53.7015 31 52.8073 31 51.7059C31 50.6045 30.1398 49.7126 29.0775 49.7126V49.7127ZM5.16557 50.798V52.0544H8.8627V50.798H5.16557ZM6.34082 53.3886V59.3707C5.55316 59.6202 4.97931 60.3793 4.97931 61.2774C4.97931 62.3789 5.84156 63.273 6.90385 63.273C7.96606 63.273 8.82605 62.3789 8.82605 61.2774C8.82605 60.4113 8.29406 59.6747 7.55025 59.3996V54.6447H8.8625V53.3884H6.34088L6.34082 53.3886ZM22.2294 53.3886V54.6448H25.3227V61.413C24.547 61.6704 23.9848 62.4259 23.9848 63.3152C23.9847 64.4166 24.847 65.3086 25.9092 65.3086C26.9715 65.3086 27.8316 64.4166 27.8316 63.3153C27.8316 62.4402 27.2881 61.6973 26.5321 61.4285V53.3886H22.2292H22.2294ZM11.1104 56.9711V60.8091H12.3221V56.9711H11.1104ZM13.6088 56.9711V63.1199C12.8543 63.3894 12.3113 64.1309 12.3113 65.0044C12.3113 66.1058 13.1736 67 14.2359 67C15.2982 67 16.1583 66.1057 16.1583 65.0044C16.1583 64.1143 15.5964 63.3607 14.8203 63.1042V56.9711H13.6088ZM16.1626 56.9711V60.8091H17.3743L17.3721 56.9711H16.1626L16.1626 56.9711ZM18.7721 56.9711V66.9201H19.9816V56.9711H18.7722H18.7721Z"/>
</mask>
<path d="M13.6087 35.0001V43.1133H14.8203V35H13.6088L13.6087 35.0001ZM6.19319 35.0445C5.13091 35.0445 4.26866 35.9385 4.26866 37.04C4.26866 38.1415 5.13091 39.0333 6.19319 39.0333C7.0601 39.0333 7.79206 38.4387 8.0321 37.6216H11.1104V43.1133H12.3221V36.3652H8.00415C7.73781 35.5955 7.02715 35.0445 6.19319 35.0445ZM19.4315 35.0445C18.3692 35.0445 17.5091 35.9385 17.5091 37.04C17.5091 37.9012 18.035 38.6346 18.7723 38.9135V43.1132H19.9817V38.9512C20.7761 38.706 21.3561 37.9431 21.3561 37.04C21.3561 35.9385 20.4938 35.0445 19.4315 35.0445H19.4315ZM16.1625 39.282V43.1133H17.3721V39.282H16.1626H16.1625ZM29.0776 39.5682C28.0153 39.5682 27.1531 40.4624 27.1531 41.5639C27.1531 42.4932 27.766 43.2739 28.5959 43.4951V45.4462H22.2294V46.7004H29.8075V43.4086C30.5078 43.1109 30.9999 42.3976 30.9999 41.5639C30.9999 40.4624 30.1397 39.5684 29.0775 39.5684L29.0776 39.5682ZM0 41.4951V42.7515H4.5598V46.7005H8.86277V45.4461H5.77148V41.495L0 41.4951ZM10.0722 44.3698V55.7149H21.0197V44.3696H10.0723L10.0722 44.3698ZM11.2751 45.4818H12.4847V51.0645L14.7047 53.3664H19.8616V54.6207H14.2017L14.024 54.4364L13.2875 53.6728C13.2168 54.1974 12.7834 54.6006 12.2579 54.6006C11.6831 54.6006 11.2174 54.1179 11.2174 53.5219C11.2174 52.9762 11.6076 52.5289 12.1144 52.4564L11.453 51.7704L11.2753 51.5862V45.4816L11.2751 45.4818ZM15.0387 45.4929H16.2503V49.4219H19.8487L19.8489 50.6783H15.0388V45.493L15.0387 45.4929ZM1.57126 48.1521V54.5428C0.784159 54.7922 0.211881 55.5513 0.211881 56.4495C0.211881 57.5509 1.07208 58.445 2.13436 58.445C3.19665 58.445 4.05883 57.551 4.05883 56.4496C4.05883 55.5834 3.52519 54.8468 2.78083 54.5717V49.4062H8.8627V48.1521H1.57126V48.1521ZM22.2294 48.1521V49.4062H25.9264V48.1521H22.2292L22.2294 48.1521ZM29.0775 49.7127C28.331 49.7127 27.684 50.1538 27.3649 50.798H22.2292L22.2294 52.0544H27.1831C27.3423 52.9898 28.13 53.7015 29.0776 53.7015C30.1399 53.7015 31 52.8073 31 51.7059C31 50.6045 30.1398 49.7126 29.0775 49.7126V49.7127ZM5.16557 50.798V52.0544H8.8627V50.798H5.16557ZM6.34082 53.3886V59.3707C5.55316 59.6202 4.97931 60.3793 4.97931 61.2774C4.97931 62.3789 5.84156 63.273 6.90385 63.273C7.96606 63.273 8.82605 62.3789 8.82605 61.2774C8.82605 60.4113 8.29406 59.6747 7.55025 59.3996V54.6447H8.8625V53.3884H6.34088L6.34082 53.3886ZM22.2294 53.3886V54.6448H25.3227V61.413C24.547 61.6704 23.9848 62.4259 23.9848 63.3152C23.9847 64.4166 24.847 65.3086 25.9092 65.3086C26.9715 65.3086 27.8316 64.4166 27.8316 63.3153C27.8316 62.4402 27.2881 61.6973 26.5321 61.4285V53.3886H22.2292H22.2294ZM11.1104 56.9711V60.8091H12.3221V56.9711H11.1104ZM13.6088 56.9711V63.1199C12.8543 63.3894 12.3113 64.1309 12.3113 65.0044C12.3113 66.1058 13.1736 67 14.2359 67C15.2982 67 16.1583 66.1057 16.1583 65.0044C16.1583 64.1143 15.5964 63.3607 14.8203 63.1042V56.9711H13.6088ZM16.1626 56.9711V60.8091H17.3743L17.3721 56.9711H16.1626L16.1626 56.9711ZM18.7721 56.9711V66.9201H19.9816V56.9711H18.7722H18.7721Z" fill="white" stroke="#FFA101" stroke-width="0.2" mask="url(#path-2-inside-2_2058_200)"/>
<mask id="path-3-inside-3_2058_200" fill="white">
<path d="M54.0477 0.000137811V7.85974H55.2984V0H54.0478L54.0477 0.000137811ZM46.393 0.0430767C45.2964 0.0430767 44.4064 0.909148 44.4064 1.97622C44.4064 3.04329 45.2964 3.9073 46.393 3.9073C47.2878 3.9073 48.0434 3.3312 48.2912 2.53965H51.4688V7.85974H52.7196V1.32257H48.2623C47.9874 0.576853 47.2538 0.0430767 46.393 0.0430767ZM60.0583 0.0430767C58.9618 0.0430767 58.0739 0.909148 58.0739 1.97622C58.0739 2.8105 58.6167 3.52106 59.3778 3.79121V7.85967H60.6263V3.82775C61.4463 3.59021 62.045 2.8511 62.045 1.97629C62.045 0.909148 61.1549 0.0430767 60.0584 0.0430767H60.0583ZM56.6839 4.14814V7.85974H57.9325V4.14814H56.684H56.6839ZM70.0156 4.42545C68.919 4.42545 68.029 5.29166 68.029 6.35874C68.029 7.25901 68.6617 8.01532 69.5184 8.2296V10.1197H62.9464V11.3348H70.769V8.14586C71.4919 7.8574 71.9999 7.16645 71.9999 6.3588C71.9999 5.29173 71.112 4.42559 70.0154 4.42559L70.0156 4.42545ZM40 6.29213V7.50928H44.7069V11.3348H49.1487V10.1197H45.9577V6.29206L40 6.29213ZM50.3971 9.07696V20.0675H61.6978V9.07682H50.3972L50.3971 9.07696ZM51.6388 10.1542H52.8874V15.5625L55.179 17.7924H60.5023V19.0075H54.6598L54.4763 18.829L53.7162 18.0893C53.6431 18.5975 53.1957 18.9881 52.6534 18.9881C52.0599 18.9881 51.5792 18.5205 51.5792 17.9431C51.5792 17.4145 51.982 16.9811 52.5052 16.9109L51.8225 16.2463L51.639 16.0679V10.1541L51.6388 10.1542ZM55.5238 10.165H56.7745V13.9712H60.489L60.4892 15.1884H55.5239V10.1651L55.5238 10.165ZM41.6219 12.7411V18.932C40.8095 19.1737 40.2187 19.909 40.2187 20.7792C40.2187 21.8462 41.1067 22.7124 42.2032 22.7124C43.2998 22.7124 44.1898 21.8462 44.1898 20.7793C44.1898 19.9401 43.6389 19.2266 42.8705 18.9601V13.956H49.1486V12.7411H41.6219V12.7411ZM62.9464 12.7411V13.956H66.7627V12.7411H62.9463L62.9464 12.7411ZM70.0155 14.2529C69.2449 14.2529 68.5771 14.6802 68.2477 15.3043H62.9463L62.9464 16.5215H68.0599C68.2243 17.4276 69.0375 18.117 70.0156 18.117C71.1121 18.117 72 17.2508 72 16.1838C72 15.1168 71.1121 14.2528 70.0155 14.2528V14.2529ZM45.3322 15.3043V16.5215H49.1486V15.3043H45.3322ZM46.5454 17.8139V23.6091C45.7323 23.8508 45.1399 24.5862 45.1399 25.4563C45.1399 26.5233 46.03 27.3895 47.1266 27.3895C48.223 27.3895 49.1108 26.5233 49.1108 25.4563C49.1108 24.6172 48.5616 23.9036 47.7938 23.6371V19.0308H49.1484V17.8138H46.5454L46.5454 17.8139ZM62.9464 17.8139V19.0309H66.1396V25.5876C65.3389 25.8369 64.7585 26.5688 64.7585 27.4304C64.7584 28.4974 65.6485 29.3614 66.745 29.3614C67.8416 29.3614 68.7294 28.4974 68.7294 27.4304C68.7294 26.5827 68.1683 25.863 67.388 25.6026V17.8139H62.9462H62.9464ZM51.4688 21.2845V25.0026H52.7196V21.2845H51.4688ZM54.0478 21.2845V27.2411C53.269 27.5022 52.7084 28.2205 52.7084 29.0667C52.7084 30.1337 53.5986 31 54.6951 31C55.7917 31 56.6796 30.1337 56.6796 29.0667C56.6796 28.2045 56.0995 27.4744 55.2984 27.226V21.2845H54.0478ZM56.6839 21.2845V25.0026H57.9347L57.9325 21.2845H56.684L56.6839 21.2845ZM59.3777 21.2845V30.9226H60.6261V21.2845H59.3778H59.3777Z"/>
</mask>
<path d="M54.0477 0.000137811V7.85974H55.2984V0H54.0478L54.0477 0.000137811ZM46.393 0.0430767C45.2964 0.0430767 44.4064 0.909148 44.4064 1.97622C44.4064 3.04329 45.2964 3.9073 46.393 3.9073C47.2878 3.9073 48.0434 3.3312 48.2912 2.53965H51.4688V7.85974H52.7196V1.32257H48.2623C47.9874 0.576853 47.2538 0.0430767 46.393 0.0430767ZM60.0583 0.0430767C58.9618 0.0430767 58.0739 0.909148 58.0739 1.97622C58.0739 2.8105 58.6167 3.52106 59.3778 3.79121V7.85967H60.6263V3.82775C61.4463 3.59021 62.045 2.8511 62.045 1.97629C62.045 0.909148 61.1549 0.0430767 60.0584 0.0430767H60.0583ZM56.6839 4.14814V7.85974H57.9325V4.14814H56.684H56.6839ZM70.0156 4.42545C68.919 4.42545 68.029 5.29166 68.029 6.35874C68.029 7.25901 68.6617 8.01532 69.5184 8.2296V10.1197H62.9464V11.3348H70.769V8.14586C71.4919 7.8574 71.9999 7.16645 71.9999 6.3588C71.9999 5.29173 71.112 4.42559 70.0154 4.42559L70.0156 4.42545ZM40 6.29213V7.50928H44.7069V11.3348H49.1487V10.1197H45.9577V6.29206L40 6.29213ZM50.3971 9.07696V20.0675H61.6978V9.07682H50.3972L50.3971 9.07696ZM51.6388 10.1542H52.8874V15.5625L55.179 17.7924H60.5023V19.0075H54.6598L54.4763 18.829L53.7162 18.0893C53.6431 18.5975 53.1957 18.9881 52.6534 18.9881C52.0599 18.9881 51.5792 18.5205 51.5792 17.9431C51.5792 17.4145 51.982 16.9811 52.5052 16.9109L51.8225 16.2463L51.639 16.0679V10.1541L51.6388 10.1542ZM55.5238 10.165H56.7745V13.9712H60.489L60.4892 15.1884H55.5239V10.1651L55.5238 10.165ZM41.6219 12.7411V18.932C40.8095 19.1737 40.2187 19.909 40.2187 20.7792C40.2187 21.8462 41.1067 22.7124 42.2032 22.7124C43.2998 22.7124 44.1898 21.8462 44.1898 20.7793C44.1898 19.9401 43.6389 19.2266 42.8705 18.9601V13.956H49.1486V12.7411H41.6219V12.7411ZM62.9464 12.7411V13.956H66.7627V12.7411H62.9463L62.9464 12.7411ZM70.0155 14.2529C69.2449 14.2529 68.5771 14.6802 68.2477 15.3043H62.9463L62.9464 16.5215H68.0599C68.2243 17.4276 69.0375 18.117 70.0156 18.117C71.1121 18.117 72 17.2508 72 16.1838C72 15.1168 71.1121 14.2528 70.0155 14.2528V14.2529ZM45.3322 15.3043V16.5215H49.1486V15.3043H45.3322ZM46.5454 17.8139V23.6091C45.7323 23.8508 45.1399 24.5862 45.1399 25.4563C45.1399 26.5233 46.03 27.3895 47.1266 27.3895C48.223 27.3895 49.1108 26.5233 49.1108 25.4563C49.1108 24.6172 48.5616 23.9036 47.7938 23.6371V19.0308H49.1484V17.8138H46.5454L46.5454 17.8139ZM62.9464 17.8139V19.0309H66.1396V25.5876C65.3389 25.8369 64.7585 26.5688 64.7585 27.4304C64.7584 28.4974 65.6485 29.3614 66.745 29.3614C67.8416 29.3614 68.7294 28.4974 68.7294 27.4304C68.7294 26.5827 68.1683 25.863 67.388 25.6026V17.8139H62.9462H62.9464ZM51.4688 21.2845V25.0026H52.7196V21.2845H51.4688ZM54.0478 21.2845V27.2411C53.269 27.5022 52.7084 28.2205 52.7084 29.0667C52.7084 30.1337 53.5986 31 54.6951 31C55.7917 31 56.6796 30.1337 56.6796 29.0667C56.6796 28.2045 56.0995 27.4744 55.2984 27.226V21.2845H54.0478ZM56.6839 21.2845V25.0026H57.9347L57.9325 21.2845H56.684L56.6839 21.2845ZM59.3777 21.2845V30.9226H60.6261V21.2845H59.3778H59.3777Z" fill="white" stroke="#FFA101" stroke-width="0.2" mask="url(#path-3-inside-3_2058_200)"/>
<mask id="path-4-inside-4_2058_200" fill="white">
<path d="M54.0477 35.0001V43.1133H55.2984V35H54.0478L54.0477 35.0001ZM46.393 35.0445C45.2964 35.0445 44.4064 35.9385 44.4064 37.04C44.4064 38.1415 45.2964 39.0333 46.393 39.0333C47.2878 39.0333 48.0434 38.4387 48.2912 37.6216H51.4688V43.1133H52.7196V36.3652H48.2623C47.9874 35.5955 47.2538 35.0445 46.393 35.0445ZM60.0583 35.0445C58.9618 35.0445 58.0739 35.9385 58.0739 37.04C58.0739 37.9012 58.6167 38.6346 59.3778 38.9135V43.1132H60.6263V38.9512C61.4463 38.706 62.045 37.9431 62.045 37.04C62.045 35.9385 61.1549 35.0445 60.0584 35.0445H60.0583ZM56.6839 39.282V43.1133H57.9325V39.282H56.684H56.6839ZM70.0156 39.5682C68.919 39.5682 68.029 40.4624 68.029 41.5639C68.029 42.4932 68.6617 43.2739 69.5184 43.4951V45.4462H62.9464V46.7004H70.769V43.4086C71.4919 43.1109 71.9999 42.3976 71.9999 41.5639C71.9999 40.4624 71.112 39.5684 70.0154 39.5684L70.0156 39.5682ZM40 41.4951V42.7515H44.7069V46.7005H49.1487V45.4461H45.9577V41.495L40 41.4951ZM50.3971 44.3698V55.7149H61.6978V44.3696H50.3972L50.3971 44.3698ZM51.6388 45.4818H52.8874V51.0645L55.179 53.3664H60.5023V54.6207H54.6598L54.4763 54.4364L53.7162 53.6728C53.6431 54.1974 53.1957 54.6006 52.6534 54.6006C52.0599 54.6006 51.5792 54.1179 51.5792 53.5219C51.5792 52.9762 51.982 52.5289 52.5052 52.4564L51.8225 51.7704L51.639 51.5862V45.4816L51.6388 45.4818ZM55.5238 45.4929H56.7745V49.4219H60.489L60.4892 50.6783H55.5239V45.493L55.5238 45.4929ZM41.6219 48.1521V54.5428C40.8095 54.7922 40.2187 55.5513 40.2187 56.4495C40.2187 57.5509 41.1067 58.445 42.2032 58.445C43.2998 58.445 44.1898 57.551 44.1898 56.4496C44.1898 55.5834 43.6389 54.8468 42.8705 54.5717V49.4062H49.1486V48.1521H41.6219V48.1521ZM62.9464 48.1521V49.4062H66.7627V48.1521H62.9463L62.9464 48.1521ZM70.0155 49.7127C69.2449 49.7127 68.5771 50.1538 68.2477 50.798H62.9463L62.9464 52.0544H68.0599C68.2243 52.9898 69.0375 53.7015 70.0156 53.7015C71.1121 53.7015 72 52.8073 72 51.7059C72 50.6045 71.1121 49.7126 70.0155 49.7126V49.7127ZM45.3322 50.798V52.0544H49.1486V50.798H45.3322ZM46.5454 53.3886V59.3707C45.7323 59.6202 45.1399 60.3793 45.1399 61.2774C45.1399 62.3789 46.03 63.273 47.1266 63.273C48.223 63.273 49.1108 62.3789 49.1108 61.2774C49.1108 60.4113 48.5616 59.6747 47.7938 59.3996V54.6447H49.1484V53.3884H46.5454L46.5454 53.3886ZM62.9464 53.3886V54.6448H66.1396V61.413C65.3389 61.6704 64.7585 62.4259 64.7585 63.3152C64.7584 64.4166 65.6485 65.3086 66.745 65.3086C67.8416 65.3086 68.7294 64.4166 68.7294 63.3153C68.7294 62.4402 68.1683 61.6973 67.388 61.4285V53.3886H62.9462H62.9464ZM51.4688 56.9711V60.8091H52.7196V56.9711H51.4688ZM54.0478 56.9711V63.1199C53.269 63.3894 52.7084 64.1309 52.7084 65.0044C52.7084 66.1058 53.5986 67 54.6951 67C55.7917 67 56.6796 66.1057 56.6796 65.0044C56.6796 64.1143 56.0995 63.3607 55.2984 63.1042V56.9711H54.0478ZM56.6839 56.9711V60.8091H57.9347L57.9325 56.9711H56.684L56.6839 56.9711ZM59.3777 56.9711V66.9201H60.6261V56.9711H59.3778H59.3777Z"/>
</mask>
<path d="M54.0477 35.0001V43.1133H55.2984V35H54.0478L54.0477 35.0001ZM46.393 35.0445C45.2964 35.0445 44.4064 35.9385 44.4064 37.04C44.4064 38.1415 45.2964 39.0333 46.393 39.0333C47.2878 39.0333 48.0434 38.4387 48.2912 37.6216H51.4688V43.1133H52.7196V36.3652H48.2623C47.9874 35.5955 47.2538 35.0445 46.393 35.0445ZM60.0583 35.0445C58.9618 35.0445 58.0739 35.9385 58.0739 37.04C58.0739 37.9012 58.6167 38.6346 59.3778 38.9135V43.1132H60.6263V38.9512C61.4463 38.706 62.045 37.9431 62.045 37.04C62.045 35.9385 61.1549 35.0445 60.0584 35.0445H60.0583ZM56.6839 39.282V43.1133H57.9325V39.282H56.684H56.6839ZM70.0156 39.5682C68.919 39.5682 68.029 40.4624 68.029 41.5639C68.029 42.4932 68.6617 43.2739 69.5184 43.4951V45.4462H62.9464V46.7004H70.769V43.4086C71.4919 43.1109 71.9999 42.3976 71.9999 41.5639C71.9999 40.4624 71.112 39.5684 70.0154 39.5684L70.0156 39.5682ZM40 41.4951V42.7515H44.7069V46.7005H49.1487V45.4461H45.9577V41.495L40 41.4951ZM50.3971 44.3698V55.7149H61.6978V44.3696H50.3972L50.3971 44.3698ZM51.6388 45.4818H52.8874V51.0645L55.179 53.3664H60.5023V54.6207H54.6598L54.4763 54.4364L53.7162 53.6728C53.6431 54.1974 53.1957 54.6006 52.6534 54.6006C52.0599 54.6006 51.5792 54.1179 51.5792 53.5219C51.5792 52.9762 51.982 52.5289 52.5052 52.4564L51.8225 51.7704L51.639 51.5862V45.4816L51.6388 45.4818ZM55.5238 45.4929H56.7745V49.4219H60.489L60.4892 50.6783H55.5239V45.493L55.5238 45.4929ZM41.6219 48.1521V54.5428C40.8095 54.7922 40.2187 55.5513 40.2187 56.4495C40.2187 57.5509 41.1067 58.445 42.2032 58.445C43.2998 58.445 44.1898 57.551 44.1898 56.4496C44.1898 55.5834 43.6389 54.8468 42.8705 54.5717V49.4062H49.1486V48.1521H41.6219V48.1521ZM62.9464 48.1521V49.4062H66.7627V48.1521H62.9463L62.9464 48.1521ZM70.0155 49.7127C69.2449 49.7127 68.5771 50.1538 68.2477 50.798H62.9463L62.9464 52.0544H68.0599C68.2243 52.9898 69.0375 53.7015 70.0156 53.7015C71.1121 53.7015 72 52.8073 72 51.7059C72 50.6045 71.1121 49.7126 70.0155 49.7126V49.7127ZM45.3322 50.798V52.0544H49.1486V50.798H45.3322ZM46.5454 53.3886V59.3707C45.7323 59.6202 45.1399 60.3793 45.1399 61.2774C45.1399 62.3789 46.03 63.273 47.1266 63.273C48.223 63.273 49.1108 62.3789 49.1108 61.2774C49.1108 60.4113 48.5616 59.6747 47.7938 59.3996V54.6447H49.1484V53.3884H46.5454L46.5454 53.3886ZM62.9464 53.3886V54.6448H66.1396V61.413C65.3389 61.6704 64.7585 62.4259 64.7585 63.3152C64.7584 64.4166 65.6485 65.3086 66.745 65.3086C67.8416 65.3086 68.7294 64.4166 68.7294 63.3153C68.7294 62.4402 68.1683 61.6973 67.388 61.4285V53.3886H62.9462H62.9464ZM51.4688 56.9711V60.8091H52.7196V56.9711H51.4688ZM54.0478 56.9711V63.1199C53.269 63.3894 52.7084 64.1309 52.7084 65.0044C52.7084 66.1058 53.5986 67 54.6951 67C55.7917 67 56.6796 66.1057 56.6796 65.0044C56.6796 64.1143 56.0995 63.3607 55.2984 63.1042V56.9711H54.0478ZM56.6839 56.9711V60.8091H57.9347L57.9325 56.9711H56.684L56.6839 56.9711ZM59.3777 56.9711V66.9201H60.6261V56.9711H59.3778H59.3777Z" fill="white" stroke="#FFA101" stroke-width="0.2" mask="url(#path-4-inside-4_2058_200)"/>
</svg>
