<svg width="59" height="75" viewBox="0 0 59 75" fill="none" xmlns="http://www.w3.org/2000/svg">
<mask id="path-1-inside-1_2058_201" fill="white">
<path d="M10.9747 0.000106693V6.08496H11.9519V0H10.9748L10.9747 0.000106693ZM4.99451 0.0333497C4.13783 0.0333497 3.44246 0.703856 3.44246 1.52998C3.44246 2.3561 4.13783 3.02501 4.99451 3.02501C5.69363 3.02501 6.28392 2.579 6.4775 1.96618H8.96003V6.08496H9.9372V1.02393H6.45496C6.24017 0.446596 5.66706 0.0333497 4.99451 0.0333497ZM15.6705 0.0333497C14.8139 0.0333497 14.1202 0.703856 14.1202 1.52998C14.1202 2.17587 14.5443 2.72598 15.1389 2.93513V6.08491H16.1143V2.96342C16.7549 2.77952 17.2226 2.2073 17.2226 1.53003C17.2226 0.703856 16.5273 0.0333497 15.6706 0.0333497H15.6705ZM13.0343 3.21146V6.08496H14.0097V3.21146H13.0344H13.0343ZM23.4497 3.42616C22.593 3.42616 21.8976 4.09677 21.8976 4.92289C21.8976 5.61988 22.392 6.20541 23.0612 6.37131V7.83464H17.9269V8.7753H24.0383V6.30647C24.6031 6.08315 24.9999 5.54822 24.9999 4.92295C24.9999 4.09683 24.3062 3.42627 23.4496 3.42627L23.4497 3.42616ZM0 4.87132V5.81363H3.67725V8.77535H7.1474V7.83458H4.65442V4.87127L0 4.87132ZM8.12274 7.02732V15.5361H16.9514V7.02722H8.1228L8.12274 7.02732ZM9.09284 7.86133H10.0683V12.0484L11.8586 13.7748H16.0174V14.7155H11.4529L11.3096 14.5773L10.7158 14.0046C10.6587 14.398 10.3092 14.7005 9.88543 14.7005C9.42182 14.7005 9.04627 14.3384 9.04627 13.8914C9.04627 13.4822 9.36094 13.1466 9.7697 13.0923L9.23631 12.5778L9.093 12.4396V7.86122L9.09284 7.86133ZM12.128 7.86969H13.105V10.8164H16.007L16.0072 11.7587H12.128V7.86974L12.128 7.86969ZM1.26715 9.86406V14.6571C0.632386 14.8442 0.170872 15.4135 0.170872 16.0872C0.170872 16.9132 0.86458 17.5838 1.72126 17.5838C2.57794 17.5838 3.27325 16.9132 3.27325 16.0872C3.27325 15.4375 2.84289 14.8851 2.2426 14.6788V10.8047H7.14734V9.86411H1.26715V9.86406ZM17.9269 9.86406V10.8047H20.9084V9.86411H17.9268L17.9269 9.86406ZM23.4496 11.0345C22.8476 11.0345 22.3258 11.3653 22.0685 11.8485H17.9268L17.9269 12.7908H21.9218C22.0503 13.4923 22.6855 14.0261 23.4497 14.0261C24.3063 14.0261 25 13.3555 25 12.5294C25 11.7033 24.3063 11.0344 23.4496 11.0344V11.0345ZM4.16578 11.8485V12.7908H7.14734V11.8485H4.16578ZM5.11356 13.7914V18.278C4.47836 18.4651 4.01557 19.0345 4.01557 19.7081C4.01557 20.5342 4.71094 21.2048 5.56762 21.2048C6.42424 21.2048 7.11778 20.5342 7.11778 19.7081C7.11778 19.0585 6.68875 18.506 6.08891 18.2997V14.7335H7.14717V13.7913H5.11362L5.11356 13.7914ZM17.9269 13.7914V14.7336H20.4215V19.8097C19.796 20.0028 19.3426 20.5694 19.3426 21.2364C19.3425 22.0625 20.0379 22.7314 20.8945 22.7314C21.7512 22.7314 22.4449 22.0625 22.4449 21.2365C22.4449 20.5801 22.0065 20.023 21.3969 19.8213V13.7914H17.9267H17.9269ZM8.96003 16.4783V19.3568H9.9372V16.4783H8.96003ZM10.9748 16.4783V21.0899C10.3664 21.292 9.92847 21.8482 9.92847 22.5033C9.92847 23.3293 10.6239 24 11.4806 24C12.3372 24 13.0309 23.3293 13.0309 22.5033C13.0309 21.8357 12.5777 21.2705 11.9519 21.0782V16.4783H10.9748ZM13.0343 16.4783V19.3568H14.0115L14.0097 16.4783H13.0344L13.0343 16.4783ZM15.1388 16.4783V23.9401H16.1142V16.4783H15.1389H15.1388Z"/>
</mask>
<path d="M10.9747 0.000106693V6.08496H11.9519V0H10.9748L10.9747 0.000106693ZM4.99451 0.0333497C4.13783 0.0333497 3.44246 0.703856 3.44246 1.52998C3.44246 2.3561 4.13783 3.02501 4.99451 3.02501C5.69363 3.02501 6.28392 2.579 6.4775 1.96618H8.96003V6.08496H9.9372V1.02393H6.45496C6.24017 0.446596 5.66706 0.0333497 4.99451 0.0333497ZM15.6705 0.0333497C14.8139 0.0333497 14.1202 0.703856 14.1202 1.52998C14.1202 2.17587 14.5443 2.72598 15.1389 2.93513V6.08491H16.1143V2.96342C16.7549 2.77952 17.2226 2.2073 17.2226 1.53003C17.2226 0.703856 16.5273 0.0333497 15.6706 0.0333497H15.6705ZM13.0343 3.21146V6.08496H14.0097V3.21146H13.0344H13.0343ZM23.4497 3.42616C22.593 3.42616 21.8976 4.09677 21.8976 4.92289C21.8976 5.61988 22.392 6.20541 23.0612 6.37131V7.83464H17.9269V8.7753H24.0383V6.30647C24.6031 6.08315 24.9999 5.54822 24.9999 4.92295C24.9999 4.09683 24.3062 3.42627 23.4496 3.42627L23.4497 3.42616ZM0 4.87132V5.81363H3.67725V8.77535H7.1474V7.83458H4.65442V4.87127L0 4.87132ZM8.12274 7.02732V15.5361H16.9514V7.02722H8.1228L8.12274 7.02732ZM9.09284 7.86133H10.0683V12.0484L11.8586 13.7748H16.0174V14.7155H11.4529L11.3096 14.5773L10.7158 14.0046C10.6587 14.398 10.3092 14.7005 9.88543 14.7005C9.42182 14.7005 9.04627 14.3384 9.04627 13.8914C9.04627 13.4822 9.36094 13.1466 9.7697 13.0923L9.23631 12.5778L9.093 12.4396V7.86122L9.09284 7.86133ZM12.128 7.86969H13.105V10.8164H16.007L16.0072 11.7587H12.128V7.86974L12.128 7.86969ZM1.26715 9.86406V14.6571C0.632386 14.8442 0.170872 15.4135 0.170872 16.0872C0.170872 16.9132 0.86458 17.5838 1.72126 17.5838C2.57794 17.5838 3.27325 16.9132 3.27325 16.0872C3.27325 15.4375 2.84289 14.8851 2.2426 14.6788V10.8047H7.14734V9.86411H1.26715V9.86406ZM17.9269 9.86406V10.8047H20.9084V9.86411H17.9268L17.9269 9.86406ZM23.4496 11.0345C22.8476 11.0345 22.3258 11.3653 22.0685 11.8485H17.9268L17.9269 12.7908H21.9218C22.0503 13.4923 22.6855 14.0261 23.4497 14.0261C24.3063 14.0261 25 13.3555 25 12.5294C25 11.7033 24.3063 11.0344 23.4496 11.0344V11.0345ZM4.16578 11.8485V12.7908H7.14734V11.8485H4.16578ZM5.11356 13.7914V18.278C4.47836 18.4651 4.01557 19.0345 4.01557 19.7081C4.01557 20.5342 4.71094 21.2048 5.56762 21.2048C6.42424 21.2048 7.11778 20.5342 7.11778 19.7081C7.11778 19.0585 6.68875 18.506 6.08891 18.2997V14.7335H7.14717V13.7913H5.11362L5.11356 13.7914ZM17.9269 13.7914V14.7336H20.4215V19.8097C19.796 20.0028 19.3426 20.5694 19.3426 21.2364C19.3425 22.0625 20.0379 22.7314 20.8945 22.7314C21.7512 22.7314 22.4449 22.0625 22.4449 21.2365C22.4449 20.5801 22.0065 20.023 21.3969 19.8213V13.7914H17.9267H17.9269ZM8.96003 16.4783V19.3568H9.9372V16.4783H8.96003ZM10.9748 16.4783V21.0899C10.3664 21.292 9.92847 21.8482 9.92847 22.5033C9.92847 23.3293 10.6239 24 11.4806 24C12.3372 24 13.0309 23.3293 13.0309 22.5033C13.0309 21.8357 12.5777 21.2705 11.9519 21.0782V16.4783H10.9748ZM13.0343 16.4783V19.3568H14.0115L14.0097 16.4783H13.0344L13.0343 16.4783ZM15.1388 16.4783V23.9401H16.1142V16.4783H15.1389H15.1388Z" fill="white" stroke="#FFA101" stroke-width="0.2" mask="url(#path-1-inside-1_2058_201)"/>
<mask id="path-2-inside-2_2058_201" fill="white">
<path d="M27.9747 25.0001V31.085H28.9519V25H27.9748L27.9747 25.0001ZM21.9945 25.0333C21.1378 25.0333 20.4425 25.7039 20.4425 26.53C20.4425 27.3561 21.1378 28.025 21.9945 28.025C22.6936 28.025 23.2839 27.579 23.4775 26.9662H25.96V31.085H26.9372V26.0239H23.455C23.2402 25.4466 22.6671 25.0333 21.9945 25.0333ZM32.6705 25.0333C31.8139 25.0333 31.1202 25.7039 31.1202 26.53C31.1202 27.1759 31.5443 27.726 32.1389 27.9351V31.0849H33.1143V27.9634C33.7549 27.7795 34.2226 27.2073 34.2226 26.53C34.2226 25.7039 33.5273 25.0333 32.6706 25.0333H32.6705ZM30.0343 28.2115V31.085H31.0097V28.2115H30.0344H30.0343ZM40.4497 28.4262C39.593 28.4262 38.8976 29.0968 38.8976 29.9229C38.8976 30.6199 39.392 31.2054 40.0612 31.3713V32.8346H34.9269V33.7753H41.0383V31.3065C41.6031 31.0831 41.9999 30.5482 41.9999 29.9229C41.9999 29.0968 41.3062 28.4263 40.4496 28.4263L40.4497 28.4262ZM17 29.8713V30.8136H20.6773V33.7753H24.1474V32.8346H21.6544V29.8713L17 29.8713ZM25.1227 32.0273V40.5361H33.9514V32.0272H25.1228L25.1227 32.0273ZM26.0928 32.8613H27.0683V37.0484L28.8586 38.7748H33.0174V39.7155H28.4529L28.3096 39.5773L27.7158 39.0046C27.6587 39.398 27.3092 39.7005 26.8854 39.7005C26.4218 39.7005 26.0463 39.3384 26.0463 38.8914C26.0463 38.4822 26.3609 38.1466 26.7697 38.0923L26.2363 37.5778L26.093 37.4396V32.8612L26.0928 32.8613ZM29.128 32.8697H30.105V35.8164H33.007L33.0072 36.7587H29.128V32.8697L29.128 32.8697ZM18.2671 34.8641V39.6571C17.6324 39.8442 17.1709 40.4135 17.1709 41.0872C17.1709 41.9132 17.8646 42.5838 18.7213 42.5838C19.5779 42.5838 20.2732 41.9132 20.2732 41.0872C20.2732 40.4375 19.8429 39.8851 19.2426 39.6788V35.8047H24.1473V34.8641H18.2671V34.8641ZM34.9269 34.8641V35.8047H37.9084V34.8641H34.9268L34.9269 34.8641ZM40.4496 36.0345C39.8476 36.0345 39.3258 36.3653 39.0685 36.8485H34.9268L34.9269 37.7908H38.9218C39.0503 38.4923 39.6855 39.0261 40.4497 39.0261C41.3063 39.0261 42 38.3555 42 37.5294C42 36.7033 41.3063 36.0344 40.4496 36.0344V36.0345ZM21.1658 36.8485V37.7908H24.1473V36.8485H21.1658ZM22.1136 38.7914V43.278C21.4784 43.4651 21.0156 44.0345 21.0156 44.7081C21.0156 45.5342 21.7109 46.2048 22.5676 46.2048C23.4242 46.2048 24.1178 45.5342 24.1178 44.7081C24.1178 44.0585 23.6888 43.506 23.0889 43.2997V39.7335H24.1472V38.7913H22.1136L22.1136 38.7914ZM34.9269 38.7914V39.7336H37.4215V44.8097C36.796 45.0028 36.3426 45.5694 36.3426 46.2364C36.3425 47.0625 37.0379 47.7314 37.8945 47.7314C38.7512 47.7314 39.4449 47.0625 39.4449 46.2365C39.4449 45.5801 39.0065 45.023 38.3969 44.8213V38.7914H34.9267H34.9269ZM25.96 41.4783V44.3568H26.9372V41.4783H25.96ZM27.9748 41.4783V46.0899C27.3664 46.292 26.9285 46.8482 26.9285 47.5033C26.9285 48.3293 27.6239 49 28.4806 49C29.3372 49 30.0309 48.3293 30.0309 47.5033C30.0309 46.8357 29.5777 46.2705 28.9519 46.0782V41.4783H27.9748ZM30.0343 41.4783V44.3568H31.0115L31.0097 41.4783H30.0344L30.0343 41.4783ZM32.1388 41.4783V48.9401H33.1142V41.4783H32.1389H32.1388Z"/>
</mask>
<path d="M27.9747 25.0001V31.085H28.9519V25H27.9748L27.9747 25.0001ZM21.9945 25.0333C21.1378 25.0333 20.4425 25.7039 20.4425 26.53C20.4425 27.3561 21.1378 28.025 21.9945 28.025C22.6936 28.025 23.2839 27.579 23.4775 26.9662H25.96V31.085H26.9372V26.0239H23.455C23.2402 25.4466 22.6671 25.0333 21.9945 25.0333ZM32.6705 25.0333C31.8139 25.0333 31.1202 25.7039 31.1202 26.53C31.1202 27.1759 31.5443 27.726 32.1389 27.9351V31.0849H33.1143V27.9634C33.7549 27.7795 34.2226 27.2073 34.2226 26.53C34.2226 25.7039 33.5273 25.0333 32.6706 25.0333H32.6705ZM30.0343 28.2115V31.085H31.0097V28.2115H30.0344H30.0343ZM40.4497 28.4262C39.593 28.4262 38.8976 29.0968 38.8976 29.9229C38.8976 30.6199 39.392 31.2054 40.0612 31.3713V32.8346H34.9269V33.7753H41.0383V31.3065C41.6031 31.0831 41.9999 30.5482 41.9999 29.9229C41.9999 29.0968 41.3062 28.4263 40.4496 28.4263L40.4497 28.4262ZM17 29.8713V30.8136H20.6773V33.7753H24.1474V32.8346H21.6544V29.8713L17 29.8713ZM25.1227 32.0273V40.5361H33.9514V32.0272H25.1228L25.1227 32.0273ZM26.0928 32.8613H27.0683V37.0484L28.8586 38.7748H33.0174V39.7155H28.4529L28.3096 39.5773L27.7158 39.0046C27.6587 39.398 27.3092 39.7005 26.8854 39.7005C26.4218 39.7005 26.0463 39.3384 26.0463 38.8914C26.0463 38.4822 26.3609 38.1466 26.7697 38.0923L26.2363 37.5778L26.093 37.4396V32.8612L26.0928 32.8613ZM29.128 32.8697H30.105V35.8164H33.007L33.0072 36.7587H29.128V32.8697L29.128 32.8697ZM18.2671 34.8641V39.6571C17.6324 39.8442 17.1709 40.4135 17.1709 41.0872C17.1709 41.9132 17.8646 42.5838 18.7213 42.5838C19.5779 42.5838 20.2732 41.9132 20.2732 41.0872C20.2732 40.4375 19.8429 39.8851 19.2426 39.6788V35.8047H24.1473V34.8641H18.2671V34.8641ZM34.9269 34.8641V35.8047H37.9084V34.8641H34.9268L34.9269 34.8641ZM40.4496 36.0345C39.8476 36.0345 39.3258 36.3653 39.0685 36.8485H34.9268L34.9269 37.7908H38.9218C39.0503 38.4923 39.6855 39.0261 40.4497 39.0261C41.3063 39.0261 42 38.3555 42 37.5294C42 36.7033 41.3063 36.0344 40.4496 36.0344V36.0345ZM21.1658 36.8485V37.7908H24.1473V36.8485H21.1658ZM22.1136 38.7914V43.278C21.4784 43.4651 21.0156 44.0345 21.0156 44.7081C21.0156 45.5342 21.7109 46.2048 22.5676 46.2048C23.4242 46.2048 24.1178 45.5342 24.1178 44.7081C24.1178 44.0585 23.6888 43.506 23.0889 43.2997V39.7335H24.1472V38.7913H22.1136L22.1136 38.7914ZM34.9269 38.7914V39.7336H37.4215V44.8097C36.796 45.0028 36.3426 45.5694 36.3426 46.2364C36.3425 47.0625 37.0379 47.7314 37.8945 47.7314C38.7512 47.7314 39.4449 47.0625 39.4449 46.2365C39.4449 45.5801 39.0065 45.023 38.3969 44.8213V38.7914H34.9267H34.9269ZM25.96 41.4783V44.3568H26.9372V41.4783H25.96ZM27.9748 41.4783V46.0899C27.3664 46.292 26.9285 46.8482 26.9285 47.5033C26.9285 48.3293 27.6239 49 28.4806 49C29.3372 49 30.0309 48.3293 30.0309 47.5033C30.0309 46.8357 29.5777 46.2705 28.9519 46.0782V41.4783H27.9748ZM30.0343 41.4783V44.3568H31.0115L31.0097 41.4783H30.0344L30.0343 41.4783ZM32.1388 41.4783V48.9401H33.1142V41.4783H32.1389H32.1388Z" fill="white" stroke="#FFA101" stroke-width="0.2" mask="url(#path-2-inside-2_2058_201)"/>
<mask id="path-3-inside-3_2058_201" fill="white">
<path d="M45.5358 0.000106693V6.08496H46.4738V0H45.5358L45.5358 0.000106693ZM39.7947 0.0333497C38.9723 0.0333497 38.3048 0.703856 38.3048 1.52998C38.3048 2.3561 38.9723 3.02501 39.7947 3.02501C40.4659 3.02501 41.0326 2.579 41.2184 1.96618H43.6016V6.08496H44.5397V1.02393H41.1968C40.9906 0.446596 40.4404 0.0333497 39.7947 0.0333497ZM50.0437 0.0333497C49.2213 0.0333497 48.5554 0.703856 48.5554 1.52998C48.5554 2.17587 48.9626 2.72598 49.5334 2.93513V6.08491H50.4697V2.96342C51.0847 2.77952 51.5337 2.2073 51.5337 1.53003C51.5337 0.703856 50.8662 0.0333497 50.0438 0.0333497H50.0437ZM47.5129 3.21146V6.08496H48.4493V3.21146H47.513H47.5129ZM57.5117 3.42616C56.6893 3.42616 56.0217 4.09677 56.0217 4.92289C56.0217 5.61988 56.4963 6.20541 57.1388 6.37131V7.83464H52.2098V8.7753H58.0768V6.30647C58.6189 6.08315 58.9999 5.54822 58.9999 4.92295C58.9999 4.09683 58.334 3.42627 57.5116 3.42627L57.5117 3.42616ZM35 4.87132V5.81363H38.5302V8.77535H41.8615V7.83458H39.4682V4.87127L35 4.87132ZM42.7978 7.02732V15.5361H51.2733V7.02722H42.7979L42.7978 7.02732ZM43.7291 7.86133H44.6656V12.0484L46.3843 13.7748H50.3767V14.7155H45.9948L45.8573 14.5773L45.2871 14.0046C45.2323 14.398 44.8968 14.7005 44.49 14.7005C44.0449 14.7005 43.6844 14.3384 43.6844 13.8914C43.6844 13.4822 43.9865 13.1466 44.3789 13.0923L43.8669 12.5778L43.7293 12.4396V7.86122L43.7291 7.86133ZM46.6429 7.86969H47.5808V10.8164H50.3668L50.3669 11.7587H46.6429V7.86974L46.6429 7.86969ZM36.2165 9.86406V14.6571C35.6071 14.8442 35.164 15.4135 35.164 16.0872C35.164 16.9132 35.83 17.5838 36.6524 17.5838C37.4748 17.5838 38.1423 16.9132 38.1423 16.0872C38.1423 15.4375 37.7292 14.8851 37.1529 14.6788V10.8047H41.8614V9.86411H36.2165V9.86406ZM52.2098 9.86406V10.8047H55.072V9.86411H52.2097L52.2098 9.86406ZM57.5116 11.0345C56.9337 11.0345 56.4328 11.3653 56.1858 11.8485H52.2097L52.2098 12.7908H56.0449C56.1683 13.4923 56.7781 14.0261 57.5117 14.0261C58.3341 14.0261 59 13.3555 59 12.5294C59 11.7033 58.334 11.0344 57.5116 11.0344V11.0345ZM38.9992 11.8485V12.7908H41.8614V11.8485H38.9992ZM39.909 13.7914V18.278C39.2992 18.4651 38.8549 19.0345 38.8549 19.7081C38.8549 20.5342 39.5225 21.2048 40.3449 21.2048C41.1673 21.2048 41.8331 20.5342 41.8331 19.7081C41.8331 19.0585 41.4212 18.506 40.8454 18.2997V14.7335H41.8613V13.7913H39.9091L39.909 13.7914ZM52.2098 13.7914V14.7336H54.6047V19.8097C54.0042 20.0028 53.5689 20.5694 53.5689 21.2364C53.5688 22.0625 54.2363 22.7314 55.0588 22.7314C55.8812 22.7314 56.5471 22.0625 56.5471 21.2365C56.5471 20.5801 56.1262 20.023 55.541 19.8213V13.7914H52.2097H52.2098ZM43.6016 16.4783V19.3568H44.5397V16.4783H43.6016ZM45.5358 16.4783V21.0899C44.9517 21.292 44.5313 21.8482 44.5313 22.5033C44.5313 23.3293 45.1989 24 46.0213 24C46.8438 24 47.5097 23.3293 47.5097 22.5033C47.5097 21.8357 47.0746 21.2705 46.4738 21.0782V16.4783H45.5358ZM47.513 16.4783V19.3568H48.451L48.4493 16.4783H47.513L47.513 16.4783ZM49.5333 16.4783V23.9401H50.4696V16.4783H49.5333H49.5333Z"/>
</mask>
<path d="M45.5358 0.000106693V6.08496H46.4738V0H45.5358L45.5358 0.000106693ZM39.7947 0.0333497C38.9723 0.0333497 38.3048 0.703856 38.3048 1.52998C38.3048 2.3561 38.9723 3.02501 39.7947 3.02501C40.4659 3.02501 41.0326 2.579 41.2184 1.96618H43.6016V6.08496H44.5397V1.02393H41.1968C40.9906 0.446596 40.4404 0.0333497 39.7947 0.0333497ZM50.0437 0.0333497C49.2213 0.0333497 48.5554 0.703856 48.5554 1.52998C48.5554 2.17587 48.9626 2.72598 49.5334 2.93513V6.08491H50.4697V2.96342C51.0847 2.77952 51.5337 2.2073 51.5337 1.53003C51.5337 0.703856 50.8662 0.0333497 50.0438 0.0333497H50.0437ZM47.5129 3.21146V6.08496H48.4493V3.21146H47.513H47.5129ZM57.5117 3.42616C56.6893 3.42616 56.0217 4.09677 56.0217 4.92289C56.0217 5.61988 56.4963 6.20541 57.1388 6.37131V7.83464H52.2098V8.7753H58.0768V6.30647C58.6189 6.08315 58.9999 5.54822 58.9999 4.92295C58.9999 4.09683 58.334 3.42627 57.5116 3.42627L57.5117 3.42616ZM35 4.87132V5.81363H38.5302V8.77535H41.8615V7.83458H39.4682V4.87127L35 4.87132ZM42.7978 7.02732V15.5361H51.2733V7.02722H42.7979L42.7978 7.02732ZM43.7291 7.86133H44.6656V12.0484L46.3843 13.7748H50.3767V14.7155H45.9948L45.8573 14.5773L45.2871 14.0046C45.2323 14.398 44.8968 14.7005 44.49 14.7005C44.0449 14.7005 43.6844 14.3384 43.6844 13.8914C43.6844 13.4822 43.9865 13.1466 44.3789 13.0923L43.8669 12.5778L43.7293 12.4396V7.86122L43.7291 7.86133ZM46.6429 7.86969H47.5808V10.8164H50.3668L50.3669 11.7587H46.6429V7.86974L46.6429 7.86969ZM36.2165 9.86406V14.6571C35.6071 14.8442 35.164 15.4135 35.164 16.0872C35.164 16.9132 35.83 17.5838 36.6524 17.5838C37.4748 17.5838 38.1423 16.9132 38.1423 16.0872C38.1423 15.4375 37.7292 14.8851 37.1529 14.6788V10.8047H41.8614V9.86411H36.2165V9.86406ZM52.2098 9.86406V10.8047H55.072V9.86411H52.2097L52.2098 9.86406ZM57.5116 11.0345C56.9337 11.0345 56.4328 11.3653 56.1858 11.8485H52.2097L52.2098 12.7908H56.0449C56.1683 13.4923 56.7781 14.0261 57.5117 14.0261C58.3341 14.0261 59 13.3555 59 12.5294C59 11.7033 58.334 11.0344 57.5116 11.0344V11.0345ZM38.9992 11.8485V12.7908H41.8614V11.8485H38.9992ZM39.909 13.7914V18.278C39.2992 18.4651 38.8549 19.0345 38.8549 19.7081C38.8549 20.5342 39.5225 21.2048 40.3449 21.2048C41.1673 21.2048 41.8331 20.5342 41.8331 19.7081C41.8331 19.0585 41.4212 18.506 40.8454 18.2997V14.7335H41.8613V13.7913H39.9091L39.909 13.7914ZM52.2098 13.7914V14.7336H54.6047V19.8097C54.0042 20.0028 53.5689 20.5694 53.5689 21.2364C53.5688 22.0625 54.2363 22.7314 55.0588 22.7314C55.8812 22.7314 56.5471 22.0625 56.5471 21.2365C56.5471 20.5801 56.1262 20.023 55.541 19.8213V13.7914H52.2097H52.2098ZM43.6016 16.4783V19.3568H44.5397V16.4783H43.6016ZM45.5358 16.4783V21.0899C44.9517 21.292 44.5313 21.8482 44.5313 22.5033C44.5313 23.3293 45.1989 24 46.0213 24C46.8438 24 47.5097 23.3293 47.5097 22.5033C47.5097 21.8357 47.0746 21.2705 46.4738 21.0782V16.4783H45.5358ZM47.513 16.4783V19.3568H48.451L48.4493 16.4783H47.513L47.513 16.4783ZM49.5333 16.4783V23.9401H50.4696V16.4783H49.5333H49.5333Z" fill="white" stroke="#FFA101" stroke-width="0.2" mask="url(#path-3-inside-3_2058_201)"/>
<mask id="path-4-inside-4_2058_201" fill="white">
<path d="M44.9747 49.0001V55.3385H45.9519V49H44.9748L44.9747 49.0001ZM38.9945 49.0347C38.1378 49.0347 37.4425 49.7332 37.4425 50.5937C37.4425 51.4543 38.1378 52.151 38.9945 52.151C39.6936 52.151 40.2839 51.6865 40.4775 51.0481H42.96V55.3385H43.9372V50.0666H40.455C40.2402 49.4652 39.6671 49.0347 38.9945 49.0347ZM49.6705 49.0347C48.8139 49.0347 48.1202 49.7332 48.1202 50.5937C48.1202 51.2665 48.5443 51.8396 49.1389 52.0574V55.3384H50.1143V52.0869C50.7549 51.8953 51.2226 51.2993 51.2226 50.5938C51.2226 49.7332 50.5273 49.0347 49.6706 49.0347H49.6705ZM47.0343 52.3453V55.3385H48.0097V52.3453H47.0344H47.0343ZM57.4497 52.5689C56.593 52.5689 55.8976 53.2675 55.8976 54.128C55.8976 54.854 56.392 55.464 57.0612 55.6368V57.1611H51.9269V58.1409H58.0383V55.5692C58.6031 55.3366 58.9999 54.7794 58.9999 54.1281C58.9999 53.2675 58.3062 52.569 57.4496 52.569L57.4497 52.5689ZM34 54.0743V55.0559H37.6773V58.141H41.1474V57.161H38.6544V54.0742L34 54.0743ZM42.1227 56.3201V65.1835H50.9514V56.32H42.1228L42.1227 56.3201ZM43.0928 57.1889H44.0683V61.5504L45.8586 63.3487H50.0174V64.3287H45.4529L45.3096 64.1847L44.7158 63.5881C44.6587 63.998 44.3092 64.313 43.8854 64.313C43.4218 64.313 43.0463 63.9359 43.0463 63.4702C43.0463 63.0439 43.3609 62.6944 43.7697 62.6378L43.2363 62.1019L43.093 61.958V57.1888L43.0928 57.1889ZM46.128 57.1976H47.105V60.2671H50.007L50.0072 61.2487H46.128V57.1977L46.128 57.1976ZM35.2671 59.2751V64.2678C34.6324 64.4627 34.1709 65.0557 34.1709 65.7575C34.1709 66.6179 34.8646 67.3164 35.7213 67.3164C36.5779 67.3164 37.2732 66.6179 37.2732 65.7575C37.2732 65.0808 36.8429 64.5053 36.2426 64.2904V60.2549H41.1473V59.2751H35.2671V59.2751ZM51.9269 59.2751V60.2549H54.9084V59.2751H51.9268L51.9269 59.2751ZM57.4496 60.4943C56.8476 60.4943 56.3258 60.8389 56.0685 61.3422H51.9268L51.9269 62.3238H55.9218C56.0503 63.0545 56.6855 63.6105 57.4497 63.6105C58.3063 63.6105 59 62.912 59 62.0515C59 61.191 58.3063 60.4942 57.4496 60.4942V60.4943ZM38.1658 61.3422V62.3238H41.1473V61.3422H38.1658ZM39.1136 63.3661V68.0396C38.4784 68.2345 38.0156 68.8276 38.0156 69.5293C38.0156 70.3897 38.7109 71.0883 39.5676 71.0883C40.4242 71.0883 41.1178 70.3897 41.1178 69.5293C41.1178 68.8526 40.6888 68.2771 40.0889 68.0622V64.3474H41.1472V63.366H39.1136L39.1136 63.3661ZM51.9269 63.3661V64.3475H54.4215V69.6351C53.796 69.8362 53.3426 70.4265 53.3426 71.1213C53.3425 71.9817 54.0379 72.6786 54.8945 72.6786C55.7512 72.6786 56.4449 71.9817 56.4449 71.1213C56.4449 70.4376 56.0065 69.8573 55.3969 69.6472V63.3661H51.9267H51.9269ZM42.96 66.1649V69.1634H43.9372V66.1649H42.96ZM44.9748 66.1649V70.9687C44.3664 71.1792 43.9285 71.7585 43.9285 72.4409C43.9285 73.3014 44.6239 74 45.4806 74C46.3372 74 47.0309 73.3013 47.0309 72.4409C47.0309 71.7456 46.5777 71.1568 45.9519 70.9564V66.1649H44.9748ZM47.0343 66.1649V69.1634H48.0115L48.0097 66.1649H47.0344L47.0343 66.1649ZM49.1388 66.1649V73.9376H50.1142V66.1649H49.1389H49.1388Z"/>
</mask>
<path d="M44.9747 49.0001V55.3385H45.9519V49H44.9748L44.9747 49.0001ZM38.9945 49.0347C38.1378 49.0347 37.4425 49.7332 37.4425 50.5937C37.4425 51.4543 38.1378 52.151 38.9945 52.151C39.6936 52.151 40.2839 51.6865 40.4775 51.0481H42.96V55.3385H43.9372V50.0666H40.455C40.2402 49.4652 39.6671 49.0347 38.9945 49.0347ZM49.6705 49.0347C48.8139 49.0347 48.1202 49.7332 48.1202 50.5937C48.1202 51.2665 48.5443 51.8396 49.1389 52.0574V55.3384H50.1143V52.0869C50.7549 51.8953 51.2226 51.2993 51.2226 50.5938C51.2226 49.7332 50.5273 49.0347 49.6706 49.0347H49.6705ZM47.0343 52.3453V55.3385H48.0097V52.3453H47.0344H47.0343ZM57.4497 52.5689C56.593 52.5689 55.8976 53.2675 55.8976 54.128C55.8976 54.854 56.392 55.464 57.0612 55.6368V57.1611H51.9269V58.1409H58.0383V55.5692C58.6031 55.3366 58.9999 54.7794 58.9999 54.1281C58.9999 53.2675 58.3062 52.569 57.4496 52.569L57.4497 52.5689ZM34 54.0743V55.0559H37.6773V58.141H41.1474V57.161H38.6544V54.0742L34 54.0743ZM42.1227 56.3201V65.1835H50.9514V56.32H42.1228L42.1227 56.3201ZM43.0928 57.1889H44.0683V61.5504L45.8586 63.3487H50.0174V64.3287H45.4529L45.3096 64.1847L44.7158 63.5881C44.6587 63.998 44.3092 64.313 43.8854 64.313C43.4218 64.313 43.0463 63.9359 43.0463 63.4702C43.0463 63.0439 43.3609 62.6944 43.7697 62.6378L43.2363 62.1019L43.093 61.958V57.1888L43.0928 57.1889ZM46.128 57.1976H47.105V60.2671H50.007L50.0072 61.2487H46.128V57.1977L46.128 57.1976ZM35.2671 59.2751V64.2678C34.6324 64.4627 34.1709 65.0557 34.1709 65.7575C34.1709 66.6179 34.8646 67.3164 35.7213 67.3164C36.5779 67.3164 37.2732 66.6179 37.2732 65.7575C37.2732 65.0808 36.8429 64.5053 36.2426 64.2904V60.2549H41.1473V59.2751H35.2671V59.2751ZM51.9269 59.2751V60.2549H54.9084V59.2751H51.9268L51.9269 59.2751ZM57.4496 60.4943C56.8476 60.4943 56.3258 60.8389 56.0685 61.3422H51.9268L51.9269 62.3238H55.9218C56.0503 63.0545 56.6855 63.6105 57.4497 63.6105C58.3063 63.6105 59 62.912 59 62.0515C59 61.191 58.3063 60.4942 57.4496 60.4942V60.4943ZM38.1658 61.3422V62.3238H41.1473V61.3422H38.1658ZM39.1136 63.3661V68.0396C38.4784 68.2345 38.0156 68.8276 38.0156 69.5293C38.0156 70.3897 38.7109 71.0883 39.5676 71.0883C40.4242 71.0883 41.1178 70.3897 41.1178 69.5293C41.1178 68.8526 40.6888 68.2771 40.0889 68.0622V64.3474H41.1472V63.366H39.1136L39.1136 63.3661ZM51.9269 63.3661V64.3475H54.4215V69.6351C53.796 69.8362 53.3426 70.4265 53.3426 71.1213C53.3425 71.9817 54.0379 72.6786 54.8945 72.6786C55.7512 72.6786 56.4449 71.9817 56.4449 71.1213C56.4449 70.4376 56.0065 69.8573 55.3969 69.6472V63.3661H51.9267H51.9269ZM42.96 66.1649V69.1634H43.9372V66.1649H42.96ZM44.9748 66.1649V70.9687C44.3664 71.1792 43.9285 71.7585 43.9285 72.4409C43.9285 73.3014 44.6239 74 45.4806 74C46.3372 74 47.0309 73.3013 47.0309 72.4409C47.0309 71.7456 46.5777 71.1568 45.9519 70.9564V66.1649H44.9748ZM47.0343 66.1649V69.1634H48.0115L48.0097 66.1649H47.0344L47.0343 66.1649ZM49.1388 66.1649V73.9376H50.1142V66.1649H49.1389H49.1388Z" fill="white" stroke="#FFA101" stroke-width="0.2" mask="url(#path-4-inside-4_2058_201)"/>
<mask id="path-5-inside-5_2058_201" fill="white">
<path d="M10.5358 49.0001V55.592H11.4738V49H10.5358L10.5358 49.0001ZM4.79473 49.0361C3.97232 49.0361 3.30477 49.7625 3.30477 50.6575C3.30477 51.5524 3.97232 52.2771 4.79473 52.2771C5.46589 52.2771 6.03256 51.7939 6.2184 51.13H8.60163V55.592H9.53971V50.1093H6.19676C5.99056 49.4838 5.44038 49.0361 4.79473 49.0361ZM15.0437 49.0361C14.2213 49.0361 13.5554 49.7625 13.5554 50.6575C13.5554 51.3572 13.9626 51.9531 14.5334 52.1797V55.592H15.4697V52.2104C16.0847 52.0111 16.5337 51.3912 16.5337 50.6575C16.5337 49.7625 15.8662 49.0361 15.0438 49.0361H15.0437ZM12.5129 52.4791V55.592H13.4493V52.4791H12.513H12.5129ZM22.5117 52.7117C21.6893 52.7117 21.0217 53.4382 21.0217 54.3331C21.0217 55.0882 21.4963 55.7225 22.1388 55.9022V57.4875H17.2098V58.5066H23.0768V55.832C23.6189 55.5901 23.9999 55.0106 23.9999 54.3332C23.9999 53.4382 23.334 52.7118 22.5116 52.7118L22.5117 52.7117ZM0 54.2773V55.2981H3.53016V58.5066H6.8615V57.4875H4.46825V54.2772L0 54.2773ZM7.79783 56.6129V65.8308H16.2733V56.6128H7.79788L7.79783 56.6129ZM8.72913 57.5164H9.66556V62.0524L11.3843 63.9227H15.3767V64.9418H10.9948L10.8573 64.7921L10.2871 64.1717C10.2323 64.5979 9.89679 64.9255 9.49002 64.9255C9.04495 64.9255 8.68442 64.5333 8.68442 64.049C8.68442 63.6057 8.9865 63.2422 9.37891 63.1833L8.86686 62.6259L8.72928 62.4763V57.5163L8.72913 57.5164ZM11.6429 57.5255H12.5808V60.7178H15.3668L15.3669 61.7386H11.6429V57.5256L11.6429 57.5255ZM1.21646 59.6861V64.8785C0.607091 65.0812 0.164037 65.6979 0.164037 66.4278C0.164037 67.3226 0.829997 68.0491 1.65241 68.0491C2.47482 68.0491 3.14232 67.3227 3.14232 66.4278C3.14232 65.724 2.72918 65.1256 2.1529 64.902V60.7051H6.86145V59.6861H1.21646V59.6861ZM17.2098 59.6861V60.7051H20.072V59.6861H17.2097L17.2098 59.6861ZM22.5116 60.954C21.9337 60.954 21.4328 61.3124 21.1858 61.8359H17.2097L17.2098 62.8567H21.0449C21.1683 63.6167 21.7781 64.1949 22.5117 64.1949C23.3341 64.1949 24 63.4684 24 62.5735C24 61.6786 23.334 60.954 22.5116 60.954V60.954ZM3.99915 61.8359V62.8567H6.86145V61.8359H3.99915ZM4.90902 63.9407V68.8012C4.29922 69.0039 3.85495 69.6207 3.85495 70.3504C3.85495 71.2453 4.5225 71.9718 5.34491 71.9718C6.16727 71.9718 6.83307 71.2453 6.83307 70.3504C6.83307 69.6467 6.4212 69.0482 5.84535 68.8247V64.9613H6.86129V63.9406H4.90907L4.90902 63.9407ZM17.2098 63.9407V64.9614H19.6047V70.4605C19.0042 70.6697 18.5689 71.2835 18.5689 72.0061C18.5688 72.901 19.2363 73.6257 20.0588 73.6257C20.8812 73.6257 21.5471 72.901 21.5471 72.0062C21.5471 71.2951 21.1262 70.6916 20.541 70.4731V63.9407H17.2097H17.2098ZM8.60163 66.8515V69.9699H9.53971V66.8515H8.60163ZM10.5358 66.8515V71.8474C9.95174 72.0664 9.53133 72.6688 9.53133 73.3785C9.53133 74.2734 10.1989 75 11.0213 75C11.8438 75 12.5097 74.2734 12.5097 73.3785C12.5097 72.6554 12.0746 72.043 11.4738 71.8347V66.8515H10.5358ZM12.513 66.8515V69.9699H13.451L13.4493 66.8515H12.513L12.513 66.8515ZM14.5333 66.8515V74.9351H15.4696V66.8515H14.5333H14.5333Z"/>
</mask>
<path d="M10.5358 49.0001V55.592H11.4738V49H10.5358L10.5358 49.0001ZM4.79473 49.0361C3.97232 49.0361 3.30477 49.7625 3.30477 50.6575C3.30477 51.5524 3.97232 52.2771 4.79473 52.2771C5.46589 52.2771 6.03256 51.7939 6.2184 51.13H8.60163V55.592H9.53971V50.1093H6.19676C5.99056 49.4838 5.44038 49.0361 4.79473 49.0361ZM15.0437 49.0361C14.2213 49.0361 13.5554 49.7625 13.5554 50.6575C13.5554 51.3572 13.9626 51.9531 14.5334 52.1797V55.592H15.4697V52.2104C16.0847 52.0111 16.5337 51.3912 16.5337 50.6575C16.5337 49.7625 15.8662 49.0361 15.0438 49.0361H15.0437ZM12.5129 52.4791V55.592H13.4493V52.4791H12.513H12.5129ZM22.5117 52.7117C21.6893 52.7117 21.0217 53.4382 21.0217 54.3331C21.0217 55.0882 21.4963 55.7225 22.1388 55.9022V57.4875H17.2098V58.5066H23.0768V55.832C23.6189 55.5901 23.9999 55.0106 23.9999 54.3332C23.9999 53.4382 23.334 52.7118 22.5116 52.7118L22.5117 52.7117ZM0 54.2773V55.2981H3.53016V58.5066H6.8615V57.4875H4.46825V54.2772L0 54.2773ZM7.79783 56.6129V65.8308H16.2733V56.6128H7.79788L7.79783 56.6129ZM8.72913 57.5164H9.66556V62.0524L11.3843 63.9227H15.3767V64.9418H10.9948L10.8573 64.7921L10.2871 64.1717C10.2323 64.5979 9.89679 64.9255 9.49002 64.9255C9.04495 64.9255 8.68442 64.5333 8.68442 64.049C8.68442 63.6057 8.9865 63.2422 9.37891 63.1833L8.86686 62.6259L8.72928 62.4763V57.5163L8.72913 57.5164ZM11.6429 57.5255H12.5808V60.7178H15.3668L15.3669 61.7386H11.6429V57.5256L11.6429 57.5255ZM1.21646 59.6861V64.8785C0.607091 65.0812 0.164037 65.6979 0.164037 66.4278C0.164037 67.3226 0.829997 68.0491 1.65241 68.0491C2.47482 68.0491 3.14232 67.3227 3.14232 66.4278C3.14232 65.724 2.72918 65.1256 2.1529 64.902V60.7051H6.86145V59.6861H1.21646V59.6861ZM17.2098 59.6861V60.7051H20.072V59.6861H17.2097L17.2098 59.6861ZM22.5116 60.954C21.9337 60.954 21.4328 61.3124 21.1858 61.8359H17.2097L17.2098 62.8567H21.0449C21.1683 63.6167 21.7781 64.1949 22.5117 64.1949C23.3341 64.1949 24 63.4684 24 62.5735C24 61.6786 23.334 60.954 22.5116 60.954V60.954ZM3.99915 61.8359V62.8567H6.86145V61.8359H3.99915ZM4.90902 63.9407V68.8012C4.29922 69.0039 3.85495 69.6207 3.85495 70.3504C3.85495 71.2453 4.5225 71.9718 5.34491 71.9718C6.16727 71.9718 6.83307 71.2453 6.83307 70.3504C6.83307 69.6467 6.4212 69.0482 5.84535 68.8247V64.9613H6.86129V63.9406H4.90907L4.90902 63.9407ZM17.2098 63.9407V64.9614H19.6047V70.4605C19.0042 70.6697 18.5689 71.2835 18.5689 72.0061C18.5688 72.901 19.2363 73.6257 20.0588 73.6257C20.8812 73.6257 21.5471 72.901 21.5471 72.0062C21.5471 71.2951 21.1262 70.6916 20.541 70.4731V63.9407H17.2097H17.2098ZM8.60163 66.8515V69.9699H9.53971V66.8515H8.60163ZM10.5358 66.8515V71.8474C9.95174 72.0664 9.53133 72.6688 9.53133 73.3785C9.53133 74.2734 10.1989 75 11.0213 75C11.8438 75 12.5097 74.2734 12.5097 73.3785C12.5097 72.6554 12.0746 72.043 11.4738 71.8347V66.8515H10.5358ZM12.513 66.8515V69.9699H13.451L13.4493 66.8515H12.513L12.513 66.8515ZM14.5333 66.8515V74.9351H15.4696V66.8515H14.5333H14.5333Z" fill="white" stroke="#FFA101" stroke-width="0.2" mask="url(#path-5-inside-5_2058_201)"/>
</svg>
