<svg width="14" height="15" viewBox="0 0 14 15" fill="none" xmlns="http://www.w3.org/2000/svg">
<path d="M9.1875 8.90617C9.1875 9.03049 9.14141 9.14971 9.05936 9.23762C8.97731 9.32553 8.86603 9.37492 8.75 9.37492H5.25C5.13397 9.37492 5.02269 9.32553 4.94064 9.23762C4.85859 9.14971 4.8125 9.03049 4.8125 8.90617C4.8125 8.78184 4.85859 8.66262 4.94064 8.57471C5.02269 8.4868 5.13397 8.43742 5.25 8.43742H8.75C8.86603 8.43742 8.97731 8.4868 9.05936 8.57471C9.14141 8.66262 9.1875 8.78184 9.1875 8.90617ZM8.75 6.56242H5.25C5.13397 6.56242 5.02269 6.6118 4.94064 6.69971C4.85859 6.78762 4.8125 6.90684 4.8125 7.03117C4.8125 7.15549 4.85859 7.27471 4.94064 7.36262C5.02269 7.45053 5.13397 7.49992 5.25 7.49992H8.75C8.86603 7.49992 8.97731 7.45053 9.05936 7.36262C9.14141 7.27471 9.1875 7.15549 9.1875 7.03117C9.1875 6.90684 9.14141 6.78762 9.05936 6.69971C8.97731 6.6118 8.86603 6.56242 8.75 6.56242ZM11.8125 2.81242V12.6562C11.8125 12.9048 11.7203 13.1433 11.5562 13.3191C11.3921 13.4949 11.1696 13.5937 10.9375 13.5937H3.0625C2.83044 13.5937 2.60788 13.4949 2.44378 13.3191C2.27969 13.1433 2.1875 12.9048 2.1875 12.6562V2.81242C2.1875 2.56377 2.27969 2.32532 2.44378 2.1495C2.60788 1.97369 2.83044 1.87492 3.0625 1.87492H5.04547C5.29129 1.58003 5.59247 1.34409 5.92929 1.18255C6.26611 1.021 6.63097 0.9375 7 0.9375C7.36903 0.9375 7.73389 1.021 8.07071 1.18255C8.40753 1.34409 8.70871 1.58003 8.95453 1.87492H10.9375C11.1696 1.87492 11.3921 1.97369 11.5562 2.1495C11.7203 2.32532 11.8125 2.56377 11.8125 2.81242ZM5.25 3.74992H8.75C8.75 3.25263 8.56563 2.77572 8.23744 2.42409C7.90925 2.07246 7.46413 1.87492 7 1.87492C6.53587 1.87492 6.09075 2.07246 5.76256 2.42409C5.43437 2.77572 5.25 3.25263 5.25 3.74992ZM10.9375 2.81242H9.47461C9.57413 3.11348 9.62499 3.43053 9.625 3.74992V4.21867C9.625 4.34299 9.57891 4.46221 9.49686 4.55012C9.41481 4.63803 9.30353 4.68742 9.1875 4.68742H4.8125C4.69647 4.68742 4.58519 4.63803 4.50314 4.55012C4.42109 4.46221 4.375 4.34299 4.375 4.21867V3.74992C4.37501 3.43053 4.42587 3.11348 4.52539 2.81242H3.0625V12.6562H10.9375V2.81242Z" fill="#FFA101"/>
</svg>
