<svg width="327" height="214" viewBox="0 0 327 214" fill="none" xmlns="http://www.w3.org/2000/svg">
<mask id="mask0_30_736" style="mask-type:alpha" maskUnits="userSpaceOnUse" x="-1" y="0" width="328" height="214">
<path d="M-0.000244141 5.86572C-0.000244141 3.10429 2.23833 0.865723 4.99976 0.865723H286.464C289.225 0.865723 291.464 3.1043 291.464 5.86572V43.6307C291.464 46.3922 293.702 48.6307 296.464 48.6307H322C324.761 48.6307 327 50.8693 327 53.6307V208.866C327 211.627 324.761 213.866 322 213.866H4.99975C2.23833 213.866 -0.000244141 211.627 -0.000244141 208.866V5.86572Z" fill="#252422"/>
</mask>
<g mask="url(#mask0_30_736)">
<path d="M0.499756 5.86572C0.499756 3.38044 2.51447 1.36572 4.99976 1.36572H208.088C210.574 1.36572 212.588 3.38044 212.588 5.86572V48.2435C212.588 51.281 215.051 53.7435 218.088 53.7435H322C324.485 53.7435 326.5 55.7582 326.5 58.2435V208.866C326.5 211.351 324.485 213.366 322 213.366H4.99975C2.51447 213.366 0.499756 211.351 0.499756 208.866V5.86572Z" fill="#100F15" stroke="#FFA101"/>
<mask id="mask1_30_736" style="mask-type:alpha" maskUnits="userSpaceOnUse" x="29" y="0" width="269" height="214">
<path d="M29.5 5.98926C29.5 3.50398 31.5147 1.48926 34 1.48926H199.293C201.778 1.48926 203.793 3.50398 203.793 5.98926V61.9607C203.793 64.9983 206.255 67.4607 209.293 67.4607H293C295.485 67.4607 297.5 69.4754 297.5 71.9607V208.742C297.5 211.227 295.485 213.242 293 213.242H34C31.5147 213.242 29.5 211.227 29.5 208.742V5.98926Z" fill="#100F15" stroke="#FFA101"/>
</mask>
<g mask="url(#mask1_30_736)">
<g opacity="0.05">
<path d="M163.839 51.811L161.242 48.8452C159.423 46.7678 159.423 43.3997 161.242 41.3223L254.506 -65.169C256.133 -67.0267 258.771 -67.0267 260.398 -65.169C262.025 -63.3113 262.025 -60.2994 260.398 -58.4417L163.839 51.811Z" fill="#D9D9D9"/>
<path d="M67.2806 -58.4417C65.6536 -60.2994 65.6536 -63.3113 67.2805 -65.169C68.9075 -67.0267 71.5453 -67.0267 73.1723 -65.169L166.437 41.3224C168.256 43.3997 168.256 46.7678 166.437 48.8452L163.839 51.811L67.2806 -58.4417Z" fill="#D9D9D9"/>
</g>
<g opacity="0.05">
<path d="M163.426 112.293L157.34 105.345C155.521 103.268 155.521 99.8999 157.34 97.8226L309.158 -75.5258C310.977 -77.6032 313.927 -77.6032 315.747 -75.5258L318.537 -72.3391C320.357 -70.2618 320.357 -66.8937 318.537 -64.8163L163.426 112.293Z" fill="#D9D9D9"/>
<path d="M8.31365 -64.8163C6.49431 -66.8937 6.4943 -70.2618 8.31365 -72.3391L11.1045 -75.5258C12.9239 -77.6032 15.8736 -77.6032 17.693 -75.5258L169.511 97.8226C171.33 99.9 171.33 103.268 169.511 105.345L163.426 112.293L8.31365 -64.8163Z" fill="#D9D9D9"/>
</g>
</g>
</g>
</svg>
