<svg width="78" height="78" viewBox="0 0 78 78" fill="none" xmlns="http://www.w3.org/2000/svg">
<path d="M68.25 14.625H9.75C8.45707 14.625 7.21709 15.1386 6.30285 16.0529C5.38861 16.9671 4.875 18.2071 4.875 19.5V58.5C4.875 59.7929 5.38861 61.0329 6.30285 61.9471C7.21709 62.8614 8.45707 63.375 9.75 63.375H68.25C69.5429 63.375 70.7829 62.8614 71.6971 61.9471C72.6114 61.0329 73.125 59.7929 73.125 58.5V19.5C73.125 18.2071 72.6114 16.9671 71.6971 16.0529C70.7829 15.1386 69.5429 14.625 68.25 14.625ZM68.25 19.5V26.8125H9.75V19.5H68.25ZM68.25 58.5H9.75V31.6875H68.25V58.5ZM63.375 51.1875C63.375 51.834 63.1182 52.454 62.6611 52.9111C62.204 53.3682 61.584 53.625 60.9375 53.625H51.1875C50.541 53.625 49.921 53.3682 49.4639 52.9111C49.0068 52.454 48.75 51.834 48.75 51.1875C48.75 50.541 49.0068 49.921 49.4639 49.4639C49.921 49.0068 50.541 48.75 51.1875 48.75H60.9375C61.584 48.75 62.204 49.0068 62.6611 49.4639C63.1182 49.921 63.375 50.541 63.375 51.1875ZM43.875 51.1875C43.875 51.834 43.6182 52.454 43.1611 52.9111C42.704 53.3682 42.084 53.625 41.4375 53.625H36.5625C35.916 53.625 35.296 53.3682 34.8389 52.9111C34.3818 52.454 34.125 51.834 34.125 51.1875C34.125 50.541 34.3818 49.921 34.8389 49.4639C35.296 49.0068 35.916 48.75 36.5625 48.75H41.4375C42.084 48.75 42.704 49.0068 43.1611 49.4639C43.6182 49.921 43.875 50.541 43.875 51.1875Z" fill="white"/>
</svg>
