<svg width="327" height="249" viewBox="0 0 327 249" fill="none" xmlns="http://www.w3.org/2000/svg">
<mask id="mask0_30_701" style="mask-type:alpha" maskUnits="userSpaceOnUse" x="0" y="0" width="327" height="249">
<path d="M0 5C0 2.23858 2.23858 0 5 0H286.464C289.225 0 291.464 2.23858 291.464 5V44.3348C291.464 47.0962 293.702 49.3348 296.464 49.3348H322C324.761 49.3348 327 51.5733 327 54.3348V244C327 246.761 324.761 249 322 249H163.5H5C2.23858 249 0 246.761 0 244V5Z" fill="#252422"/>
</mask>
<g mask="url(#mask0_30_701)">
<path d="M326.5 57.3777V243C326.5 245.485 324.485 247.5 322 247.5H163.5H5C2.51472 247.5 0.5 245.485 0.5 243V5C0.5 2.51471 2.51472 0.5 5 0.5H208.089C210.574 0.5 212.589 2.51472 212.589 5V47.3777C212.589 50.4153 215.051 52.8777 218.089 52.8777H322C324.485 52.8777 326.5 54.8924 326.5 57.3777Z" fill="#100F15" stroke="#FFA101"/>
<mask id="mask1_30_701" style="mask-type:alpha" maskUnits="userSpaceOnUse" x="29" y="0" width="269" height="213">
<path d="M297.5 71.095V207.876C297.5 210.361 295.485 212.376 293 212.376H34C31.5147 212.376 29.5 210.361 29.5 207.876V5.12354C29.5 2.63826 31.5147 0.623535 34 0.623535H199.293C201.778 0.623535 203.793 2.63825 203.793 5.12354V61.095C203.793 64.1326 206.255 66.595 209.293 66.595H293C295.485 66.595 297.5 68.6097 297.5 71.095Z" fill="#100F15" stroke="#FFA101"/>
</mask>
<g mask="url(#mask1_30_701)">
<g opacity="0.05">
<path d="M163.807 27.3823L161.67 24.9426C159.851 22.8652 159.851 19.4972 161.67 17.4198L247.383 -80.4482C248.882 -82.1606 251.314 -82.1606 252.814 -80.4482V-80.4482C254.313 -78.7358 254.313 -75.9595 252.814 -74.2471L163.807 27.3823Z" fill="#D9D9D9"/>
<path d="M74.8006 -74.2471C73.3009 -75.9595 73.3009 -78.7358 74.8006 -80.4482V-80.4482C76.3003 -82.1606 78.7318 -82.1606 80.2315 -80.4482L165.944 17.4198C167.763 19.4972 167.763 22.8652 165.944 24.9426L163.807 27.3823L74.8006 -74.2471Z" fill="#D9D9D9"/>
</g>
<g opacity="0.05">
<path d="M163.426 83.1343L158.074 77.0238C156.255 74.9465 156.255 71.5784 158.074 69.501L297.502 -89.7006C299.321 -91.778 302.271 -91.778 304.091 -89.7006L306.148 -87.3516C307.967 -85.2742 307.967 -81.9062 306.148 -79.8288L163.426 83.1343Z" fill="#D9D9D9"/>
<path d="M20.7033 -79.8288C18.8839 -81.9062 18.8839 -85.2742 20.7033 -87.3516L22.7606 -89.7006C24.5799 -91.778 27.5296 -91.778 29.349 -89.7006L168.777 69.501C170.596 71.5784 170.596 74.9465 168.777 77.0238L163.426 83.1343L20.7033 -79.8288Z" fill="#D9D9D9"/>
</g>
</g>
</g>
</svg>
