<svg width="1032" height="817" viewBox="0 0 1032 817" fill="none" xmlns="http://www.w3.org/2000/svg">
<mask id="mask0_1_626" style="mask-type:alpha" maskUnits="userSpaceOnUse" x="0" y="0" width="1032" height="817">
<path d="M0 25C0 11.1929 11.1929 0 25 0H894.849C908.656 0 919.849 11.1929 919.849 25V158.034C919.849 171.841 931.042 183.034 944.849 183.034H1007C1020.81 183.034 1032 194.227 1032 208.034V791.21C1032 805.017 1020.81 816.21 1007 816.21H25C11.1929 816.21 0 805.017 0 791.21V25Z" fill="#252422"/>
</mask>
<g mask="url(#mask0_1_626)">
<path d="M0.5 25C0.5 11.469 11.469 0.5 25 0.5H647.5C661.031 0.5 672 11.469 672 25V175.71C672 189.793 683.417 201.21 697.5 201.21H1007C1020.53 201.21 1031.5 212.179 1031.5 225.71V791.21C1031.5 804.741 1020.53 815.71 1007 815.71H25C11.469 815.71 0.5 804.741 0.5 791.21V25Z" fill="#100F15" stroke="#FFA101"/>
<mask id="mask1_1_626" style="mask-type:alpha" maskUnits="userSpaceOnUse" x="0" y="0" width="1032" height="817">
<path d="M0.5 25C0.5 11.469 11.469 0.5 25 0.5H647.5C661.031 0.5 672 11.469 672 25V228.095C672 242.178 683.417 253.595 697.5 253.595H1007C1020.53 253.595 1031.5 264.564 1031.5 278.095V791.21C1031.5 804.741 1020.53 815.71 1007 815.71H25C11.469 815.71 0.5 804.741 0.5 791.21V25Z" fill="#100F15" stroke="#FFA101"/>
</mask>
<g mask="url(#mask1_1_626)">
<g opacity="0.05">
<path d="M517.302 194.973C504.818 180.719 504.818 157.609 517.302 143.356L865.14 -253.813C871.382 -260.94 881.501 -260.94 887.743 -253.813C893.985 -246.686 893.985 -235.131 887.743 -228.004L517.302 194.973Z" fill="#D9D9D9"/>
<path d="M146.86 -228.004C140.619 -235.131 140.619 -246.686 146.86 -253.813C153.102 -260.94 163.222 -260.94 169.464 -253.813L517.302 143.356C529.785 157.609 529.785 180.719 517.302 194.973L146.86 -228.004Z" fill="#D9D9D9"/>
</g>
<g opacity="0.05">
<path d="M515.714 427.01C495.841 404.319 495.841 367.529 515.714 344.838L1069.45 -287.433C1079.39 -298.779 1095.5 -298.779 1105.44 -287.433C1115.37 -276.087 1115.37 -257.692 1105.44 -246.347L515.714 427.01Z" fill="#D9D9D9"/>
<path d="M-74.0084 -246.347C-83.9449 -257.692 -83.9449 -276.087 -74.0084 -287.433C-64.072 -298.779 -47.9618 -298.779 -38.0253 -287.433L515.714 344.838C535.587 367.529 535.587 404.319 515.714 427.01L-74.0084 -246.347Z" fill="#D9D9D9"/>
</g>
</g>
</g>
</svg>
