<svg width="66" height="66" viewBox="0 0 66 66" fill="none" xmlns="http://www.w3.org/2000/svg">
<path d="M28.9733 0.000293405V16.7336H31.5529V0H28.9735L28.9733 0.000293405ZM13.1855 0.0917117C10.9239 0.0917117 9.0881 1.93561 9.0881 4.20744C9.0881 6.47927 10.9239 8.31876 13.1855 8.31876C15.0312 8.31876 16.5896 7.09224 17.1006 5.40701H23.6545V16.7336H26.2342V2.8158H17.0411C16.474 1.22814 14.961 0.0917117 13.1855 0.0917117ZM41.3702 0.0917117C39.1086 0.0917117 37.2774 1.93561 37.2774 4.20744C37.2774 5.98364 38.397 7.49644 39.9668 8.07161V16.7335H42.5417V8.14941C44.2329 7.64368 45.4678 6.07008 45.4678 4.20758C45.4678 1.93561 43.632 0.0917117 41.3704 0.0917117H41.3702ZM34.4105 8.83153V16.7336H36.9857V8.83153H34.4108H34.4105ZM61.9071 9.42194C59.6455 9.42194 57.8097 11.2661 57.8097 13.538C57.8097 15.4547 59.1148 17.0649 60.8817 17.5211V21.5453H47.327V24.1321H63.4611V17.3428C64.9521 16.7287 65.9998 15.2576 65.9998 13.5381C65.9998 11.2663 64.1685 9.42223 61.9068 9.42223L61.9071 9.42194ZM0 13.3961V15.9875H9.70795V24.1322H18.8691V21.5451H12.2877V13.396L0 13.3961ZM21.444 19.3251V42.7244H44.7517V19.3248H21.4442L21.444 19.3251ZM24.0051 21.6187H26.5803V33.1331L31.3067 37.8807H42.286V40.4677H30.2358L29.8575 40.0876L28.2896 38.5127C28.139 39.5946 27.2162 40.4263 26.0975 40.4263C24.8736 40.4263 23.8821 39.4307 23.8821 38.2014C23.8821 37.0759 24.7129 36.1533 25.792 36.0038L24.3839 34.5889L24.0055 34.209V21.6184L24.0051 21.6187ZM32.0179 21.6417H34.5973V29.7452H42.2586L42.2589 32.3366H32.018V21.6418L32.0179 21.6417ZM3.34527 27.1262V40.3069C1.6695 40.8215 0.451102 42.387 0.451102 44.2397C0.451102 46.5112 2.28249 48.3554 4.54413 48.3554C6.80576 48.3554 8.64138 46.5114 8.64138 44.2398C8.64138 42.4532 7.50524 40.9341 5.92047 40.3666V29.7128H18.869V27.1263H3.34527V27.1262ZM47.327 27.1262V29.7128H55.1981V27.1263H47.3267L47.327 27.1262ZM61.907 30.3448C60.3175 30.3448 58.9402 31.2546 58.2608 32.5834H47.3267L47.327 35.1748H57.8736C58.2127 37.1039 59.8898 38.5718 61.9071 38.5718C64.1688 38.5718 66 36.7276 66 34.4559C66 32.1842 64.1686 30.3447 61.907 30.3447V30.3448ZM10.9977 32.5834V35.1748H18.869V32.5834H10.9977ZM13.4998 37.9264V50.2645C11.8229 50.7792 10.6011 52.3448 10.6011 54.1972C10.6011 56.4689 12.4369 58.3131 14.6985 58.3131C16.96 58.3131 18.791 56.4689 18.791 54.1972C18.791 52.4108 17.6583 50.8915 16.0747 50.3241V40.5172H18.8685V37.9261H13.4999L13.4998 37.9264ZM47.327 37.9264V40.5175H53.9129V54.4768C52.2614 55.0077 51.0645 56.5659 51.0645 58.4001C51.0642 60.6718 52.9 62.5115 55.1616 62.5115C57.4232 62.5115 59.2545 60.6718 59.2545 58.4003C59.2545 56.5953 58.0972 55.0632 56.4878 54.5087V37.9264H47.3266H47.327ZM23.6545 45.3153V53.2313H26.2342V45.3153H23.6545ZM28.9735 45.3153V57.9972C27.3673 58.5531 26.2112 60.0824 26.2112 61.884C26.2112 64.1557 28.0471 66 30.3087 66C32.5703 66 34.4016 64.1555 34.4016 61.884C34.4016 60.0483 33.2052 58.4939 31.5529 57.965V45.3153H28.9735ZM34.4106 45.3153V53.2313H36.9903L36.9857 45.3155H34.4108L34.4106 45.3153ZM39.9665 45.3153V65.8352H42.5414V45.3153H39.9666H39.9665Z" fill="#FFA101"/>
</svg>
