<svg width="17" height="14" viewBox="0 0 17 14" fill="none" xmlns="http://www.w3.org/2000/svg">
<path d="M10.0938 6.5625H9.03125V3.0625H9.5625C10.1261 3.0625 10.6666 3.24687 11.0651 3.57506C11.4636 3.90325 11.6875 4.34837 11.6875 4.8125C11.6875 4.92853 11.7435 5.03981 11.8431 5.12186C11.9427 5.20391 12.0779 5.25 12.2188 5.25C12.3596 5.25 12.4948 5.20391 12.5944 5.12186C12.694 5.03981 12.75 4.92853 12.75 4.8125C12.7491 4.11653 12.413 3.44927 11.8154 2.95714C11.2179 2.46502 10.4076 2.18822 9.5625 2.1875H9.03125V1.3125C9.03125 1.19647 8.97528 1.08519 8.87565 1.00314C8.77602 0.921094 8.6409 0.875 8.5 0.875C8.3591 0.875 8.22398 0.921094 8.12435 1.00314C8.02472 1.08519 7.96875 1.19647 7.96875 1.3125V2.1875H7.4375C6.59212 2.1875 5.78137 2.46406 5.1836 2.95634C4.58583 3.44863 4.25 4.11631 4.25 4.8125C4.25 5.50869 4.58583 6.17637 5.1836 6.66866C5.78137 7.16094 6.59212 7.4375 7.4375 7.4375H7.96875V10.9375H6.90625C6.34266 10.9375 5.80216 10.7531 5.40365 10.4249C5.00513 10.0967 4.78125 9.65163 4.78125 9.1875C4.78125 9.07147 4.72528 8.96019 4.62565 8.87814C4.52602 8.79609 4.3909 8.75 4.25 8.75C4.1091 8.75 3.97398 8.79609 3.87435 8.87814C3.77472 8.96019 3.71875 9.07147 3.71875 9.1875C3.71963 9.88347 4.05574 10.5507 4.65332 11.0429C5.2509 11.535 6.06114 11.8118 6.90625 11.8125H7.96875V12.6875C7.96875 12.8035 8.02472 12.9148 8.12435 12.9969C8.22398 13.0789 8.3591 13.125 8.5 13.125C8.6409 13.125 8.77602 13.0789 8.87565 12.9969C8.97528 12.9148 9.03125 12.8035 9.03125 12.6875V11.8125H10.0938C10.9391 11.8125 11.7499 11.5359 12.3477 11.0437C12.9454 10.5514 13.2812 9.88369 13.2812 9.1875C13.2812 8.49131 12.9454 7.82363 12.3477 7.33134C11.7499 6.83906 10.9391 6.5625 10.0938 6.5625ZM7.4375 6.5625C6.87391 6.5625 6.33341 6.37813 5.9349 6.04994C5.53638 5.72175 5.3125 5.27663 5.3125 4.8125C5.3125 4.34837 5.53638 3.90325 5.9349 3.57506C6.33341 3.24687 6.87391 3.0625 7.4375 3.0625H7.96875V6.5625H7.4375ZM10.0938 10.9375H9.03125V7.4375H10.0938C10.6573 7.4375 11.1978 7.62187 11.5964 7.95006C11.9949 8.27825 12.2188 8.72337 12.2188 9.1875C12.2188 9.65163 11.9949 10.0967 11.5964 10.4249C11.1978 10.7531 10.6573 10.9375 10.0938 10.9375Z" fill="#FFA101"/>
</svg>
