<svg width="49" height="41" viewBox="0 0 49 41" fill="none" xmlns="http://www.w3.org/2000/svg">
<g clip-path="url(#clip0_1_470)">
<path d="M36.6276 30.6477C33.1375 32.8736 28.8878 34.1068 24.5001 34.1668C10.2084 34.1668 2.04175 20.5002 2.04175 20.5002C4.58136 16.5401 8.10373 13.0802 12.3726 10.3527M20.2126 7.2435C21.6179 6.96825 23.0568 6.83066 24.5001 6.8335C38.7917 6.8335 46.9584 20.5002 46.9584 20.5002C45.7191 22.4402 44.2411 24.2666 42.5484 25.9497M28.8284 24.1218C28.2677 24.6254 27.5915 25.0292 26.8401 25.3093C26.0888 25.5894 25.2778 25.7401 24.4553 25.7522C23.6329 25.7643 22.816 25.6378 22.0534 25.38C21.2907 25.1222 20.5979 24.7386 20.0163 24.2519C19.4346 23.7653 18.9761 23.1856 18.6681 22.5474C18.36 21.9093 18.2087 21.2257 18.2232 20.5376C18.2378 19.8495 18.4178 19.1708 18.7525 18.5422C19.0873 17.9135 19.57 17.3477 20.1717 16.8785M2.04175 1.7085L46.9584 39.2918" stroke="white" stroke-width="4" stroke-linecap="round" stroke-linejoin="round"/>
</g>
<defs>
<clipPath id="clip0_1_470">
<rect width="49" height="41" fill="white"/>
</clipPath>
</defs>
</svg>
