<svg width="47" height="68" viewBox="0 0 47 68" fill="none" xmlns="http://www.w3.org/2000/svg">
<path d="M29.3114 4.25611L24.2762 29.4849L42.5171 29.5435L17.6879 63.745L22.7231 35.9892L4.48331 35.9285L29.3114 4.25611ZM29.3148 0.000133004C29.1943 0.000133004 29.0739 0.00432255 28.9556 0.0127681C28.1679 0.0734832 27.6457 0.32459 27.0265 0.721466C26.6779 0.943136 26.3635 1.21032 26.0927 1.51522C26.0113 1.60675 25.9346 1.70191 25.8628 1.80037L0.856099 33.3621C-0.131314 34.6528 -0.276358 36.3563 0.482332 37.78C1.23991 39.2036 2.77179 40.1059 4.45095 40.1176L17.3331 40.207L13.283 62.963C12.8981 64.9186 13.9915 66.8679 15.9161 67.6531C16.4754 67.8824 17.0779 68.0004 17.6867 68C19.0891 68 20.2417 67.3744 21.1064 66.2444L46.1443 32.0428C47.1318 30.752 47.2758 29.0464 46.5181 27.6249C45.7605 26.2013 44.2286 25.2989 42.5495 25.2873L29.6674 25.266L33.6739 5.25728C33.7588 4.9297 33.8015 4.59348 33.8012 4.25604C33.8012 1.95352 31.8787 0.0766088 29.4732 0.00212802C29.4198 2.32831e-10 29.3672 0 29.3149 0L29.3148 0.000133004Z" fill="#FFA101"/>
</svg>
