<svg width="15" height="15" viewBox="0 0 15 15" fill="none" xmlns="http://www.w3.org/2000/svg">
<path d="M7.5 1.40625C6.29477 1.40625 5.11661 1.76364 4.1145 2.43323C3.11238 3.10282 2.33133 4.05454 1.87011 5.16802C1.40889 6.28151 1.28821 7.50676 1.52334 8.68883C1.75847 9.8709 2.33884 10.9567 3.19107 11.8089C4.0433 12.6612 5.1291 13.2415 6.31117 13.4767C7.49324 13.7118 8.71849 13.5911 9.83198 13.1299C10.9455 12.6687 11.8972 11.8876 12.5668 10.8855C13.2364 9.88339 13.5938 8.70523 13.5938 7.5C13.5919 5.88441 12.9493 4.33552 11.8069 3.19312C10.6645 2.05073 9.11559 1.40811 7.5 1.40625ZM12.6563 7.5C12.6567 7.97552 12.591 8.4488 12.4611 8.90625H10.2047C10.3484 7.97426 10.3484 7.02574 10.2047 6.09375H12.4611C12.591 6.5512 12.6567 7.02448 12.6563 7.5ZM5.97657 9.84375H9.02344C8.72327 10.8273 8.20218 11.7292 7.5 12.4805C6.79809 11.729 6.27704 10.8272 5.97657 9.84375ZM5.74805 8.90625C5.58712 7.97566 5.58712 7.02434 5.74805 6.09375H9.25664C9.41758 7.02434 9.41758 7.97566 9.25664 8.90625H5.74805ZM2.34375 7.5C2.34334 7.02448 2.40901 6.5512 2.53887 6.09375H4.79532C4.65156 7.02574 4.65156 7.97426 4.79532 8.90625H2.53887C2.40901 8.4488 2.34334 7.97552 2.34375 7.5ZM9.02344 5.15625H5.97657C6.27673 4.1727 6.79783 3.27081 7.5 2.51953C8.20191 3.27101 8.72297 4.17283 9.02344 5.15625ZM12.0897 5.15625H10.0025C9.73949 4.19116 9.29614 3.28458 8.6959 2.48438C9.42112 2.65859 10.1001 2.98756 10.6863 3.44874C11.2725 3.90992 11.752 4.4924 12.092 5.15625H12.0897ZM6.3041 2.48438C5.70387 3.28458 5.26052 4.19116 4.99746 5.15625H2.90801C3.24801 4.4924 3.72754 3.90992 4.31373 3.44874C4.89991 2.98756 5.57888 2.65859 6.3041 2.48438ZM2.90801 9.84375H4.99746C5.26052 10.8088 5.70387 11.7154 6.3041 12.5156C5.57888 12.3414 4.89991 12.0124 4.31373 11.5513C3.72754 11.0901 3.24801 10.5076 2.90801 9.84375ZM8.6959 12.5156C9.29614 11.7154 9.73949 10.8088 10.0025 9.84375H12.092C11.752 10.5076 11.2725 11.0901 10.6863 11.5513C10.1001 12.0124 9.42112 12.3414 8.6959 12.5156Z" fill="#FFA101"/>
</svg>
