<svg width="569" height="114" viewBox="0 0 569 114" fill="none" xmlns="http://www.w3.org/2000/svg">
<path d="M51.04 113.92C35.1467 113.92 22.72 109.493 13.76 100.64C4.8 91.7867 0.320001 79.1467 0.320001 62.72V-7.62939e-06H26.24V61.76C26.24 72.4267 28.4267 80.1067 32.8 84.8C37.1733 89.4933 43.3067 91.84 51.2 91.84C59.0933 91.84 65.2267 89.4933 69.6 84.8C73.9733 80.1067 76.16 72.4267 76.16 61.76V-7.62939e-06H101.76V62.72C101.76 79.1467 97.28 91.7867 88.32 100.64C79.36 109.493 66.9333 113.92 51.04 113.92ZM127.374 112V-7.62939e-06H148.814L214.894 80.64H204.494V-7.62939e-06H230.094V112H208.814L142.574 31.36H152.974V112H127.374ZM256.593 112V-7.62939e-06H282.513V112H256.593Z" fill="#FFA101"/>
<path d="M309.093 112V-7.62939e-06H363.813C377.893 -7.62939e-06 388.453 2.66666 395.493 7.99999C402.639 13.3333 406.213 20.3733 406.213 29.12C406.213 34.9867 404.773 40.1067 401.893 44.48C399.013 48.7467 395.066 52.0533 390.053 54.4C385.039 56.7467 379.279 57.92 372.773 57.92L375.812 51.36C382.853 51.36 389.093 52.5333 394.533 54.88C399.973 57.12 404.186 60.48 407.173 64.96C410.266 69.44 411.813 74.9333 411.813 81.44C411.813 91.04 408.026 98.56 400.453 104C392.879 109.333 381.733 112 367.013 112H309.093ZM334.853 92.48H365.093C371.813 92.48 376.879 91.4133 380.292 89.28C383.813 87.04 385.573 83.52 385.573 78.72C385.573 74.0267 383.813 70.56 380.292 68.32C376.879 65.9733 371.813 64.8 365.093 64.8H332.933V45.92H360.613C366.906 45.92 371.706 44.8533 375.013 42.72C378.426 40.48 380.133 37.12 380.133 32.64C380.133 28.2667 378.426 25.0133 375.013 22.88C371.706 20.64 366.906 19.52 360.613 19.52H334.853V92.48ZM431.436 112V-7.62939e-06H457.356V112H431.436ZM507.136 112V21.12H471.296V-7.62939e-06H568.896V21.12H533.056V112H507.136Z" fill="white"/>
</svg>
