<svg width="14" height="13" viewBox="0 0 14 13" fill="none" xmlns="http://www.w3.org/2000/svg">
<path d="M4.8125 4.875C4.8125 4.76726 4.85859 4.66392 4.94064 4.58774C5.02269 4.51155 5.13397 4.46875 5.25 4.46875H8.75C8.86603 4.46875 8.97731 4.51155 9.05936 4.58774C9.14141 4.66392 9.1875 4.76726 9.1875 4.875C9.1875 4.98274 9.14141 5.08608 9.05936 5.16226C8.97731 5.23845 8.86603 5.28125 8.75 5.28125H5.25C5.13397 5.28125 5.02269 5.23845 4.94064 5.16226C4.85859 5.08608 4.8125 4.98274 4.8125 4.875ZM5.25 6.90625H8.75C8.86603 6.90625 8.97731 6.86345 9.05936 6.78726C9.14141 6.71108 9.1875 6.60774 9.1875 6.5C9.1875 6.39226 9.14141 6.28892 9.05936 6.21274C8.97731 6.13655 8.86603 6.09375 8.75 6.09375H5.25C5.13397 6.09375 5.02269 6.13655 4.94064 6.21274C4.85859 6.28892 4.8125 6.39226 4.8125 6.5C4.8125 6.60774 4.85859 6.71108 4.94064 6.78726C5.02269 6.86345 5.13397 6.90625 5.25 6.90625ZM7 7.71875H5.25C5.13397 7.71875 5.02269 7.76155 4.94064 7.83774C4.85859 7.91392 4.8125 8.01726 4.8125 8.125C4.8125 8.23274 4.85859 8.33608 4.94064 8.41226C5.02269 8.48845 5.13397 8.53125 5.25 8.53125H7C7.11603 8.53125 7.22731 8.48845 7.30936 8.41226C7.39141 8.33608 7.4375 8.23274 7.4375 8.125C7.4375 8.01726 7.39141 7.91392 7.30936 7.83774C7.22731 7.76155 7.11603 7.71875 7 7.71875ZM12.25 2.4375V7.95691C12.2504 8.06365 12.2279 8.16939 12.1839 8.26799C12.1398 8.36659 12.0751 8.45608 11.9935 8.53125L9.1875 11.1368C9.10654 11.2126 9.01017 11.2727 8.90399 11.3136C8.79781 11.3545 8.68393 11.3753 8.56898 11.375H2.625C2.39294 11.375 2.17038 11.2894 2.00628 11.137C1.84219 10.9847 1.75 10.778 1.75 10.5625V2.4375C1.75 2.22201 1.84219 2.01535 2.00628 1.86298C2.17038 1.7106 2.39294 1.625 2.625 1.625H11.375C11.6071 1.625 11.8296 1.7106 11.9937 1.86298C12.1578 2.01535 12.25 2.22201 12.25 2.4375ZM2.625 10.5625H8.3125V8.125C8.3125 8.01726 8.35859 7.91392 8.44064 7.83774C8.52269 7.76155 8.63397 7.71875 8.75 7.71875H11.375V2.4375H2.625V10.5625ZM9.1875 8.53125V9.98867L10.7565 8.53125H9.1875Z" fill="#FFA101"/>
</svg>
