<svg width="41" height="41" viewBox="0 0 41 41" fill="none" xmlns="http://www.w3.org/2000/svg">
<path d="M11.9583 18.7915V11.9582C11.9583 9.69278 12.8583 7.52017 14.4601 5.9183C16.062 4.31643 18.2346 3.4165 20.5 3.4165C22.7654 3.4165 24.938 4.31643 26.5399 5.9183C28.1417 7.52017 29.0417 9.69278 29.0417 11.9582V18.7915M8.54167 18.7915H32.4583C34.3453 18.7915 35.875 20.3212 35.875 22.2082V34.1665C35.875 36.0535 34.3453 37.5832 32.4583 37.5832H8.54167C6.65469 37.5832 5.125 36.0535 5.125 34.1665V22.2082C5.125 20.3212 6.65469 18.7915 8.54167 18.7915Z" stroke="white" stroke-width="4" stroke-linecap="round" stroke-linejoin="round"/>
</svg>
