<svg width="25" height="22" viewBox="0 0 25 22" fill="none" xmlns="http://www.w3.org/2000/svg">
<path d="M4.69732e-06 2.34375C4.69732e-06 1.72215 0.246935 1.12601 0.686473 0.686468C1.12601 0.24693 1.72215 0 2.34375 0H19.5312C20.1529 0 20.749 0.24693 21.1885 0.686468C21.6281 1.12601 21.875 1.72215 21.875 2.34375V18.7937C21.875 19.2625 21.7969 19.8156 21.5031 20.3125H22.6562C22.8634 20.3125 23.0622 20.2302 23.2087 20.0837C23.3552 19.9372 23.4375 19.7384 23.4375 19.5312V5.46875C23.4375 5.26155 23.5198 5.06283 23.6663 4.91632C23.8128 4.76981 24.0115 4.6875 24.2187 4.6875C24.4259 4.6875 24.6247 4.76981 24.7712 4.91632C24.9177 5.06283 25 5.26155 25 5.46875V19.5312C25 20.1528 24.7531 20.749 24.3135 21.1885C23.874 21.6281 23.2779 21.875 22.6562 21.875H2.33907C2.0315 21.875 1.72696 21.8143 1.44286 21.6965C1.15877 21.5787 0.900704 21.4059 0.683441 21.1882C0.466177 20.9705 0.293981 20.7121 0.176708 20.4278C0.0594351 20.1435 -0.000611665 19.8388 4.69732e-06 19.5312V2.34375ZM18.75 20.3125C19.3281 20.3125 19.7719 19.9828 20.0828 19.6234C20.2266 19.4578 20.3125 19.1875 20.3125 18.7937V2.34375C20.3125 2.13655 20.2302 1.93784 20.0837 1.79132C19.9372 1.64481 19.7385 1.5625 19.5312 1.5625H2.34375C2.13655 1.5625 1.93784 1.64481 1.79133 1.79132C1.64481 1.93784 1.5625 2.13655 1.5625 2.34375V19.5312C1.5625 19.9656 1.91094 20.3125 2.33907 20.3125H18.75Z" fill="#FFA101"/>
<path d="M3.125 3.125H18.75V6.25H3.125V3.125ZM3.125 7.8125H9.375V12.5H3.125V7.8125ZM3.125 14.0625H9.375V15.625H3.125V14.0625ZM3.125 17.1875H9.375V18.75H3.125V17.1875ZM10.9375 7.8125H14.0625V9.375H10.9375V7.8125ZM15.625 7.8125H18.75V9.375H15.625V7.8125ZM10.9375 10.9375H14.0625V12.5H10.9375V10.9375ZM15.625 10.9375H18.75V12.5H15.625V10.9375ZM10.9375 14.0625H14.0625V15.625H10.9375V14.0625ZM15.625 14.0625H18.75V15.625H15.625V14.0625ZM10.9375 17.1875H14.0625V18.75H10.9375V17.1875ZM15.625 17.1875H18.75V18.75H15.625V17.1875Z" fill="#FFA101"/>
</svg>
