<svg width="26" height="36" viewBox="0 0 26 36" fill="none" xmlns="http://www.w3.org/2000/svg">
<path d="M13 8.18182V13.0909L19.5 6.54545L13 0V4.90909C5.8175 4.90909 0 10.7673 0 18C0 20.5691 0.7475 22.9582 2.015 24.9709L4.3875 22.5818C3.6375 21.1729 3.24664 19.5986 3.25 18C3.25 12.5836 7.62125 8.18182 13 8.18182ZM23.985 11.0291L21.6125 13.4182C22.3275 14.7927 22.75 16.3473 22.75 18C22.75 23.4164 18.3787 27.8182 13 27.8182V22.9091L6.5 29.4545L13 36V31.0909C20.1825 31.0909 26 25.2327 26 18C26 15.4309 25.2525 13.0418 23.985 11.0291Z" fill="#FFA101"/>
</svg>
