<svg width="15" height="16" viewBox="0 0 15 16" fill="none" xmlns="http://www.w3.org/2000/svg">
<path d="M9.11191 1.55052C9.03309 1.50955 8.94507 1.49299 8.85785 1.50271C8.77064 1.51243 8.68774 1.54805 8.61855 1.60552L4.52637 4.9999H1.875C1.62636 4.9999 1.3879 5.10526 1.21209 5.29279C1.03627 5.48033 0.9375 5.73468 0.9375 5.9999V9.9999C0.9375 10.2651 1.03627 10.5195 1.21209 10.707C1.3879 10.8945 1.62636 10.9999 1.875 10.9999H4.52637L8.61855 14.3943C8.6878 14.4517 8.77077 14.4872 8.85801 14.4969C8.94526 14.5065 9.03329 14.4898 9.11209 14.4487C9.19089 14.4077 9.25731 14.3438 9.30378 14.2645C9.35026 14.1851 9.37493 14.0935 9.375 13.9999V1.9999C9.37501 1.90623 9.35036 1.81444 9.30384 1.73499C9.25733 1.65554 9.19083 1.59162 9.11191 1.55052ZM1.875 5.9999H4.21875V9.9999H1.875V5.9999ZM8.4375 12.9774L5.15625 10.2555V5.74427L8.4375 3.0224V12.9774ZM11.6016 6.3474C11.9786 6.80395 12.1866 7.39148 12.1866 7.9999C12.1866 8.60832 11.9786 9.19585 11.6016 9.6524C11.5187 9.74946 11.4035 9.8079 11.2806 9.81511C11.1578 9.82231 11.0372 9.77771 10.9449 9.69091C10.8526 9.60411 10.796 9.48209 10.7873 9.35118C10.7786 9.22026 10.8185 9.09095 10.8984 8.99115C11.1245 8.71725 11.2493 8.36483 11.2493 7.9999C11.2493 7.63496 11.1245 7.28254 10.8984 7.00865C10.8185 6.90885 10.7786 6.77954 10.7873 6.64862C10.796 6.51771 10.8526 6.39568 10.9449 6.30889C11.0372 6.22209 11.1578 6.17748 11.2806 6.18469C11.4035 6.19189 11.5187 6.25033 11.6016 6.3474ZM14.5312 7.9999C14.5319 9.23003 14.1069 10.4171 13.3377 11.3336C13.2542 11.43 13.1385 11.4875 13.0156 11.4937C12.8927 11.4999 12.7725 11.4544 12.6808 11.3668C12.5891 11.2793 12.5334 11.1568 12.5256 11.0259C12.5179 10.8949 12.5587 10.7659 12.6393 10.6668C13.2541 9.93342 13.5941 8.98407 13.5941 8.00021C13.5941 7.01635 13.2541 6.067 12.6393 5.33365C12.5971 5.28494 12.5644 5.22775 12.5431 5.16543C12.5218 5.10311 12.5123 5.03689 12.5153 4.97063C12.5182 4.90438 12.5335 4.83941 12.5602 4.77951C12.5869 4.71961 12.6245 4.66598 12.6709 4.62174C12.7172 4.5775 12.7713 4.54354 12.8301 4.52183C12.8888 4.50012 12.9511 4.4911 13.0131 4.49529C13.0752 4.49948 13.1358 4.5168 13.1916 4.54624C13.2473 4.57568 13.297 4.61665 13.3377 4.66677C14.1071 5.58291 14.5322 6.76991 14.5312 7.9999Z" fill="#FFA101"/>
</svg>
