       <svg xmlns="http://www.w3.org/2000/svg" width="33" height="32" viewBox="0 0 33 32" fill="none">
                <rect x="0.5" width="32" height="32" rx="5.33333" fill="#cb3c33" />
                <path
                  d="M11.1556 8.74533C10.8952 8.70744 10.6297 8.75984 10.4033 8.89382H10.3837C9.85842 9.202 9.38495 9.59002 8.98152 10.0467C8.64533 10.4347 8.46322 10.8269 8.41559 11.2051C8.38758 11.4293 8.40719 11.6562 8.47303 11.8705L8.49824 11.8845C8.87646 12.9954 9.36954 14.0642 9.97188 15.07C10.7486 16.4827 11.7043 17.7892 12.8155 18.9572L12.8491 19.0048L12.9024 19.044L12.9346 19.0819L12.9738 19.1155C14.1459 20.23 15.4555 21.1903 16.8708 21.9731C18.4888 22.8542 19.4707 23.2703 20.0605 23.444V23.4524C20.2328 23.5056 20.3897 23.5294 20.5479 23.5294C21.0502 23.4923 21.5256 23.2881 21.8983 22.9495C22.3536 22.546 22.7388 22.0712 23.0386 21.5431V21.5333C23.3201 21.001 23.2249 20.4995 22.8186 20.1591C22.0027 19.4461 21.1203 18.8129 20.1837 18.268C19.5562 17.9276 18.9188 18.1335 18.6611 18.4781L18.1105 19.1729C17.8276 19.5175 17.3149 19.4699 17.3149 19.4699L17.3009 19.4783C13.4753 18.5019 12.4541 14.6287 12.4541 14.6287C12.4541 14.6287 12.4065 14.102 12.7609 13.833L13.4501 13.2783C13.7807 13.0094 14.0104 12.3734 13.656 11.7459C13.1147 10.8084 12.4827 9.92632 11.7691 9.11234C11.6135 8.92078 11.3952 8.79031 11.1528 8.74393L11.1556 8.74533Z"
                  fill="white" />
                <path
                  d="M17.5446 11.7108C17.4509 11.7026 17.3564 11.7133 17.2669 11.7423C17.1774 11.7713 17.0947 11.8181 17.0237 11.8798C16.9526 11.9415 16.8948 12.0169 16.8535 12.1015C16.8123 12.1861 16.7885 12.2781 16.7836 12.3721C16.7787 12.466 16.7928 12.56 16.825 12.6484C16.8573 12.7368 16.907 12.8179 16.9712 12.8866C17.0354 12.9554 17.1129 13.0105 17.1989 13.0487C17.2849 13.0869 17.3777 13.1073 17.4718 13.1088C18.0573 13.1397 18.4313 13.3162 18.6667 13.5529C18.9034 13.791 19.0799 14.1734 19.1121 14.7716C19.1139 14.8656 19.1345 14.9583 19.1728 15.0441C19.2112 15.1299 19.2664 15.2072 19.3352 15.2712C19.404 15.3353 19.485 15.3848 19.5734 15.4169C19.6617 15.449 19.7557 15.463 19.8495 15.458C19.9434 15.453 20.0353 15.4292 20.1198 15.3879C20.2043 15.3466 20.2796 15.2888 20.3412 15.2178C20.4029 15.1468 20.4496 15.0642 20.4786 14.9748C20.5076 14.8853 20.5183 14.791 20.5101 14.6973C20.4653 13.8569 20.2019 13.1144 19.6626 12.5681C19.1205 12.0218 18.3823 11.7557 17.5446 11.7108Z"
                  fill="white" />
                <path
                  d="M17.5712 9.36449C17.3855 9.36449 17.2073 9.43828 17.076 9.56963C16.9446 9.70098 16.8708 9.87913 16.8708 10.0649C16.8708 10.2506 16.9446 10.4288 17.076 10.5601C17.2073 10.6915 17.3855 10.7653 17.5712 10.7653H17.5951C18.8726 10.8563 19.8027 11.2822 20.4541 11.9812C21.1223 12.7012 21.4683 13.5963 21.4417 14.7029C21.4374 14.8887 21.5071 15.0686 21.6354 15.2029C21.7637 15.3373 21.9402 15.4152 22.1259 15.4195C22.3117 15.4237 22.4915 15.354 22.6259 15.2257C22.7603 15.0974 22.8382 14.9209 22.8425 14.7352C22.8761 13.2825 22.4082 12.0288 21.4809 11.0286V11.0258C20.5325 10.0089 19.2312 9.47095 17.6651 9.36589L17.6413 9.36309L17.5712 9.36449Z"
                  fill="white" />
                <path
                  d="M17.6189 7.06157C17.4331 7.06157 17.255 7.13536 17.1236 7.26671C16.9923 7.39806 16.9185 7.57621 16.9185 7.76197C16.9185 7.94773 16.9923 8.12588 17.1236 8.25723C17.255 8.38858 17.4331 8.46237 17.6189 8.46237C19.3909 8.46237 20.8617 9.0409 22.0258 10.1503C22.6239 10.7569 23.0904 11.4755 23.3958 12.2627C23.7025 13.0514 23.8426 13.8933 23.8062 14.7366C23.8023 14.8285 23.8166 14.9204 23.8483 15.0068C23.8799 15.0933 23.9282 15.1727 23.9905 15.2404C24.1164 15.3773 24.2914 15.4586 24.4772 15.4664C24.663 15.4742 24.8442 15.4079 24.9811 15.282C25.1179 15.1562 25.1992 14.9812 25.207 14.7954C25.2505 13.7581 25.0783 12.723 24.7013 11.7557C24.3227 10.7837 23.7487 9.89976 23.0148 9.15857L23.0007 9.14456C21.5565 7.76477 19.7285 7.06157 17.6189 7.06157Z"
                  fill="white" />
              </svg>