<svg width="33" height="32" viewBox="0 0 33 32" fill="none" xmlns="http://www.w3.org/2000/svg">
<rect x="0.5" width="32" height="32" rx="5.33333" fill="#2BABF3"/>
<path d="M22.996 11.5518C22.786 13.76 21.876 19.1267 21.414 21.6005C21.218 22.6487 20.826 22.9981 20.462 23.04C19.65 23.1099 19.034 22.5089 18.25 21.9918C17.018 21.1812 16.318 20.6781 15.128 19.8954C13.742 18.987 14.638 18.4839 15.436 17.6733C15.646 17.4636 19.23 14.2072 19.3 13.9137C19.3097 13.8693 19.3084 13.8231 19.2962 13.7793C19.284 13.7355 19.2613 13.6952 19.23 13.6622C19.146 13.5923 19.034 13.6202 18.936 13.6342C18.81 13.6622 16.85 14.9619 13.028 17.5335C12.468 17.9108 11.964 18.1065 11.516 18.0925C11.012 18.0786 10.06 17.813 9.346 17.5754C8.464 17.2959 7.778 17.1422 7.834 16.653C7.862 16.4014 8.212 16.1499 8.87 15.8843C12.958 14.1094 15.674 12.9354 17.032 12.3764C20.924 10.7552 21.722 10.4757 22.254 10.4757C22.366 10.4757 22.632 10.5036 22.8 10.6434C22.94 10.7552 22.982 10.9089 22.996 11.0207C22.982 11.1046 23.01 11.3561 22.996 11.5518Z" fill="white"/>
</svg>
