<?xml version="1.0" standalone="no"?>
<!DOCTYPE svg PUBLIC "-//W3C//DTD SVG 20010904//EN"
 "http://www.w3.org/TR/2001/REC-SVG-20010904/DTD/svg10.dtd">
<svg version="1.0" xmlns="http://www.w3.org/2000/svg"
 width="260.000000pt" height="260.000000pt" viewBox="0 0 260.000000 260.000000"
 preserveAspectRatio="xMidYMid meet">
<metadata>
Created by potrace 1.14, written by Peter Selinger 2001-2017
</metadata>
<g transform="translate(0.000000,260.000000) scale(0.100000,-0.100000)"
fill="#000000" stroke="none">
<path d="M1120 2578 c-119 -37 -230 -81 -289 -115 -99 -58 -243 -168 -303
-232 -104 -112 -211 -329 -268 -543 -16 -64 -20 -108 -20 -244 0 -157 4 -198
31 -364 15 -92 73 -271 119 -365 45 -94 172 -279 238 -349 54 -56 130 -108
185 -126 22 -7 77 -30 124 -51 47 -22 130 -51 185 -65 94 -24 115 -25 288 -22
l187 3 134 67 c314 156 440 303 632 733 50 111 55 140 62 385 8 241 4 274 -51
445 -76 236 -131 356 -202 445 -68 84 -214 229 -268 266 l-53 37 -85 -5 c-96
-6 -200 -47 -230 -89 -105 -150 -116 -174 -116 -267 l0 -79 83 -32 c163 -61
235 -118 330 -258 59 -89 117 -250 117 -325 -1 -160 -26 -289 -107 -549 -15
-47 -13 -166 2 -253 l8 -39 -37 6 c-25 4 -69 30 -131 77 l-94 71 -57 -10 c-37
-7 -76 -24 -115 -51 -52 -35 -65 -40 -118 -40 -42 0 -65 5 -82 19 -13 10 -46
30 -74 44 -27 14 -65 41 -83 60 -33 34 -34 34 -65 19 -18 -8 -45 -26 -60 -38
-30 -25 -114 -54 -158 -54 -45 0 -54 62 -16 120 21 33 22 45 20 190 -1 129 -6
173 -27 260 -21 83 -26 130 -26 225 0 185 34 283 128 366 51 45 261 146 373
179 94 28 106 45 119 165 14 123 46 202 104 251 22 19 52 37 66 41 14 3 46 17
73 31 35 18 47 30 47 47 0 31 -19 33 -255 34 -173 0 -209 -3 -265 -21z"/>
</g>
</svg>
